<svg xmlns="http://www.w3.org/2000/svg" width="591.851" height="199.321"><g data-name="グループ 395"><g data-name="グループ 148" fill="#231815"><path data-name="パス 595" d="M471.19 192.06a16.239 16.239 0 001.961-4.076h-7.592v-1.163h8.236l.939.547a22.638 22.638 0 01-2.549 5.407 32.349 32.349 0 013.151 2.493l-.924.911a24.43 24.43 0 00-2.928-2.466 13.057 13.057 0 01-5.462 4.077l-.813-1.037a12.215 12.215 0 005.28-3.754 39.566 39.566 0 00-3.7-2.325l.714-.911a42.983 42.983 0 013.687 2.297z"/><path data-name="パス 596" d="M484.152 195.618v-6.779h-3.893v-1.163h9.23v1.163h-4.034v6.779h5.085v1.191h-11.332v-1.191z"/><path data-name="パス 597" d="M497.774 192.018a15.456 15.456 0 01-3.053 4.245l-.981-.7a12.629 12.629 0 002.914-3.992zm8.124-2.213h-5.154v6.051c0 1.387-.518 1.934-1.863 1.934a16.388 16.388 0 01-1.709-.1v-1.192a8.432 8.432 0 001.4.1c.714 0 .9-.252.9-.883v-5.911h-5.114v-1.162h5.114v-2.886h1.274v2.886h5.155zm-2.436 1.639a24.1 24.1 0 012.983 4.048l-1.106.631a18.815 18.815 0 00-2.9-4.063zm.069-5.505a10.359 10.359 0 011.471 1.765l-.56.434a9.208 9.208 0 00-1.443-1.751zm1.5-.868a10.557 10.557 0 011.486 1.75l-.575.435a9.028 9.028 0 00-1.443-1.737z"/><path data-name="パス 598" d="M513.973 187.858a24.049 24.049 0 01-3.643 9.329l-1.177-.644a20.614 20.614 0 003.544-8.951zm7.717 8.671l-1.3.406a33.68 33.68 0 00-3.754-9.119l1.177-.518a41.084 41.084 0 013.877 9.231zm.351-9.539a1.548 1.548 0 110-.014zm-2.62 0a1.085 1.085 0 001.079 1.064 1.086 1.086 0 10-1.079-1.078z"/><path data-name="パス 599" d="M525.788 190.141a14.257 14.257 0 011.3 2.886l-.981.406a12.278 12.278 0 00-1.289-2.857zm7.34-.042a9.849 9.849 0 01-5.715 7.662l-.715-.966a8.317 8.317 0 005.295-6.934zm-4.665-.532a16.13 16.13 0 011.177 2.928l-.994.406a13.242 13.242 0 00-1.149-2.942z"/><path data-name="パス 600" d="M545.98 187.914l.91.434c-1.065 4.623-3.4 7.746-7.606 9.5l-.827-1.022a10.436 10.436 0 006.893-7.8h-4.623a17.136 17.136 0 01-3.362 3.824l-.953-.785a16.591 16.591 0 004.721-6.331l1.177.42a16.165 16.165 0 01-.9 1.765z"/></g><g data-name="グループ 149"><path data-name="パス 601" d="M354.95 43.912H.001L195.053-.002h354.948z" fill="#f2e10a"/><path data-name="パス 602" d="M354.95 199.321H.001l195.052-43.923h354.948z" fill="#f2e10a"/><path data-name="パス 603" d="M48.145 108.974L20.683 69.311H.077v71.151H20.66v-39.873l27.319 39.873h20.709V69.311H48.145z" fill="#040000"/><path data-name="パス 604" d="M120.944 114.261c0 3.963-1.076 7.014-3.239 9.177s-5.22 3.227-9.018 3.227c-3.831 0-6.911-1.086-9.073-3.282s-3.228-5.225-3.228-9.122V69.309H74.365v41.372a45.869 45.869 0 002.053 12.571 22.768 22.768 0 004.687 8.233 25.74 25.74 0 007.586 6.148 29.53 29.53 0 0010.286 3.311 98.133 98.133 0 0011.384.724 44.442 44.442 0 0015.434-2.382 24.7 24.7 0 008.838-5.906 25.9 25.9 0 006.191-9.836 35.754 35.754 0 001.965-11.955v-42.28h-21.845z" fill="#040000"/><path data-name="パス 605" d="M259.87 69.307l-15.945 51.8-17.227-51.8h-78.046v71.151h59.7v-15.923h-37.921v-14.569h34.905V94.089h-34.905V85.12h37.925v-5.322h.5l22.745 60.66h23l26.758-71.151z" fill="#040000"/><path data-name="パス 606" d="M310.961 67.837c-11.6 0-20.461 3.249-26.961 9.748s-9.737 15.566-9.737 27.224q0 12.516 4.908 20.847a30.148 30.148 0 0012.83 12.174c5.281 2.558 11.779 3.843 19.837 3.843 7.915 0 14.369-1.482 19.671-4.457a30.073 30.073 0 0012.185-12.46q4.2-8.019 4.205-20.539 0-17.225-9.638-26.8c-6.423-6.389-15.424-9.583-27.3-9.583m11.154 53.529c-2.6 3.085-6.269 4.7-11.011 4.7a13.657 13.657 0 01-10.934-4.8c-2.667-3.151-4.43-9.157-4.43-16.359 0-7.278 1.763-13.307 4.453-16.457a13.453 13.453 0 0110.725-4.814 13.975 13.975 0 0111.021 4.737c2.712 3.1 4.4 8.839 4.4 15.557 0 7.992-1.625 14.35-4.227 17.435" fill="#040000"/><path data-name="パス 607" d="M410.386 92.635c0-7.026-2.977-13.83-6.963-17.628s-10.7-5.7-18.691-5.7h-34.931v71.141h21.586v-23.35h11.5q13.338 0 19.837-6.081a26.3 26.3 0 007.662-18.382zm-24.063 6.218c-1.713 1.482-4.71 2.218-8.958 2.218h-5.979V85.142h6.857c4.117 0 6.938.78 8.42 2.338a7.931 7.931 0 012.24 5.7 7.143 7.143 0 01-2.58 5.675" fill="#040000"/><path data-name="パス 608" d="M521.566 96.009l26.05-26.7h-28.6l-23.84 27.478V69.309h-22.065v63.829l-24.41-63.832h-24.069l-26.417 71.151h22.114l3.48-11.79h25.04l3.579 11.79h42.748v-17.009l12.22-13.264 15.463 30.273h25.932zm-92.97 15.586l7.805-24.854 7.871 24.854z" fill="#040000"/><path data-name="パス 609" d="M556.778 38.429h-6.477v-3.994h19.7v3.994h-8.475v17.606h-4.749z" fill="#231815"/><path data-name="パス 610" d="M568.586 34.435h6.687l5.052 14.854h.06l4.78-14.854h6.686v21.6h-4.45V40.727h-.06l-5.294 15.308h-3.66l-5.295-15.156h-.06v15.156h-4.448z" fill="#231815"/></g></g></svg>