<svg xmlns="http://www.w3.org/2000/svg" width="297.938" height="221.5"><g data-name="グループ 401"><g data-name="グループ 400"><path data-name="パス 2908" d="M230.696 189.166L60.287 208.313a25 25 0 01-27.154-19.235L8.883 83.734A25 25 0 0134.096 53.14l200.975 6.834a25 25 0 0124.071 26.969l-6.316 79.363a25 25 0 01-22.13 22.86z" fill="#f2e10a"/><g data-name="グループ 258"><g data-name="グループ 256"><path data-name="パス 2909" d="M276.347 27.514l-2.686-5.473a4.619 4.619 0 00-5.726-2.316l-.05.016-8.744 2.283-10.043-20.463a2.774 2.774 0 00-1.6-1.412 2.791 2.791 0 00-3.406 3.871l.291.593-26.038 29.144a6.2 6.2 0 01-1.9 1.444l-15.031 7.377a2.415 2.415 0 00-1.1 3.229l.137.28-4.556 2.236a13.728 13.728 0 007.765 25.939 13.747 13.747 0 004.326-1.3l4.556-2.236.139.283a2.412 2.412 0 003.228 1.1l2.8-1.372 9.1 18.547a5.194 5.194 0 005.3 2.861 5.209 5.209 0 001.629-.489l.046-.023a5.2 5.2 0 002.33-6.917l-9.1-18.547 2.926-1.437a6.2 6.2 0 011.957-.588c.116-.015.232-.026.351-.034l38.982-2.768.291.592a2.791 2.791 0 105.01-2.459l-10.043-20.463 7.232-5.571a4.617 4.617 0 001.627-5.927z" fill="#f2e10a"/></g><g data-name="グループ 257" fill="#16429c"><path data-name="パス 2910" d="M281.078 25.308a5.616 5.616 0 00-6.948-2.821l-7.931 2.071-9.684-19.724a3.79 3.79 0 00-6.811 3.327l-25.589 28.643a5.216 5.216 0 01-1.6 1.213l-15.029 7.376a3.422 3.422 0 00-1.8 3.92l-3.721 1.826a14.722 14.722 0 1012.973 26.432l3.721-1.827a3.416 3.416 0 003.257 1.278 3.438 3.438 0 00.946-.305l1.9-.931 8.664 17.65a6.184 6.184 0 0011.1-5.449l-8.664-17.651 2.029-1a5.2 5.2 0 011.938-.523l38.311-2.72a3.791 3.791 0 006.8-3.353l-9.684-19.729 6.49-5.007a5.614 5.614 0 002.019-7.223zm-67.242 50.014a12.222 12.222 0 11-10.77-21.944l3.658-1.795 10.77 21.943zm28.444 13.761a3.684 3.684 0 01-6.614 3.247l-8.663-17.651 6.614-3.246zm40.477-24.255a1.291 1.291 0 01-2.38.151l-8.563-17.446a1.25 1.25 0 00-2.244 1.1l7.38 15.037-37.3 2.648a7.683 7.683 0 00-2.861.772l-15.03 7.377a.912.912 0 01-1.222-.417l-8.993-18.323-3.374-6.875a.914.914 0 01.418-1.22l15.03-7.377.014-.008 10 20.385a1.25 1.25 0 002.245-1.1l-10.194-20.77c.1-.1.2-.193.292-.3l24.913-27.885 5.89 12a1.25 1.25 0 002.245-1.1L251.95 7.066a1.291 1.291 0 012.317-1.137l28.424 57.912a1.285 1.285 0 01.066.987zm-2.39-28.91l-6.235 4.8-6.809-13.873 7.5-1.957.119-.037a3.119 3.119 0 013.9 1.556l2.686 5.473a3.122 3.122 0 01-1.161 4.038z"/><path data-name="パス 2911" d="M296.769 43.24l-7.41-.484a1.253 1.253 0 00-.162 2.5l7.409.483a1.2 1.2 0 00.288-.014 1.25 1.25 0 00-.125-2.48z"/><path data-name="パス 2912" d="M276.815 5.41l-4.15 6.157a1.25 1.25 0 102.073 1.4l4.15-6.157a1.25 1.25 0 00-2.073-1.4z"/><path data-name="パス 2913" d="M294.633 21.684a1.25 1.25 0 00-1.673-.572l-6.611 3.245a1.25 1.25 0 00.756 2.356 1.276 1.276 0 00.345-.112l6.611-3.244a1.25 1.25 0 00.572-1.673z"/><path data-name="パス 2914" d="M246.913 18.419l-1.8 2.017a1.25 1.25 0 001.867 1.663l1.8-2.017a1.25 1.25 0 10-1.867-1.663z"/><path data-name="パス 2915" d="M241.463 24.469l-6.742 7.566a1.25 1.25 0 001.867 1.663l6.741-7.566a1.25 1.25 0 10-1.866-1.663z"/></g></g><g data-name="グループ 259"><path data-name="パス 2916" d="M72.842 221.334a26.249 26.249 0 01-28.512-20.2L20.081 95.794a26.251 26.251 0 0126.473-32.123l127.727 4.343a1.25 1.25 0 01-.085 2.5L46.469 66.171a23.749 23.749 0 00-23.951 29.063l24.249 105.343a23.737 23.737 0 0025.8 18.274l170.41-19.147A23.788 23.788 0 00264 177.987l7.265-90.606a1.25 1.25 0 112.492.2l-7.265 90.606a26.292 26.292 0 01-23.236 24z" fill="#16429c"/></g><g data-name="グループ 265"><path data-name="パス 3056" d="M22.925 60.934a1.247 1.247 0 01-1.083-.492l-11.5-15.151a1.25 1.25 0 111.991-1.511l11.5 15.151a1.25 1.25 0 01-.908 2z" fill="#16429c"/></g><g data-name="グループ 266"><path data-name="パス 3057" d="M13.254 72.013a1.231 1.231 0 01-.429-.045L.908 68.575a1.25 1.25 0 11.684-2.4l11.917 3.393a1.25 1.25 0 01-.255 2.449z" fill="#16429c"/></g></g></g></svg>