<svg xmlns="http://www.w3.org/2000/svg" width="234.999" height="48.46"><g data-name="グループ 227"><path data-name="パス 221" d="M27.138 25.418h-3.749v-2.44h3.749zm3.512 1.779v-5.786a2 2 0 00-1.9-2.266h-9.188v15.072h3.832v-8.349l1.133 3.386h4.224s1.9-.4 1.9-2.054" fill="#098651"/><path data-name="パス 222" d="M24.279 4.548a14.973 14.973 0 011.919-2.412h-8.675s-3.518-.013-4.861 2.173L7.688 13.5l8.758 5.027s.634-.938 7.833-13.979" fill="#098651"/><path data-name="パス 223" d="M7.688 41.319s.126 4.66 4.658 4.66h10.493V35.794H9.929a7.4 7.4 0 00-2.241 5.525" fill="#098651"/><path data-name="パス 224" d="M14.622 26.953l-4.387-7.557-8.733-.028 1.909 1.1L.24 26.222a4.208 4.208 0 00.31 3.35c4.221 7.827 4.966 9.07 4.966 9.07.063-1.121 1.615-3.729 1.615-3.729 4.153-7.376 5.034-8.943 5.228-9.276l2.263 1.308" fill="#098651"/><path data-name="パス 225" d="M30.137 15.054l-1.436.828 8.732-.026 4.387-7.548-2.677 1.543c-.415-.805-1.12-2.2-2.084-3.989a7.625 7.625 0 00-3.391-3.315s-3.19-1.325-4.845.624c0 0-.62.746-3.144 4.386l4.458 7.5" fill="#098651"/><path data-name="パス 226" d="M48.617 25.141l-4.847-8.393-9.273 5.347 4.849 8.4a5.352 5.352 0 009.271-5.349" fill="#098651"/><path data-name="パス 227" d="M30.662 35.745v-2.438l-4.343 7.577 4.343 7.576v-2.445h7.354a3.488 3.488 0 002.607-1.527s.29-.541 5.549-9.4a8.552 8.552 0 01-2.817.661H30.662" fill="#098651"/><path data-name="パス 228" d="M220.774 33.268V8.484h-6.512V40l19.082.024 1.659-6.76h-14.229m-43.583 9.058c0 4.758 4.38 5.029 5.285 5.029h22.538v-9.213H186.74v-4.87h10.8l2.539-9.872-13.344-.013v-5.015h18.274V8.484h-27.818zm35.834-33.838h-6.294v33.928c0 3.971 3.962 4.939 6.294 4.939h18.437l1.533-6.111h-19.97zm-51.033 18.042l-4.907-18.042h-10.108l10.108 38.867h9.884l9.214-38.867h-9.214zm-88.861-1.865h-9.659v-6.293h9.659zm9.061 4.6V14.327c0-5.843-4.9-5.843-4.9-5.843h-23.7v38.867h9.886V25.828l2.922 8.717h10.893s4.9-1.019 4.9-5.285m7.226-20.776L77.851 47.351h9.958l6.329-21 3.44 11.789h-6.216l2.849 9.214h16.658L98.962 8.484zm59.808 26.384L142.15 8.484h-9.939l8.664 33.928a6.779 6.779 0 006.1 4.939c1.916-.006 6.182 0 6.182 0l1.35-5.743-3.587-13.74zm-30.048-16.5h13.032l-2.364-9.885h-15.269c-2.356 0-5.169 2.253-5.169 7.415v24.938c0 3.26 2.25 6.515 5.169 6.515h22.424l2.287-9.213h-20.11z" fill="#fff"/><path data-name="パス 229" d="M56.409 3.336l-1 .432a22.66 22.66 0 00-1.379-2.671l.913-.439c.434.725.7 1.177.8 1.367s.321.625.671 1.311m3.39-2.534a13.158 13.158 0 01-.288 1.966 5.068 5.068 0 01-.766 1.642 4.436 4.436 0 01-1.532 1.37 6.667 6.667 0 01-2.319.715l-.3-.867a6.248 6.248 0 002.169-.723 3.559 3.559 0 001.378-1.479 6.982 6.982 0 00.619-2.717z" fill="#098651"/><path data-name="パス 230" d="M62.681 4.385h-1.019V.673h1.022zm3.715-1.017q0 2.856-3.982 3.1l-.219-.9a4.762 4.762 0 002.447-.692 1.961 1.961 0 00.717-1.644V.557h1.037z" fill="#098651"/><path data-name="パス 231" d="M73.523 6.285h-5.644v-.748h3.2l.386-2.876h-2.886v-.748h3.852l-.467 3.624h1.559v.748" fill="#098651"/><path data-name="長方形 131" fill="#098651" d="M74.696 3.117h6.203v.896h-6.203z"/><path data-name="パス 232" d="M84.925 3.193l-.459.85c-.5-.215-.912-.384-1.233-.49s-.86-.275-1.614-.485l.385-.8a12.9 12.9 0 011.287.337c.387.121.931.32 1.634.588m3.021-.261a6.129 6.129 0 01-2.293 2.443 8.205 8.205 0 01-3.437 1.036l-.223-.91a8.087 8.087 0 002.969-.833 5.668 5.668 0 002.14-2.164zm-2.367-1.393l-.476.845c-.247-.114-.5-.221-.76-.328s-.474-.185-.637-.242l-1.418-.452.395-.783a20.861 20.861 0 012.896.96z" fill="#098651"/><path data-name="パス 233" d="M93.706 6.335h-4.692v-.748h3.795V4.303h-3.67v-.729h3.67V2.507h-3.68V1.79h4.577v4.545" fill="#098651"/><path data-name="パス 234" d="M99.028 2.118l-.619.843c-.334-.217-.626-.4-.887-.545s-.837-.448-1.747-.9l.536-.771a21.961 21.961 0 012.717 1.376m2.739.824a6.14 6.14 0 01-2.242 2.418 8.233 8.233 0 01-3.5 1.028l-.227-.94a9.1 9.1 0 001.925-.351 5.251 5.251 0 001.346-.644 6.446 6.446 0 00.985-.817 6.573 6.573 0 00.9-1.235z" fill="#098651"/><path data-name="パス 235" d="M107.462 1.488c0 .133-.05.478-.132 1.037a5.212 5.212 0 01-.6 1.714 3.809 3.809 0 01-1.529 1.456 7.39 7.39 0 01-2.772.76l-.271-.895a6.386 6.386 0 002.371-.649 3.108 3.108 0 001.349-1.238 4.884 4.884 0 00.5-1.923l-4.262-.011V.868l5.005.006a.864.864 0 00.342.609m1.4-.7a.7.7 0 01-.213.518.827.827 0 01-1.092 0 .74.74 0 010-1.037.839.839 0 011.092 0 .7.7 0 01.212.519zm-.453-.305l-.3-.124-.307.124-.124.305.124.306.307.12.3-.12.123-.306z" fill="#098651"/><path data-name="パス 236" d="M115.062 6.278h-5.469V1.131h5.469zm-4.447-.867h3.4V1.976h-3.4z" fill="#098651"/><path data-name="パス 237" d="M118.662.707a13.166 13.166 0 01-.219 2.481 5.679 5.679 0 01-.688 1.708 7.112 7.112 0 01-1.259 1.531l-.691-.645a5.872 5.872 0 00.972-1.173 6.763 6.763 0 00.588-1.348 9.594 9.594 0 00.286-2.588l1.011.034m3.967 4.974l-.755.707a5.991 5.991 0 01-1.188-1.764 8.477 8.477 0 01-.6-1.974 11.022 11.022 0 01-.166-1.729V.69l1.014-.019v.11a8.988 8.988 0 00.355 2.589 6.271 6.271 0 001.342 2.311zm-.837-4.357l-.492.189c-.09-.244-.245-.593-.446-1.056l.461-.167c.189.367.347.709.479 1.034zm.888-.244l-.483.175c-.1-.239-.241-.584-.451-1.042l.451-.163c.186.353.348.697.485 1.03z" fill="#098651"/><path data-name="パス 238" d="M127.093 6.443h-1.036V3.376a12.553 12.553 0 01-2.807 1.019l-.311-.886a10.307 10.307 0 003.1-1.252 6.093 6.093 0 001.995-1.9l.981.377a7.594 7.594 0 01-.964 1.214 8.314 8.314 0 01-.958.789v3.707" fill="#098651"/><path data-name="パス 239" d="M135.934 1.147a6.594 6.594 0 01-.089 1.016 6.06 6.06 0 01-.449 1.471 4.688 4.688 0 01-.844 1.239 5.075 5.075 0 01-1.375 1 8.286 8.286 0 01-1.914.673l-.339-.883a5.286 5.286 0 002.778-1.336 21.29 21.29 0 00-1.853-.782l.473-.777a18.322 18.322 0 011.975.808 4.952 4.952 0 00.558-1.592h-2.241a6.434 6.434 0 01-2.283 2.25l-.543-.707a5.653 5.653 0 002.423-3.131l1.037.131a13.08 13.08 0 01-.228.618h1.968a10.237 10.237 0 00-.417-.913l.456-.165a9.174 9.174 0 01.459.969l-.32.109h.768m.555-.148l-.485.177c-.15-.367-.3-.7-.451-1l.464-.174c.185.356.345.695.472.999z" fill="#098651"/><path data-name="長方形 132" fill="#098651" d="M136.917 3.117h6.196v.896h-6.196z"/></g></svg>