<svg xmlns="http://www.w3.org/2000/svg" width="15.445" height="15.211"><path data-name="パス 3458" d="M0 9.698a.835.835 0 01.936-.754 2.4 2.4 0 011.9.936c.573.6 1.664 1.821 2.029 2.106.077.053.1.1.155.1s.1-.051.182-.155c.754-1.093 2.081-3.095 3.407-4.992 1.82-2.6 3.847-5.279 4.368-5.9s.468-.858 1.378-.988a3.986 3.986 0 01.494-.052c.572 0 .6.286.6.546 0 .312-.312.468-.572.7a56.849 56.849 0 00-4.992 6.656 16.87 16.87 0 00-2.835 6.111c-.1.728-.389 1.2-1.04 1.2a2.975 2.975 0 01-1.664-.6 3.115 3.115 0 01-.91-1.014A29.532 29.532 0 00.29 10.217.758.758 0 010 9.698z" fill="#f36"/></svg>