<svg xmlns="http://www.w3.org/2000/svg" width="947.998" height="187.518"><defs><clipPath id="a"><path data-name="長方形 111" transform="translate(166.001 2799.522)" fill="none" d="M0 0h134.469v187.517H0z"/></clipPath><clipPath id="b"><path data-name="長方形 113" transform="translate(407.078 2833.738)" fill="none" d="M0 0h180.128v119.09H0z"/></clipPath><clipPath id="c"><path data-name="長方形 117" transform="translate(693.815 2827.107)" fill="none" d="M0 0h109.342v138.324H0z"/></clipPath><clipPath id="d"><path data-name="長方形 119" transform="translate(955.388 2828.063)" fill="none" d="M0 0h158.611v136.414H0z"/></clipPath></defs><g data-name="グループ 398"><g data-name="グループ 364"><g data-name="グループ 343"><g data-name="グループ 342" clip-path="url(#a)" fill="none" stroke="#231815" stroke-linejoin="round" stroke-width="1.187" transform="translate(-166.001 -2799.522)"><path data-name="パス 3553" d="M239.816 2829.534l1.537-3.12a4.888 4.888 0 016.772-2.3l4.256 2.095 15.174 7.474 6.1 3c1.985.978 3.7 3.937 2.723 5.922l-1.956 3.972"/><path data-name="パス 3554" d="M252.381 2826.206l2.445-4.963a20.167 20.167 0 013.718-4.688c2.251-2.064 13.193-10.906 15.9-12.609a26.557 26.557 0 0113.693-3.83c2.333-.012 11.736.141 11.736.141l-.04 16.9s-11.6-.072-13.01-.064a6.034 6.034 0 00-3.806 1.649c-1.408 1.068-12.592 10.539-13.368 11.038s-2.1 3.9-2.1 3.9"/><path data-name="パス 3555" d="M192.688 2940.248l-12.5 25.384 42.261 20.816 4.61-9.36 28.989-58.854 29.755-60.413c1.257-2.553.534-5.377-2.729-6.984l-8.651-4.259-34.6-17.044s-12.763-6.288-15.174-7.474-5.731-.886-7.129 1.952l-12.642 25.668-38.278 77.714z"/><path data-name="パス 3556" d="M227.056 2977.088l-26.8-13.2 7.892-16.026 21.1-42.828s8.311-16.877 11.247-22.832a13.948 13.948 0 00-6.545-18.2l-29.071-14.318"/></g></g><path data-name="線 36" fill="none" stroke="#231815" stroke-linejoin="round" stroke-width="1.187" d="M63.239 105.511l26.803 13.201"/><path data-name="線 37" fill="none" stroke="#231815" stroke-linejoin="round" stroke-width="1.187" d="M26.687 140.726l15.458 7.613"/><g data-name="グループ 345"><g data-name="グループ 344" clip-path="url(#b)" transform="translate(-166.001 -2799.522)"><path data-name="長方形 112" fill="none" stroke="#231815" stroke-linejoin="round" stroke-width="1.317" d="M407.737 2913.701h178.81v38.467h-178.81z"/></g></g><path data-name="線 38" fill="none" stroke="#231815" stroke-linejoin="round" stroke-width="1.317" d="M393.408 114.179v36.096"/><g data-name="グループ 347"><g data-name="グループ 346" clip-path="url(#b)" fill="none" stroke="#231815" stroke-linejoin="round" stroke-width="1.317" transform="translate(-166.001 -2799.522)"><path data-name="線 39" d="M407.736 2920.288h95.993"/><path data-name="線 40" d="M407.736 2928.982h104.688"/></g></g><path data-name="線 41" fill="none" stroke="#231815" stroke-linejoin="round" stroke-width="1.317" d="M285.735 92.311h1.448"/><path data-name="線 42" fill="none" stroke="#231815" stroke-linejoin="round" stroke-width="1.317" stroke-dasharray="2.879 2.512" d="M289.697 92.311H417.84"/><g data-name="グループ 349"><g data-name="グループ 348" clip-path="url(#b)" fill="none" stroke="#231815" stroke-linejoin="round" stroke-width="1.317" transform="translate(-166.001 -2799.522)"><path data-name="線 43" d="M585.098 2891.833h1.448"/><path data-name="線 44" d="M407.737 2872.072h1.448"/></g></g><path data-name="線 45" fill="none" stroke="#231815" stroke-linejoin="round" stroke-width="1.317" stroke-dasharray="2.89 2.523" d="M245.707 72.55h139.458"/><path data-name="線 46" fill="none" stroke="#231815" stroke-linejoin="round" stroke-width="1.317" d="M386.426 72.55h1.448"/><g data-name="グループ 351"><g data-name="グループ 350" clip-path="url(#b)" fill="none" stroke="#231815" stroke-linejoin="round" stroke-width="1.317" transform="translate(-166.001 -2799.522)"><path data-name="線 47" d="M568.368 2920.288h18.18"/><path data-name="線 48" d="M578.38 2925.294h8.168"/><path data-name="線 49" d="M407.736 2937.677h88.879"/><path data-name="線 50" d="M407.736 2942.946h101.526"/><path data-name="線 51" d="M565.996 2942.946h20.551"/><path data-name="線 52" d="M564.152 2929.509h22.395"/><path data-name="線 53" d="M577.326 2934.779h9.222"/><path data-name="線 54" d="M571.793 2938.731h14.755"/><path data-name="パス 3557" d="M559.409 2913.7l27.138-21.868-32.671-19.76 26.084-37.672H439.09l-31.353 37.677 44 19.76L413.8 2913.7"/></g></g><g data-name="グループ 353"><g data-name="グループ 352" clip-path="url(#c)" transform="translate(-166.001 -2799.522)"><path data-name="パス 3558" d="M694.737 2930.784l-.263 15.809L705.8 2956.6l16.072-.263 3.952 8.431 8.958-2.108 3.952-.527 3.952-8.958 11.066-12.91 2.179-9.363 8.623-7.236 9.485-13.7v-6.85l7.114-2.9 3.689-7.9.263-11.593 8.958-6.323v-21.6l8.168-3.688.263-7.114-8.431-6.85-37.94-7.377-.263 8.431-8.695 7.377-1.317 10.275-6.06 7.9-6.323 15.281L717.4 2896.8l-2.371 13.437-7.377 3.952-.79 8.695-4.742 7.114z" fill="none" stroke="#231815" stroke-linejoin="round" stroke-width="1.317"/></g></g><path data-name="線 55" fill="none" stroke="#231815" stroke-linejoin="round" stroke-width="1.317" d="M544.807 139.693l.44-.839"/><path data-name="パス 3559" d="M547.072 135.378l3.267-6.224 11.86-12.646 4.216-10.539 7.641-11.066 5.006-14.228 5.006-10.276 11.951-9.517" fill="none" stroke="#231815" stroke-linejoin="round" stroke-width="1.317" stroke-dasharray="1.882 3.923"/><path data-name="パス 3560" d="M597.551 59.661l.742-.59.023-.948" fill="none" stroke="#231815" stroke-linejoin="round" stroke-width="1.317"/><path data-name="線 56" fill="none" stroke="#231815" stroke-linejoin="round" stroke-width="1.317" stroke-dasharray="1.739 3.623" d="M598.404 54.5l.348-14.274"/><path data-name="線 57" fill="none" stroke="#231815" stroke-linejoin="round" stroke-width="1.317" d="M554.029 148.124l.757-.571"/><path data-name="パス 3561" d="M557.879 145.216l8.005-6.049 6.85-12.91 6.06-15.809 10.278-15.281 7.641-13.964 1.317-5.27 10.012-9.749 2.371-17.126 2.66-5.322" fill="none" stroke="#231815" stroke-linejoin="round" stroke-width="1.317" stroke-dasharray="1.861 3.876"/><path data-name="線 58" fill="none" stroke="#231815" stroke-linejoin="round" stroke-width="1.317" d="M613.94 42.002l.426-.847"/><path data-name="線 59" fill="none" stroke="#231815" stroke-linejoin="round" stroke-width="1.317" d="M601.191 43.526l7.641 1.844"/><path data-name="線 60" fill="none" stroke="#231815" stroke-linejoin="round" stroke-width="1.317" d="M600.928 49.322l5.006 2.635"/><path data-name="線 61" fill="none" stroke="#231815" stroke-linejoin="round" stroke-width="1.317" d="M601.718 56.436l4.743 1.317"/><path data-name="線 62" fill="none" stroke="#231815" stroke-linejoin="round" stroke-width="1.317" d="M597.766 62.759l3.162 1.844"/><path data-name="線 63" fill="none" stroke="#231815" stroke-linejoin="round" stroke-width="1.317" d="M590.389 69.083l5.269 1.844"/><path data-name="線 64" fill="none" stroke="#231815" stroke-linejoin="round" stroke-width="1.317" d="M585.646 74.879l6.587 2.108"/><path data-name="線 65" fill="none" stroke="#231815" stroke-linejoin="round" stroke-width="1.317" d="M583.011 81.202l5.796 2.635"/><path data-name="線 66" fill="none" stroke="#231815" stroke-linejoin="round" stroke-width="1.317" d="M580.113 88.316l5.006 2.108"/><path data-name="線 67" fill="none" stroke="#231815" stroke-linejoin="round" stroke-width="1.317" d="M576.688 94.64l6.323 3.425"/><path data-name="線 68" fill="none" stroke="#231815" stroke-linejoin="round" stroke-width="1.317" d="M571.945 102.543l4.479 2.371"/><path data-name="線 69" fill="none" stroke="#231815" stroke-linejoin="round" stroke-width="1.317" d="M568.784 109.921l3.162 1.581"/><path data-name="線 70" fill="none" stroke="#231815" stroke-linejoin="round" stroke-width="1.317" d="M565.622 114.663l5.006 4.743"/><path data-name="線 71" fill="none" stroke="#231815" stroke-linejoin="round" stroke-width="1.317" d="M560.879 121.513l7.377 5.533"/><path data-name="線 72" fill="none" stroke="#231815" stroke-linejoin="round" stroke-width="1.317" d="M556.927 127.046l7.904 5.006"/><path data-name="線 73" fill="none" stroke="#231815" stroke-linejoin="round" stroke-width="1.317" d="M552.185 133.633l7.641 3.952"/><path data-name="線 74" fill="none" stroke="#231815" stroke-linejoin="round" stroke-width="1.317" d="M548.76 140.22l4.743 4.479"/><g data-name="グループ 355"><g data-name="グループ 354" clip-path="url(#c)" transform="translate(-166.001 -2799.522)"><path data-name="パス 3562" d="M694.473 2946.593l12.91-8.431 3.162-8.431" fill="none" stroke="#231815" stroke-linejoin="round" stroke-width="1.317"/></g></g><path data-name="パス 3563" d="M531.634 136.795l7.114-3.162 2.108-10.275" fill="none" stroke="#231815" stroke-linejoin="round" stroke-width="1.317"/><path data-name="パス 3564" d="M549.023 110.711l-3.689 14.228 9.749-15.545" fill="none" stroke="#231815" stroke-linejoin="round" stroke-width="1.317"/><path data-name="パス 3565" d="M556.399 96.484l-2.635 7.9 7.114-2.108V88.839l6.587-11.329" fill="none" stroke="#231815" stroke-linejoin="round" stroke-width="1.317"/><path data-name="パス 3566" d="M565.359 92.795l5.8-7.377 3.425-8.168 2.108-13.174 3.162-9.749" fill="none" stroke="#231815" stroke-linejoin="round" stroke-width="1.317"/><path data-name="線 75" fill="none" stroke="#231815" stroke-linejoin="round" stroke-width="1.317" d="M567.73 84.364l6.85-7.114"/><path data-name="パス 3567" d="M582.484 61.969l7.9-11.856-.527-13.437" fill="none" stroke="#231815" stroke-linejoin="round" stroke-width="1.317"/><path data-name="線 76" fill="none" stroke="#231815" stroke-linejoin="round" stroke-width="1.317" d="M585.383 52.483l4.479-15.808"/><path data-name="パス 3568" d="M539.799 157.078v-8.695l15.281 3.952" fill="none" stroke="#231815" stroke-linejoin="round" stroke-width="1.317"/><path data-name="パス 3569" d="M555.873 156.819l14.755-7.641 7.9-12.12" fill="none" stroke="#231815" stroke-linejoin="round" stroke-width="1.317"/><path data-name="パス 3570" d="M568.784 163.142l6.587-13.7 8.168-11.856 6.4-6.2" fill="none" stroke="#231815" stroke-linejoin="round" stroke-width="1.317"/><path data-name="パス 3571" d="M589.335 109.657l-10.579 17-4.175 6.711 15.353-1.986" fill="none" stroke="#231815" stroke-linejoin="round" stroke-width="1.317"/><path data-name="パス 3572" d="M578.756 126.659l9-3.037 20.287-20.024" fill="none" stroke="#231815" stroke-linejoin="round" stroke-width="1.317"/><path data-name="パス 3573" d="M611.467 85.678l-4.216 10.539-11.329 13.7 7.641-23.976 5.006-11.066 6.323-10.276 7.114-8.431-1.844-7.641 5.8-5.006" fill="none" stroke="#231815" stroke-linejoin="round" stroke-width="1.317"/><path data-name="線 77" fill="none" stroke="#231815" stroke-linejoin="round" stroke-width="1.317" d="M622.269 64.603l5.796-11.329"/><path data-name="パス 3574" d="M614.892 64.603l1.317 8.431 2.9 8.168" fill="none" stroke="#231815" stroke-linejoin="round" stroke-width="1.317"/><path data-name="パス 3575" d="M604.88 90.687l1.581-7.377 9.749-10.276" fill="none" stroke="#231815" stroke-linejoin="round" stroke-width="1.317"/><g data-name="グループ 357"><g data-name="グループ 356" clip-path="url(#d)" transform="translate(-166.001 -2799.522)"><path data-name="パス 3576" d="M1034.825 2922.188h-25.03l-25.721-13.364-28.027-14.565h28.719z" fill="none" stroke="#231815" stroke-linejoin="round" stroke-width="1.317"/></g></g><path data-name="パス 3577" d="M873.181 67.478l-54.417 27.26-25.293-25.82 59.809-27.665z" fill="none" stroke="#231815" stroke-linejoin="round" stroke-width="1.317"/><path data-name="パス 3578" d="M873.181 67.478l42.8 20.937 27.138-26.875-51.536-20.437z" fill="none" stroke="#231815" stroke-linejoin="round" stroke-width="1.317"/><g data-name="グループ 359"><g data-name="グループ 358" clip-path="url(#d)" fill="none" stroke="#231815" stroke-linejoin="round" stroke-width="1.317" transform="translate(-166.001 -2799.522)"><path data-name="パス 3579" d="M1034.825 2922.188h21.868l56.647-40.838-31.353 6.587z"/><path data-name="パス 3580" d="M984.074 2908.824v19.95l50.751 35.042v-41.629"/><path data-name="パス 3581" d="M1081.365 2904.4v17.91l-46.54 41.5v-41.629"/></g></g><path data-name="パス 3582" d="M811.515 89.396l-5.416 12.282 6.511 12.339 13.93 6.243.611 8.075 8.391 1.96 3.571 1.176 6.4-5.307 13.909-5.531 5.09-6.393 9.959-2.156 13.014-6.882 2.418-5.39 7.217.611 6.035-4.74 4.4-9.1 10.128-1.368L925.6 67.86l8.558.4 2.881-5.657-4.9-9.085-30.928-21.91-3.3 6.838-10.372 2.428-4.846 7.852-8.159 3.92-10.937 9.753-20.92 9.26-6.638 9.734-7.765.129-3.6 6.557-6.49 3.68z" fill="#fff"/><path data-name="パス 3583" d="M811.515 89.396l-5.416 12.282 6.511 12.339 13.93 6.243.611 8.075 8.391 1.96 3.571 1.176 6.4-5.307 13.909-5.531 5.09-6.393 9.959-2.156 13.014-6.882 2.418-5.39 7.217.611 6.035-4.74 4.4-9.1 10.128-1.368L925.6 67.86l8.558.4 2.881-5.657-4.9-9.085-30.928-21.91-3.3 6.838-10.372 2.428-4.846 7.852-8.159 3.92-10.937 9.753-20.92 9.26-6.638 9.734-7.765.129-3.6 6.557-6.49 3.68z" fill="none" stroke="#231815" stroke-linejoin="round" stroke-width="1.317"/><path data-name="線 78" fill="none" stroke="#231815" stroke-linejoin="round" stroke-width="1.317" d="M822.666 102.512l.715-.519"/><path data-name="パス 3584" d="M826.383 99.82l4.593-3.326 14.571-5.143 7.272-6.623 10.495-5.676 9.352-9.329 8.024-6.207 13.888-2.749" fill="none" stroke="#231815" stroke-linejoin="round" stroke-width="1.317" stroke-dasharray="1.779 3.705"/><path data-name="パス 3585" d="M896.399 60.406l.866-.171.38-.8" fill="none" stroke="#231815" stroke-linejoin="round" stroke-width="1.317"/><path data-name="線 79" fill="none" stroke="#231815" stroke-linejoin="round" stroke-width="1.317" stroke-dasharray="1.545 3.219" d="M899.029 56.534l5.461-11.443"/><path data-name="線 80" fill="none" stroke="#231815" stroke-linejoin="round" stroke-width="1.317" d="M905.184 43.639l.381-.797"/><path data-name="線 81" fill="none" stroke="#231815" stroke-linejoin="round" stroke-width="1.317" d="M827.839 112.793l.87-.143"/><path data-name="パス 3586" d="M832.265 112.061l8.813-1.458 10.3-7.312 10.686-9.972 14.274-7.913 11.614-8.005 3.031-3.68 12.289-3.712 8.309-12.874 4.245-3.185" fill="none" stroke="#231815" stroke-linejoin="round" stroke-width="1.317" stroke-dasharray="1.728 3.602"/><path data-name="線 82" fill="none" stroke="#231815" stroke-linejoin="round" stroke-width="1.317" d="M917.268 52.868l.706-.529"/><path data-name="線 83" fill="none" stroke="#231815" stroke-linejoin="round" stroke-width="1.317" d="M905.454 48.791l6.083 4.684"/><path data-name="線 84" fill="none" stroke="#231815" stroke-linejoin="round" stroke-width="1.317" d="M903.113 53.409l3.461 4.222"/><path data-name="線 85" fill="none" stroke="#231815" stroke-linejoin="round" stroke-width="1.317" d="M901.233 59.518l3.701 3.031"/><path data-name="線 86" fill="none" stroke="#231815" stroke-linejoin="round" stroke-width="1.317" d="M895.471 63.002l2.118 2.797"/><path data-name="線 87" fill="none" stroke="#231815" stroke-linejoin="round" stroke-width="1.317" d="M886.718 65.061l3.973 3.659"/><path data-name="線 88" fill="none" stroke="#231815" stroke-linejoin="round" stroke-width="1.317" d="M880.491 67.776l5.033 4.405"/><path data-name="線 89" fill="none" stroke="#231815" stroke-linejoin="round" stroke-width="1.317" d="M875.947 71.771l4.15 4.492"/><path data-name="線 90" fill="none" stroke="#231815" stroke-linejoin="round" stroke-width="1.317" d="M870.91 76.277l3.642 3.735"/><path data-name="線 91" fill="none" stroke="#231815" stroke-linejoin="round" stroke-width="1.317" d="M865.707 79.921l4.329 5.312"/><path data-name="線 92" fill="none" stroke="#231815" stroke-linejoin="round" stroke-width="1.317" d="M858.826 84.269l3.086 3.71"/><path data-name="線 93" fill="none" stroke="#231815" stroke-linejoin="round" stroke-width="1.317" d="M853.53 88.827l2.211 2.538"/><path data-name="線 94" fill="none" stroke="#231815" stroke-linejoin="round" stroke-width="1.317" d="M849.155 91.288l2.734 5.771"/><path data-name="線 95" fill="none" stroke="#231815" stroke-linejoin="round" stroke-width="1.317" d="M842.701 94.761l4.525 7.335"/><path data-name="線 96" fill="none" stroke="#231815" stroke-linejoin="round" stroke-width="1.317" d="M837.4 97.508l5.164 7.12"/><path data-name="線 97" fill="none" stroke="#231815" stroke-linejoin="round" stroke-width="1.317" d="M831.075 100.752l5.293 6.176"/><path data-name="線 98" fill="none" stroke="#231815" stroke-linejoin="round" stroke-width="1.317" d="M825.912 104.518l2.611 5.402"/><path data-name="パス 3587" d="M806.099 101.678l13.949-1.376 5.541-5.331" fill="none" stroke="#231815" stroke-linejoin="round" stroke-width="1.317"/><path data-name="パス 3588" d="M812.209 94.918l7.215.4 5.248-7.232" fill="none" stroke="#231815" stroke-linejoin="round" stroke-width="1.317"/><path data-name="パス 3589" d="M836.037 81.399l-8 9.75 13.73-8.324" fill="none" stroke="#231815" stroke-linejoin="round" stroke-width="1.317"/><path data-name="パス 3590" d="M847.327 73.084l-5 5.225 6.932 1.231 4.622-10.735 9.717-6.4" fill="none" stroke="#231815" stroke-linejoin="round" stroke-width="1.317"/><path data-name="パス 3591" d="M856.437 73.808l7.638-3.528 5.862-5.154 6.5-9.776 6.256-6.616" fill="none" stroke="#231815" stroke-linejoin="round" stroke-width="1.317"/><path data-name="線 99" fill="none" stroke="#231815" stroke-linejoin="round" stroke-width="1.317" d="M861.438 68.026l8.499-2.9"/><path data-name="パス 3592" d="M882.292 56.039l11.222-6.363 4.395-11.224" fill="none" stroke="#231815" stroke-linejoin="round" stroke-width="1.317"/><path data-name="線 100" fill="none" stroke="#231815" stroke-linejoin="round" stroke-width="1.317" d="M888.239 49.528l9.67-11.074"/><path data-name="パス 3593" d="M812.612 114.022l2.854-6.749 11.882 9.213" fill="none" stroke="#231815" stroke-linejoin="round" stroke-width="1.317"/><path data-name="パス 3594" d="M826.545 120.265l15.258.015 10.916-6.218" fill="none" stroke="#231815" stroke-linejoin="round" stroke-width="1.317"/><path data-name="パス 3595" d="M835.547 130.301l10.252-7.913 11.066-5.9 7.647-2.245" fill="none" stroke="#231815" stroke-linejoin="round" stroke-width="1.317"/><path data-name="パス 3596" d="M871.509 96.983l-15.05 9.057-5.9 3.556 13.956 4.647" fill="none" stroke="#231815" stroke-linejoin="round" stroke-width="1.317"/><path data-name="パス 3597" d="M856.46 106.041l8.84 1.265 24.6-7.489" fill="none" stroke="#231815" stroke-linejoin="round" stroke-width="1.317"/><path data-name="パス 3598" d="M899.264 87.026l-7.434 6.642-14.687 6.2 15.119-15.87 8.34-6.787 9.264-5.649 9.331-3.859 1.18-6.951 6.964-1.661" fill="none" stroke="#231815" stroke-linejoin="round" stroke-width="1.317"/><path data-name="線 101" fill="none" stroke="#231815" stroke-linejoin="round" stroke-width="1.317" d="M916.345 74.607l9.253-6.739"/><path data-name="パス 3599" d="M909.866 71.563l-1.9 7.312-.415 7.715" fill="none" stroke="#231815" stroke-linejoin="round" stroke-width="1.317"/><path data-name="パス 3600" d="M891.725 88.311l4.009-5.225 12.231-4.209" fill="none" stroke="#231815" stroke-linejoin="round" stroke-width="1.317"/><path data-name="パス 3601" d="M808.105 52.878l-3.849 9 3 5.238 7.824-.854 8.5 16.3 9.609.881 4.766 8.644 6.079 4.393 6.932-.841 2.692 5.2 13.237 6.4 10.1 1.886 5.539 6.245 14.613 5.289 6.983 5.255 3.682-1.229 8.8-2.108.2-8.254 14.744-6.758 6.5-13.051-6.65-12.609-7.169 2.778-7.234-3.512-4.239-6.593-8.282.278-7.565-9.609-22.148-8.1-11.625-9.07-8.351-3.328-5.267-7.464-10.25-1.583-3.626-6.494z" fill="#fff"/><g data-name="グループ 361"><g data-name="グループ 360" clip-path="url(#d)" transform="translate(-166.001 -2799.522)"><path data-name="パス 3602" d="M1097.414 2881.417l6.65 12.609-6.5 13.051-14.742 6.76-.2 8.254-8.8 2.106-3.684 1.231-6.981-5.257-14.613-5.289-5.537-6.247-10.107-1.885-13.235-6.4-2.692-5.2-6.934.841-6.079-4.393-4.766-8.644-9.61-.881-8.5-16.3-7.824.854-3.006-5.236 3.849-9 27.553-23.681 3.625 6.494 10.25 1.583 5.267 7.464 8.351 3.328 11.626 9.07 22.146 8.1 7.565 9.607 8.279-.278 4.241 6.593 7.234 3.511z" fill="none" stroke="#231815" stroke-linejoin="round" stroke-width="1.317"/></g></g><path data-name="パス 3603" d="M916.257 93.607l-5.52-3.5-15.652-4.637-7.929-6.378-11.072-5.2-10-8.836-8.372-5.71-13.781-1.846" fill="none" stroke="#231815" stroke-linejoin="round" stroke-width="1.317" stroke-dasharray="1.712 3.566"/><path data-name="パス 3604" d="M842.166 57.261l-.845-.114-.411-.746" fill="none" stroke="#231815" stroke-linejoin="round" stroke-width="1.317"/><path data-name="線 102" fill="none" stroke="#231815" stroke-linejoin="round" stroke-width="1.317" stroke-dasharray="1.513 3.153" d="M839.387 53.637l-5.99-10.887"/><path data-name="線 103" fill="none" stroke="#231815" stroke-linejoin="round" stroke-width="1.317" d="M915.011 106.702l-.845-.112"/><path data-name="パス 3605" d="M910.571 106.116l-9.692-1.277-11.136-7.069-11.53-9.618-14.82-7.27-11.941-7.356-3.189-3.467-12.08-2.966-8.731-12.061-4.106-2.757" fill="none" stroke="#231815" stroke-linejoin="round" stroke-width="1.317" stroke-dasharray="1.741 3.625"/><path data-name="線 104" fill="none" stroke="#231815" stroke-linejoin="round" stroke-width="1.317" d="M821.841 51.265l-.708-.474"/><path data-name="線 105" fill="none" stroke="#231815" stroke-linejoin="round" stroke-width="1.317" d="M832.72 46.456l-5.463 5.006"/><path data-name="線 106" fill="none" stroke="#231815" stroke-linejoin="round" stroke-width="1.317" d="M835.258 50.825l-3.027 4.367"/><path data-name="線 107" fill="none" stroke="#231815" stroke-linejoin="round" stroke-width="1.317" d="M837.456 56.697l-3.341 3.202"/><path data-name="線 108" fill="none" stroke="#231815" stroke-linejoin="round" stroke-width="1.317" d="M843.228 59.76l-1.865 2.879"/><path data-name="線 109" fill="none" stroke="#231815" stroke-linejoin="round" stroke-width="1.317" d="M851.879 61.256l-3.647 3.855"/><path data-name="線 110" fill="none" stroke="#231815" stroke-linejoin="round" stroke-width="1.317" d="M858.177 63.575l-4.679 4.662"/><path data-name="線 111" fill="none" stroke="#231815" stroke-linejoin="round" stroke-width="1.317" d="M862.937 67.291l-3.836 4.698"/><path data-name="線 112" fill="none" stroke="#231815" stroke-linejoin="round" stroke-width="1.317" d="M868.249 71.513l-3.41 3.918"/><path data-name="線 113" fill="none" stroke="#231815" stroke-linejoin="round" stroke-width="1.317" d="M873.71 74.888l-4.034 5.527"/><path data-name="線 114" fill="none" stroke="#231815" stroke-linejoin="round" stroke-width="1.317" d="M880.965 78.916l-2.919 3.874"/><path data-name="線 115" fill="none" stroke="#231815" stroke-linejoin="round" stroke-width="1.317" d="M886.666 83.265l-2.118 2.656"/><path data-name="線 116" fill="none" stroke="#231815" stroke-linejoin="round" stroke-width="1.317" d="M891.331 85.56l-2.481 5.946"/><path data-name="線 117" fill="none" stroke="#231815" stroke-linejoin="round" stroke-width="1.317" d="M898.254 88.811l-4.285 7.611"/><path data-name="線 118" fill="none" stroke="#231815" stroke-linejoin="round" stroke-width="1.317" d="M903.983 91.397l-5.008 7.43"/><path data-name="線 119" fill="none" stroke="#231815" stroke-linejoin="round" stroke-width="1.317" d="M910.873 94.474l-5.257 6.49"/><path data-name="線 120" fill="none" stroke="#231815" stroke-linejoin="round" stroke-width="1.317" d="M916.607 98.155l-2.491 5.626"/><path data-name="パス 3606" d="M938.063 94.503l-15.368-.9-6.283-5.282" fill="none" stroke="#231815" stroke-linejoin="round" stroke-width="1.317"/><path data-name="パス 3607" d="M930.954 87.69l-7.858.721-6.085-7.249" fill="none" stroke="#231815" stroke-linejoin="round" stroke-width="1.317"/><path data-name="パス 3608" d="M904.49 74.846l9.078 9.637-15.037-7.881" fill="none" stroke="#231815" stroke-linejoin="round" stroke-width="1.317"/><path data-name="パス 3609" d="M892.149 66.965l5.537 5.052-7.158 1.627-5.421-10.642-10.328-5.866" fill="none" stroke="#231815" stroke-linejoin="round" stroke-width="1.317"/><path data-name="パス 3610" d="M882.778 68.226l-8.006-3.117-6.237-4.827-7.112-9.375-6.623-6.167" fill="none" stroke="#231815" stroke-linejoin="round" stroke-width="1.317"/><path data-name="線 121" fill="none" stroke="#231815" stroke-linejoin="round" stroke-width="1.317" d="M877.315 62.675l-8.779-2.394"/><path data-name="パス 3611" d="M855.658 52.001l-11.395-5.533-4.979-10.775" fill="none" stroke="#231815" stroke-linejoin="round" stroke-width="1.317"/><path data-name="線 122" fill="none" stroke="#231815" stroke-linejoin="round" stroke-width="1.317" d="M849.398 45.939l-10.113-10.246"/><path data-name="パス 3612" d="M931.559 107.555l-3.49-6.905-12.324 9.816" fill="none" stroke="#231815" stroke-linejoin="round" stroke-width="1.317"/><path data-name="パス 3613" d="M916.816 114.315l-16.135.333-11.682-6.01" fill="none" stroke="#231815" stroke-linejoin="round" stroke-width="1.317"/><path data-name="パス 3614" d="M907.823 124.678l-11.182-7.824-11.738-5.683-7.9-2.055" fill="none" stroke="#231815" stroke-linejoin="round" stroke-width="1.317"/><path data-name="パス 3615" d="M868.926 92.178l15.764 8.522 6.277 3.391-13.962 5.023" fill="none" stroke="#231815" stroke-linejoin="round" stroke-width="1.317"/><path data-name="パス 3616" d="M884.691 100.7l-8.9 1.535-24.817-6.6" fill="none" stroke="#231815" stroke-linejoin="round" stroke-width="1.317"/><path data-name="パス 3617" d="M841.122 83.504l7.594 6.182 14.78 5.556-15.815-15.016-8.475-6.241-9.181-5.017-9.013-3.225-1.562-6.646-6.561-1.174" fill="none" stroke="#231815" stroke-linejoin="round" stroke-width="1.317"/><path data-name="線 123" fill="none" stroke="#231815" stroke-linejoin="round" stroke-width="1.317" d="M824.132 72.26l-9.047-5.997"/><path data-name="パス 3618" d="M830.025 68.97l2.274 7.006.9 7.464" fill="none" stroke="#231815" stroke-linejoin="round" stroke-width="1.317"/><path data-name="パス 3619" d="M848.475 84.435l-4.214-4.941-11.96-3.52" fill="none" stroke="#231815" stroke-linejoin="round" stroke-width="1.317"/><path data-name="パス 3620" d="M903.515 102.115l-27.4 3.337-4.742-41.8 26.874-2.987z" fill="#fff"/><path data-name="パス 3621" d="M903.515 102.115l-27.4 3.337-4.742-41.8 26.874-2.987z" fill="none" stroke="#231815" stroke-linejoin="round" stroke-width="1.317"/><path data-name="パス 3622" d="M905.799 101.237l-2.283.879-5.27-41.454 2.458.175z" fill="#fff"/><path data-name="パス 3623" d="M905.799 101.237l-2.283.879-5.27-41.454 2.458.175z" fill="none" stroke="#231815" stroke-linejoin="round" stroke-width="1.317"/><g data-name="グループ 363"><g data-name="グループ 362" clip-path="url(#d)" transform="translate(-166.001 -2799.522)"><path data-name="パス 3624" d="M1046.592 2864.517a16.909 16.909 0 00-4.742.678l-23.393 3.347 1.436 36.455 26.7-2.987c9.827 0 17.8-8.393 17.8-18.747s-7.969-18.746-17.8-18.746" fill="#fff"/><path data-name="パス 3625" d="M1046.592 2864.517a16.909 16.909 0 00-4.742.678l-23.393 3.347 1.436 36.455 26.7-2.987c9.827 0 17.8-8.393 17.8-18.747s-7.974-18.746-17.801-18.746z" fill="none" stroke="#231815" stroke-linejoin="round" stroke-width="1.317"/><path data-name="パス 3626" d="M1037.689 2886.769a17.8 17.8 0 11-17.8-18.228 18.016 18.016 0 0117.8 18.228z" fill="none" stroke="#231815" stroke-linejoin="round" stroke-width="1.317"/><path data-name="パス 3627" d="M1023.847 2886.94c0 4.722-3.35 8.549-7.481 8.549s-7.48-3.827-7.48-8.549 3.349-8.549 7.48-8.549 7.481 3.828 7.481 8.549z" fill="none" stroke="#231815" stroke-linejoin="round" stroke-width="1.317"/><path data-name="パス 3628" d="M1034.818 2886.769c0 10.067-7.325 18.228-16.359 18.228s-16.361-8.161-16.361-18.228 7.325-18.228 16.361-18.228 16.359 8.161 16.359 18.228" fill="#fff"/><path data-name="パス 3629" d="M1034.818 2886.769c0 10.067-7.325 18.228-16.359 18.228s-16.361-8.161-16.361-18.228 7.325-18.228 16.361-18.228 16.359 8.159 16.359 18.228z" fill="none" stroke="#231815" stroke-linejoin="round" stroke-width="1.317"/><path data-name="パス 3630" d="M1015.767 2880.033a5.4 5.4 0 00-1.246.145l-13.861 1.61v14.053l15.107-1.756c3.395 0 6.148-3.147 6.148-7.027s-2.753-7.025-6.148-7.025" fill="#fff"/><path data-name="パス 3631" d="M1015.767 2880.033a5.4 5.4 0 00-1.246.145l-13.861 1.61v14.053l15.107-1.756c3.395 0 6.148-3.147 6.148-7.027s-2.753-7.025-6.148-7.025z" fill="none" stroke="#231815" stroke-linejoin="round" stroke-width="1.317"/><path data-name="パス 3632" d="M1006.809 2888.815c0 3.881-2.753 7.025-6.149 7.025s-6.146-3.144-6.146-7.025 2.753-7.025 6.146-7.025 6.149 3.145 6.149 7.025" fill="#fff"/><path data-name="パス 3633" d="M1006.809 2888.815c0 3.881-2.753 7.025-6.149 7.025s-6.146-3.144-6.146-7.025 2.753-7.025 6.146-7.025 6.149 3.145 6.149 7.025z" fill="none" stroke="#231815" stroke-linejoin="round" stroke-width="1.317"/></g></g><path data-name="長方形 123" fill="#717071" d="M459.791 78.081h47.36v8.983h-47.36z"/><path data-name="長方形 124" fill="#717071" d="M459.791 100.455h47.36v8.983h-47.36z"/><path data-name="長方形 125" fill="#717071" d="M682.775 89.482h63.491v8.983h-63.491z"/><path data-name="長方形 126" fill="#717071" d="M717.616 120.896l33.488-33.488 6.353 6.353-33.488 33.488z"/><path data-name="長方形 127" fill="#717071" d="M717.616 66.624l6.352-6.352 33.483 33.483-6.352 6.352z"/><path data-name="長方形 128" fill="#717071" d="M155.131 89.267h47.36v8.983h-47.36z"/><path data-name="長方形 129" fill="#717071" d="M174.319 70.08h8.983v47.36h-8.983z"/></g></g></svg>