<svg xmlns="http://www.w3.org/2000/svg" width="950" height="124.783"><defs><clipPath id="a"><path data-name="長方形 93" transform="translate(445.037 3131.082)" fill="none" d="M0 0h97.747v119.088H0z"/></clipPath><clipPath id="b"><path data-name="長方形 97" transform="translate(165 3142.892)" fill="none" d="M0 0h138.471v95.466H0z"/></clipPath><clipPath id="c"><path data-name="長方形 98" transform="translate(684.349 3137.009)" fill="none" d="M0 0h130.276v113.205H0z"/></clipPath><clipPath id="d"><path data-name="長方形 102" transform="translate(956.389 3131.356)" fill="none" d="M0 0h158.611v124.509H0z"/></clipPath></defs><g data-name="グループ 399"><g data-name="グループ 341"><g data-name="グループ 320"><g data-name="グループ 319" clip-path="url(#a)" transform="translate(-165 -3131.082)"><path data-name="長方形 92" fill="none" stroke="#231815" stroke-linejoin="round" stroke-width="1.317" d="M445.695 3211.044h96.431v38.467h-96.431z"/></g></g><path data-name="線 14" fill="none" stroke="#231815" stroke-linejoin="round" stroke-width="1.317" d="M349.988 79.962v36.096"/><path data-name="線 15" fill="none" stroke="#231815" stroke-linejoin="round" stroke-width="1.317" d="M280.695 86.549h38.994"/><path data-name="線 16" fill="none" stroke="#231815" stroke-linejoin="round" stroke-width="1.317" d="M280.695 95.243h47.689"/><path data-name="線 17" fill="none" stroke="#231815" stroke-linejoin="round" stroke-width="1.317" d="M324.695 58.094h1.448"/><path data-name="線 18" fill="none" stroke="#231815" stroke-linejoin="round" stroke-width="1.317" stroke-dasharray="2.795 2.439" d="M328.582 58.094h45.876"/><g data-name="グループ 322"><g data-name="グループ 321" clip-path="url(#a)" transform="translate(-165 -3131.082)"><path data-name="線 19" fill="none" stroke="#231815" stroke-linejoin="round" stroke-width="1.317" d="M540.677 3189.176h1.448"/></g></g><path data-name="線 20" fill="none" stroke="#231815" stroke-linejoin="round" stroke-width="1.317" d="M280.695 38.333h1.448"/><path data-name="線 21" fill="none" stroke="#231815" stroke-linejoin="round" stroke-width="1.317" stroke-dasharray="2.835 2.472" d="M284.618 38.333h57.153"/><path data-name="線 22" fill="none" stroke="#231815" stroke-linejoin="round" stroke-width="1.317" d="M343.006 38.333h1.448"/><g data-name="グループ 324"><g data-name="グループ 323" clip-path="url(#a)" fill="none" stroke="#231815" stroke-linejoin="round" stroke-width="1.317" transform="translate(-165 -3131.082)"><path data-name="線 23" d="M523.947 3217.631h18.18"/><path data-name="線 24" d="M533.959 3222.636h8.168"/></g></g><path data-name="線 25" fill="none" stroke="#231815" stroke-linejoin="round" stroke-width="1.317" d="M280.695 103.938h31.88"/><path data-name="線 26" fill="none" stroke="#231815" stroke-linejoin="round" stroke-width="1.317" d="M280.695 109.207h44.527"/><g data-name="グループ 326"><g data-name="グループ 325" clip-path="url(#a)" fill="none" stroke="#231815" stroke-linejoin="round" stroke-width="1.317" transform="translate(-165 -3131.082)"><path data-name="線 27" d="M521.575 3240.289h20.551"/><path data-name="線 28" d="M519.731 3226.852h22.395"/><path data-name="線 29" d="M532.905 3232.122h9.222"/><path data-name="線 30" d="M527.372 3236.074h14.755"/><path data-name="パス 3513" d="M514.988 3211.044l27.138-21.868-32.671-19.76 26.084-37.677h-58.491l-31.353 37.677 44 19.76-37.94 21.868"/><path data-name="パス 3514" d="M484.952 3211.044l24.767-21.868-32.407-19.76 28.192-37.677"/></g></g><g data-name="グループ 328"><g data-name="グループ 327" clip-path="url(#b)" fill="none" stroke="#231815" stroke-linejoin="round" stroke-width="1.187" transform="translate(-165 -3131.082)"><path data-name="パス 3515" d="M171.92 3151.93c1.406-3.276 4.526-8.872 8.022-8.419a257.22 257.22 0 0134.832 7.386c15.022 4.471 24.958 8.473 31.928 12.029s13.191 8.06 16.252 9.89 19.589 16.913 26.2 25.875 13.5 22.06 13.7 24.29a8.476 8.476 0 01-1.208 4.975c-.645 1.267-4.205 8.768-9.607 7.875s-21.812-4.205-27.218-4.568-10.2 2.251-12.759 4.14a10.551 10.551 0 01-9.032 2.046c-3.279-.874-10.777-4.964-10.777-4.964s-47.391-27.637-49.819-29.142-3.685-3.212-5.247-6.937-9.675-23.3-10.61-25.643-1.453-3.935-.375-6.047l5.172-10.139z"/><path data-name="パス 3516" d="M253.511 3191.849c-3.156-3.206-46.165-27.438-82.143-37.273"/></g></g><path data-name="パス 3517" d="M98.165 41.841l-9.654 18.926-20.841 40.851" fill="none" stroke="#231815" stroke-linejoin="round" stroke-width="1.187"/><g data-name="グループ 330"><g data-name="グループ 329" clip-path="url(#c)" transform="translate(-165 -3131.082)"><path data-name="パス 3518" d="M685.008 3184.392l2.711-1.263 28.371-7.706 23.2 13.433 5.752-14.873 20.431 12.733 32.749-3.284 1.206 11.123 10.246 6.052 4.287 14.251-32.161 1.772-27.844-10.93-10.547 9.677-3.177 1.511-1.69-1.284-5.63-9.338-2.416.7-7.613.312-30.7 11.158-6.205-17.806-.74-3.592z" fill="none" stroke="#231815" stroke-linejoin="round" stroke-width="1.317"/></g></g><path data-name="パス 3519" d="M591.641 64.786l-11.03-3.434-16.12-2.886-13.4-14.126" fill="none" stroke="#231815" stroke-linejoin="round" stroke-width="1.317"/><path data-name="パス 3520" d="M634.432 63.473l-23.675-.609-8.958.038-9.352-7.729-11.835 6.18" fill="none" stroke="#231815" stroke-linejoin="round" stroke-width="1.317"/><path data-name="線 31" fill="none" stroke="#231815" stroke-linejoin="round" stroke-width="1.317" d="M625.091 58.73l-14.333 4.133"/><g data-name="グループ 332"><g data-name="グループ 331" clip-path="url(#c)" transform="translate(-165 -3131.082)"><path data-name="パス 3521" d="M685.008 3184.392l8.128 3.6 28.112 1.808 14.9 9.131 7.995 4.47 17.406-1.4 6.743-.443 6.616 3.02 21.925-.044 8.661-2.074 4.186-1.857" fill="none" stroke="#231815" stroke-linejoin="round" stroke-width="1.317"/></g></g><path data-name="線 32" fill="none" stroke="#231815" stroke-linejoin="round" stroke-width="1.317" d="M571.144 67.851l25.401 3.071"/><path data-name="パス 3522" d="M537.953 66.983l15.252.162 11.648 3.1 11.3 4.684 2.877-.953 17.515-3.058" fill="none" stroke="#231815" stroke-linejoin="round" stroke-width="1.317"/><path data-name="パス 3523" d="M529.07 77.159l29.442-6.09 9.4 4.112" fill="none" stroke="#231815" stroke-linejoin="round" stroke-width="1.317"/><path data-name="パス 3524" d="M604.473 12.733l-10.364-4.216-12.647 30.388-20.9 11.945 10.362 12.12-22.834 14.048-6.675 28.632-.175 2.985 11.241 5.8 3.514 1.054 18.618 2.987 4.743-32.319 3.339-6.85.525-2.46 10.891-.527 1.933-.879.175-3.512-3.514-13.878 22.836-19.32 13.7-29.157-14.58-2.989z" fill="#fff"/><g data-name="グループ 334"><g data-name="グループ 333" clip-path="url(#c)" transform="translate(-165 -3131.082)"><path data-name="パス 3525" d="M706.239 3239.72l.175-2.987 6.675-28.63 22.834-14.053-10.362-12.12 20.9-11.943 12.647-30.388 10.364 4.216 10.187-6.148 14.58 2.987-13.7 29.157-22.834 19.322 3.512 13.875-.175 3.514-1.933.879-10.889.527-.527 2.458-3.339 6.85-4.742 32.321-18.618-2.987-3.514-1.054z" fill="none" stroke="#231815" stroke-linejoin="round" stroke-width="1.317"/></g></g><path data-name="パス 3526" d="M585.327 51.025l-8.256 8.079-10.187 12.824-18.8 5.092" fill="none" stroke="#231815" stroke-linejoin="round" stroke-width="1.317"/><path data-name="パス 3527" d="M604.474 12.734l-11.768 20.551-4.216 7.9-11.243 4.568-.175 13.349" fill="none" stroke="#231815" stroke-linejoin="round" stroke-width="1.317"/><path data-name="線 33" fill="none" stroke="#231815" stroke-linejoin="round" stroke-width="1.317" d="M595.867 18.706l-3.162 14.58"/><g data-name="グループ 336"><g data-name="グループ 335" clip-path="url(#c)" transform="translate(-165 -3131.082)"><path data-name="パス 3528" d="M706.239 3239.72l7.025-5.444 14.932-23.89 15.1-8.781 7.729-4.92 7.025-15.983 2.812-6.148 5.8-4.391 10.362-19.322 2.285-8.606.35-4.567" fill="none" stroke="#231815" stroke-linejoin="round" stroke-width="1.317"/></g></g><path data-name="線 34" fill="none" stroke="#231815" stroke-linejoin="round" stroke-width="1.317" d="M578.302 70.522l14.755-20.903"/><path data-name="パス 3529" d="M561.79 99.328l7.377-13.349 8.256-8.783 9.485-7.729.527-2.985 5.619-16.862" fill="none" stroke="#231815" stroke-linejoin="round" stroke-width="1.317"/><path data-name="パス 3530" d="M566.533 111.975l8.606-28.807 8.081-6.323" fill="none" stroke="#231815" stroke-linejoin="round" stroke-width="1.317"/><g data-name="グループ 338"><g data-name="グループ 337" clip-path="url(#d)" transform="translate(-165 -3131.082)"><path data-name="パス 3531" d="M1035.826 3213.579H1010.8l-25.721-13.364-28.027-14.565h28.719z" fill="none" stroke="#231815" stroke-linejoin="round" stroke-width="1.317"/></g></g><path data-name="パス 3532" d="M875.183 27.308l-54.417 27.26-25.293-25.821 59.809-27.665z" fill="none" stroke="#231815" stroke-linejoin="round" stroke-width="1.317"/><path data-name="パス 3533" d="M875.183 27.308l42.8 20.937 27.138-26.874L893.585.934z" fill="none" stroke="#231815" stroke-linejoin="round" stroke-width="1.317"/><g data-name="グループ 340"><g data-name="グループ 339" clip-path="url(#d)" fill="none" stroke="#231815" stroke-linejoin="round" stroke-width="1.317" transform="translate(-165 -3131.082)"><path data-name="パス 3534" d="M1035.826 3213.579h21.868l56.647-40.838-31.353 6.587z"/><path data-name="パス 3535" d="M985.075 3200.214v19.952l50.751 35.042v-41.628"/><path data-name="パス 3536" d="M1082.366 3195.793v17.91l-46.54 41.5v-41.629"/></g></g><path data-name="パス 3537" d="M845.62 57.291l48.831 8.079 15.631-1.931 4.041-5.095.879-2.108 6.673-16.687 1.054-3.511-1.229-1.231-7.552-3.689-15.808-10.539-16.513-4.917-11.416 5.269-13 3.689-4.743 10.714-8.958-.527-12.472 6.323 1.054 7.9.177 6.323 3.864 3.339 6.148-1.231z" fill="#fff"/><path data-name="パス 3538" d="M845.62 57.291l48.831 8.079 15.631-1.931 4.041-5.095.879-2.108 6.673-16.687 1.054-3.511-1.229-1.231-7.552-3.689-15.808-10.539-16.513-4.917-11.416 5.269-13 3.689-4.743 10.714-8.958-.527-12.472 6.323 1.054 7.9.177 6.323 3.864 3.339 6.148-1.231z" fill="none" stroke="#231815" stroke-linejoin="round" stroke-width="1.317"/><path data-name="パス 3539" d="M831.041 41.132l6.5 4.917 9.485-.527 8.608-5.619 6.5-9.662 13.174-5.619" fill="none" stroke="#231815" stroke-linejoin="round" stroke-width="1.317"/><path data-name="線 35" fill="none" stroke="#231815" stroke-linejoin="round" stroke-width="1.317" d="M837.54 46.05l14.929-10.714"/><path data-name="パス 3540" d="M838.77 55.184l21.957-14.755 10.012-5.094 4.565-10.714" fill="none" stroke="#231815" stroke-linejoin="round" stroke-width="1.317"/><path data-name="パス 3541" d="M860.726 40.429l19.5-4.742 11.945-2.987-5.447-7.9-6.323 2.46 4.041 2.987" fill="none" stroke="#231815" stroke-linejoin="round" stroke-width="1.317"/><path data-name="パス 3542" d="M901.653 27.255l-14.93-5.622-5.094-5.971" fill="none" stroke="#231815" stroke-linejoin="round" stroke-width="1.317"/><path data-name="パス 3543" d="M892.694 26.553l5.729 3.32 9.727 5.638-.35 15.281" fill="none" stroke="#231815" stroke-linejoin="round" stroke-width="1.317"/><path data-name="パス 3544" d="M893.045 51.846l4.39-6.676.527 10.012" fill="none" stroke="#231815" stroke-linejoin="round" stroke-width="1.317"/><path data-name="パス 3545" d="M897.964 55.184l8.256-2.987 1.581-1.4 1.581-.879 5.444-8.606-2.108-7.554" fill="none" stroke="#231815" stroke-linejoin="round" stroke-width="1.317"/><path data-name="パス 3546" d="M898.422 29.873l5.337 13.543-2.985 5.621" fill="none" stroke="#231815" stroke-linejoin="round" stroke-width="1.317"/><path data-name="パス 3547" d="M868.982 81.465V70.289l-23.538-13v11.045l23.538 13.129V70.287l28.807-17.126v9.749l-26.963 19.585z" fill="#fff"/><path data-name="パス 3548" d="M868.982 81.465V70.289l-23.538-13v11.045l23.538 13.129V70.287l28.807-17.126v9.749l-26.963 19.585z" fill="none" stroke="#231815" stroke-linejoin="round" stroke-width="1.317"/><path data-name="パス 3549" d="M868.982 70.29l-23.538-13 31.486-16.158 20.859 12.031z" fill="#fff"/><path data-name="パス 3550" d="M868.982 70.29l-23.538-13 31.486-16.158 20.859 12.031z" fill="none" stroke="#231815" stroke-linejoin="round" stroke-width="1.317"/><path data-name="パス 3551" d="M894.451 65.371l3.514-10.187 8.254-2.987 3.162-2.283.7 13.526z" fill="#fff"/><path data-name="パス 3552" d="M894.451 65.371l3.514-10.187 8.254-2.987 3.162-2.283.7 13.526z" fill="none" stroke="#231815" stroke-linejoin="round" stroke-width="1.317"/><path data-name="長方形 104" fill="#717071" d="M427.875 43.863h47.36v8.983h-47.36z"/><path data-name="長方形 105" fill="#717071" d="M427.875 66.237h47.36v8.983h-47.36z"/><path data-name="長方形 106" fill="#717071" d="M684.777 55.266h63.491v8.983h-63.491z"/><path data-name="長方形 107" fill="#717071" d="M719.618 86.679l33.488-33.488 6.353 6.353-33.488 33.488z"/><path data-name="長方形 108" fill="#717071" d="M719.619 32.407l6.352-6.352 33.488 33.487-6.352 6.352z"/><path data-name="長方形 109" fill="#717071" d="M182.587 55.051h47.36v8.983h-47.36z"/><path data-name="長方形 110" fill="#717071" d="M201.775 35.862h8.983v47.36h-8.983z"/></g></g></svg>