<svg xmlns="http://www.w3.org/2000/svg" width="294.202" height="330"><g data-name="グループ 397"><g data-name="グループ 116"><path data-name="パス 42" d="M101.169 327.086h92.229l2.693-20.869.673-34.334 3.03 1.683 23.225 22.889 14.811 14.138 8.9.86 5.236-4.488 4.787-15.559.6-38.3 1.346-21.243-1.945-2.693-.3-2.244-2.842-2.094 1.047-12.118 4.489-12.561 1.5-8.677-1.5-2.992-8.079-7.031-8.228-6.582-4.188.9-3.591 4.488-3.291 1.048-2.1 2.842-3.44 6.134.3 2.692-3.142 5.985 2.095 6.881 2.692 1.945 1.646.449v3.291l3.142 4.488 3.291 3.591-.15 5.684h-2.393l-.748 1.048v4.188l-1.048 1.646-.149 30.369-1.8.748-13.913-21.692-10.173-13.165-17.943-10.178-11.37-4.039-6.732-6.134-2.543-2.543-4.189-1.5-.6-8.527 1.048-1.2 11.369-.449 7.181-1.047 6.583-5.685s2.692-20.944 2.692-24.385-.448-33.062-.448-33.062l3.141 2.992 3.591.3 2.992-1.795 3.291-4.787.6-7.331-.6-3.74-3.74-3.291.9-3.441 5.834-14.96 1.5-12.118-2.094-15.857-7.48-35.157-1.8-4.189-8.527-3.141-4.488-2.543-4.488-1.646-6.283-7.181-9.724-9.574h-3.591l-9.724 2.992-36.5 13.913-13.015 5.684-1.646 2.095-6.432 19.9-4.788 25.133 1.945 14.362 4.039 20.645.6 5.385-2.693 4.339 1.5 9.125 2.543 4.788 2.543 2.094 5.386-.748.6 42.936 1.347 9.125 3.59 6.134 4.937 3.89 9.575 1.346h10.472l.449 10.622-4.788.449-2.543.748-7.181 4.787-12.574 5.686-11.22 5.385-7.331 6.433-14.511 20.645-9.126 13.764a9.119 9.119 0 01-1.047-4.189c0-2.394-.3-22.889-.3-22.889l-.449-4.488-.748-1.2-.15-3.89-.748-2.094-2.543-.6-.449-3.59 1.945-4.189 4.787-5.086v-3.89l2.394-.748 2.842-2.094 1.8-4.638-2.544-8.378-2.094-3.889-2.543-4.339-2.095-2.992-2.842-.3-2.543-3.291-4.339-1.8-2.842 1.346-6.882 6.283-7.929 5.535-1.645 2.095.448 3.74 3.89 10.622 3.59 10.023.6 8.826-3.74 1.048-.449 2.992-.748 2.543-1.2 1.645 2.543 44.881 1.347 16.606 2.244 10.023 3.441 4.937 4.787 2.543 4.638-.6 11.519-8.827 14.81-13.015 11.071-11.22 5.685-4.339 1.047 10.472 1.945 24.385-.15 15.11z" fill="#fff"/><path data-name="パス 43" d="M44.171 232.613s4.488 47.872 5.984 62.683 10.023 12.118 10.023 12.118l3.142-2.095 15.857-14.062 14.811-14.063 5.086-4.189.9 10.024 1.646 36.2v10.472h93.65l-.6-8.527 1.645-24.086.15-23.787 2.394-.3 20.495 19.9s15.259 15.409 18.4 16.606 9.126-3.59 10.023-8.378 4.937-68.368 4.937-68.368l-8.228.748-7.331-1.346-4.039-1.2-1.346 1.347.3 5.685.15 28.125-.748 5.834-1.048 5.236-19.448-28.125s-9.574-15.559-15.409-20.2-22.889-9.874-22.889-9.874l-4.488 10.323-12.566 42.486-6.433 16.307-2.543.6-6.583-14.81-13.314-41.739-3.74-13.464s-15.26 4.638-19.449 8.527-37.7 51.912-37.7 51.912-1.5-9.874-1.5-10.472-.15-21.094-.15-21.094l.15-13.913-1.945-1.945-3.142 1.646-7.18.9-4.638-.448z" fill="#1c62af"/><path data-name="パス 44" d="M142.305 307.862l1.646-3.441 3.441-1.047 2.992.748 1.8 1.8v3.291l.3 2.094-1.5 2.244-3.142.449-3.441-.449-1.5-2.094z" fill="#fff"/><path data-name="パス 45" d="M140.813 221.542l7.63 13.165-5.685 43.384 1.8 5.834 2.094 4.787 2.543-.6 2.543-7.031 4.189-10.472-1.646-4.338-1.646-16.755-2.244-12.118-.449-3.59 6.433-9.275-4.937-4.488-4.638-2.244-2.693 1.8z" fill="#dc5434"/><path data-name="パス 46" d="M99.224 112.483s-5.535-35.156-5.386-40.243 11.52-37.7 14.063-40.243 47.872-17.353 49.668-17.952 14.81 12.567 15.708 14.362a58.535 58.535 0 012.244 6.283s9.125-3.441 13.314.449 13.016 38.3 13.165 43.085-.9 10.921-2.094 18.252-3.142 15.857-3.142 15.857l-4.937 1.945s-.449-12.716-.449-13.464.9-9.874.9-9.874l-4.189-9.873-5.236-19-.9-3.59-2.693-4.488-3.89 7.48-6.134 5.385-7.928 4.788-10.622 4.787-4.339 1.8h-2.242l-.3-2.244 2.394-3.74 5.385-5.834.6-3.142-2.543.449-4.638 1.945-10.921 5.086-12.118 4.638-11.22 1.8-7.031.3h-1.048l1.5 8.079-.6 27.975-2.244-.449z" fill="#70584b"/><path data-name="パス 47" d="M234.721 142.72l6.433 12.417 5.086 9.275-1.346-11.37-.6-4.937v-4.189l-.748-2.094-5.535 1.2-2.842-1.5z" fill="#eae02a"/><path data-name="パス 48" d="M263.594 166.805l13.228-24.455 3.976 4.409 3.59 4.039-.6 2.094-10.472 7.48-5.386 4.189z" fill="#eae02a"/><path data-name="パス 49" d="M268.681 185.206l23.188-5.386 1.2 4.787-.449 5.236-3.74.6-15.412-3.29z" fill="#eae02a"/><path data-name="パス 50" d="M50.566 163.045c0-1.047 4.338-22.291 4.338-22.291l8.378 2.843-5.535 10.621-5.236 8.827z" fill="#eae02a"/><path data-name="パス 51" d="M26.63 162.746l-11.22-12.567 8.228-7.929 5.685 14.063 3.441 7.031-.9 1.5-3.59-1.2z" fill="#eae02a"/><path data-name="パス 52" d="M4.788 188.627l3.74-12.417 9.724 3.142 7.181 2.394.9 1.945-1.8 1.047-8.527 2.244-10.322 2.842z" fill="#eae02a"/><path data-name="パス 53" d="M162.152 0c2.75-.008 4.717 2.063 5.912 3.644.872 1.154 2.276 2.215 3.158 3.4 1.97 2.647 4.056 5.162 5.992 7.854 1.2 1.665 3.487 3.293 2.834 6.236h-.162a3.307 3.307 0 01-2.267.081c-1.216-.551-2.253-2.53-3-3.644-.7-1.046-1.613-1.995-2.348-3-1.938-2.64-4.012-5.039-6.155-7.449-.876-.986-2.45-3.312-4.13-3.321-.338.239-.724.1-1.214.243-1.02.293-2.164.457-3.239.81-1.775.583-3.728 1.176-5.426 1.782-1.479.527-2.967.678-4.373 1.295-1.207.53-2.657.968-3.886 1.458-.532.212-1.025.166-1.539.405-.877.407-1.838.608-2.834.972-1.78.649-3.744 1.42-5.507 2.1-.89.346-1.711.423-2.591.81-1.362.6-2.92 1.246-4.292 1.781-.8.314-1.5.429-2.267.81-3.2 1.6-6.746 3.054-10.122 4.373-2.991 1.168-5.894 2.32-8.665 3.644-1.217.581-4.181 1.591-4.858 2.51a14.1 14.1 0 00-1.134 2.1 24.828 24.828 0 00-.81 2.511 222.372 222.372 0 00-1.619 4.615c-.459 1.358-.7 2.735-1.215 3.968-.227.542-.131.985-.324 1.539-1.838 5.283-2.534 11.511-4.13 17.167-.451 1.6-.4 3.151-.81 4.778-.422 1.66-.547 3.645-.971 5.344l-.081 1.377a9.16 9.16 0 00-.324 2.915l.405 3.806c.907 3.3 1.192 6.967 2.024 10.2v.729c.231.971.267 2.031.567 3.077.625 2.178 1 4.6 1.539 6.8.271 1.108.07 2.27.323 3.4v1.458c.132.54.34 1.476.4 1.862a14.32 14.32 0 01-.324 4.7c-.168.736.025 1.1-.485 1.458v.08l-.081-.08c-.773-1.108-.9-3.318-1.377-4.778-1.025-3.144-1.475-6.888-2.348-10.122-.172-.634-.072-1.051-.243-1.7-1.264-4.791-1.769-10.075-3.077-14.738-.464-1.651-.259-3.364-.648-5.1a12.253 12.253 0 01.324-4.292l.081-1.3c.426-1.493.573-3.322.971-4.777v-.729c.242-.932.465-2.126.729-3.077l.081-.972c.427-1.622.65-3.534 1.053-5.183.175-.716.052-1.211.243-1.943.936-3.6 1.455-7.4 2.591-10.689.261-.756.244-1.342.486-2.105 1.2-3.8 2.277-8.007 3.887-11.5.761-1.651 1.163-3.338 2.591-4.292 3.005-2.008 6.867-3.027 10.284-4.616 1.1-.513 2.291-.627 3.4-1.133 3.136-1.431 6.282-2.926 9.394-4.373.615-.286 1.165-.281 1.781-.567 1.548-.718 3.347-1.352 4.94-2.024.427-.181.773-.131 1.214-.324 4.666-2.048 9.806-3.676 14.657-5.426 3.791-1.367 7.857-2.206 11.661-3.563 1.237-.441 2.516-.607 3.725-.972.497-.126 1.24-.037 1.629-.303zm-21.3 14.414l1.134.08a6.945 6.945 0 00.972 1.134l-.081.81a7.881 7.881 0 00-1.782 2.591l-.4.405c-.542.809-1.041 1.573-1.619 2.348l-1.863 1.863c-1.444 1.91-3.045 3.65-4.615 5.425-.993 1.123-1.774 2.435-2.673 3.644a18.906 18.906 0 01-2.51 2.511c-.984.891-1.767 2.12-2.834 2.915a29.387 29.387 0 01-6.964 3.644c-2.7.989-7.743 1.947-11.175 1.053-1.2-.314-2.558-.156-3.4-.81l-.324-.567c-.21-.187-.587-.155-.81-.324a2.635 2.635 0 01-.809-2.186h.4c.639.5 2.021.452 2.916.728 3.749 1.159 9.632.784 12.713-.809a51.691 51.691 0 004.94-2.43 9.684 9.684 0 002.024-2.186l3.158-2.834c.679-.912 1.188-1.934 1.863-2.834l.971-.972c1.255-1.674 2.627-3.2 3.887-4.859.545-.718 1.668-1.417 2.187-2.105.934-1.238 1.981-2.458 2.834-3.725a11.728 11.728 0 011.863-2.51zm26.156 4.048a4.615 4.615 0 011.215.243c.154.521.927 1.014.648 1.863-.356 1.08-1.7 1.813-2.349 2.672a75.615 75.615 0 01-7.45 7.936l-5.263 5.425c-1.159.877-2.014 2.032-3.077 3a107.05 107.05 0 00-3.644 3.482c-1 1-1.89 2.106-2.916 3.078a16.933 16.933 0 01-1.538 1.133l-.972.972c-1.045.788-2.019 1.572-3.077 2.348a21.466 21.466 0 01-7.936 4.616c-.518.211-.939.194-1.457.405-1.914.779-4.011 1.633-6.074 2.267-1.206.371-2.251.44-3.482.81-.874.263-2 .495-2.915.729l-1.133.081a24.557 24.557 0 01-9.313.405 27.05 27.05 0 01-3.32-.486 7.525 7.525 0 01-2.186-1.458c-.577-.465-1.21-.671-1.539-1.376a5.5 5.5 0 01-.243-2.268c.226-.149.229-.258.567-.324.083.066.022.029.162.081.326 1.161 2.482 2.285 3.644 2.673.754.251 1.361.108 2.186.324a17.9 17.9 0 007.612-.081c1-.223 1.838 0 2.834-.243a66.952 66.952 0 006.722-1.539 53.666 53.666 0 004.777-2.024c.62-.3 1.219-.318 1.863-.567a32.792 32.792 0 004.615-2.106 27.128 27.128 0 003.32-2.834c1.465-1.2 3.17-2.264 4.7-3.4a14.037 14.037 0 002.186-2.51c.479-.591 1.162-1.08 1.7-1.62 1.147-1.147 2.254-2.334 3.4-3.482 1.131-1.131 2.368-2.173 3.482-3.32a21.744 21.744 0 012.186-2.348 18.65 18.65 0 003-2.753c1.6-2.116 3.764-3.779 5.425-5.831a25 25 0 013.643-3.973zm25.67 114.907c.024 7.884-.4 15.621-.4 23.645l-.081 9.556a14.289 14.289 0 01.081 2.51v4.535c0 7.7-1.2 13.588-5.021 17.41l-1.052 1.134a19.353 19.353 0 01-7.207 3.158c-1.754.421-3.845.105-5.588.486a9.9 9.9 0 01-2.1 0 11.588 11.588 0 00-2.025.243 2.325 2.325 0 01-.809-.081 7.368 7.368 0 00-1.7.162c-.936.2-2.27-.245-2.915.242a.707.707 0 00-.081.405 12.217 12.217 0 01.081 3.077l.081 7.531c-2.241.958-4.437 2.2-6.64 3.239-1.788.842-3.561 1.343-5.426 2.106-.809.331-3.844 1.6-5.02 1.3a23.287 23.287 0 01-5.1-2.348c-1.7-.884-3.254-1.689-4.858-2.672a12.547 12.547 0 00-2.835-1.7 18.132 18.132 0 00-3.887.243l-1.214.081c-.758.279-1.457 1.232-2.106 1.7-1.775 1.281-3.462 2.54-5.263 3.806a13.854 13.854 0 01-2.187 1.7c-2.456 1.023-5.055 1.87-7.53 2.834-.841.328-1.63.424-2.43.81-1.259.609-2.568 1.127-3.806 1.782-1.571.831-3.129 1.961-4.7 2.834-.462.257-.917.328-1.377.567a32.085 32.085 0 00-3.806 2.267 35.354 35.354 0 00-3.563 3.563 23.849 23.849 0 00-3.077 3.077c-1.239 1.738-2.274 3.613-3.4 5.507-.925 1.554-2.2 2.864-3.158 4.453-.473.787-1.269 1.5-1.782 2.268-2.315 3.459-5 6.535-7.288 9.96-1.363 2.038-2.527 4.1-3.887 6.154-.22.334-.606.71-.809 1.053-.4.672-.613 1.388-1.053 2.024-.322.466-.943.617-1.377.972a21.887 21.887 0 01-.081 6.154 7.2 7.2 0 00.162 2.754l.081 3.563c.251 1.153.236 2.7.486 3.806l.081 1.295c.362 1.456.792 3.147-.972 3.482-.329-.229-.691-.03-1.052-.081-.169-.023-.5-.195-.729-.243-.588-1.263-.624-3.3-.972-4.858v-.972c-.85-3.749-.405-8.514-.405-12.956 0-11.241-.389-22.3-.4-33.525-.142-.051-.078-.016-.162-.081a24.133 24.133 0 00-2.753 1.215c-3.044 1.24-10.132 2.331-13.28.4l-1.134-.4a3.5 3.5 0 01-1.538-2.834c.142-.052.078-.016.162-.081 1.371.3 2.779.78 4.13 1.133.7.184 1.44-.039 2.024.081 3.059.632 6.1-.475 8.341-1.3.909-.332 3.337-.861 3.725-1.539a25.311 25.311 0 00-.243-3.482l-.567-.486c-1.773-.03-2.609.741-3.887 1.215-1.358.5-2.864.677-4.292 1.052a13.051 13.051 0 01-1.781.081 7.526 7.526 0 01-2.673.162 23.973 23.973 0 01-4.21-1.052c-.767-.372-1.769-1.5-2.673-1.539a7.859 7.859 0 01-1.214.405c-.36.84.325 2.213-.081 3.158-.365.85-1.414 1.477-1.7 2.348l.243 5.264a8.376 8.376 0 00-.081 1.539 23.9 23.9 0 01.243 3.4 21.222 21.222 0 00.081 3.077c.261 1.163-.072 2.438.162 3.482v2.024a25.333 25.333 0 00.324 3v1.458c.3 1.346.183 3.108.486 4.454v1.133c.315 1.538-.053 4.03.4 6.074v2.024c.293 1.327-.141 3.169.162 4.535a15.569 15.569 0 01.243 2.51v1.539c.1.431.146 1.114.242 1.538v1.377c.572 2.509.472 5.27 1.053 7.855v1.862c.4 1.788.066 3.933.486 5.75a44.965 44.965 0 001.053 4.939c1.267 3.532 3.535 7.2 7.45 8.1 1.8.415 3.926-.625 4.939-1.134a42.747 42.747 0 006.559-4.211l.567-.647c.417-.315.8-.577 1.215-.891l.972-1.053c3.444-2.608 6.274-5.982 9.717-8.583l1.376-1.458a39.23 39.23 0 013.887-3.563l1.62-1.7c.945-.944 1.97-1.808 2.915-2.753a28.449 28.449 0 012.834-2.753l5.1-5.1a7.368 7.368 0 014.616-3.239v-1.3a4.408 4.408 0 01-.081-1.944c.375-1.359 1.336-4.487 2.915-4.211 1.044 3.133.029 8.322.81 11.661.289 1.238-.168 2.825.081 3.968v3.806c.33 1.447.4 3.106.728 4.616v5.02c.286 1.3.445 2.518.729 3.806.36 1.635-.518 3.13-.162 4.7a47.824 47.824 0 011.053 9.96c.013 4.378.425 10.267-.486 14.09-.284 1.193-.036 2.764-.648 3.644l-.567.405a3.581 3.581 0 01-3-1.215 6.856 6.856 0 01.486-2.267c.21-.771.1-1.566.243-2.1.156-.591-.082-1.085 0-1.539.2-1.123.094-2.554.324-3.563v-1.539a20.6 20.6 0 00-.081-3.887v-3.643c-.248-1.111.024-2.767-.162-3.725-.193-1-.337-2.3-.567-3.321v-1.781l-.243-4.859c-.388-1.7-.233-3.73-.567-5.587-.138-.77.283-1.931.081-2.834a7.681 7.681 0 01-.243-2.025 6.151 6.151 0 000-1.376c-.166-.755.025-1.665-.162-2.511-.417-1.888-.177-4.445-.4-6.4h-.243c-.517.995-2.318 2.193-3.158 3-1.051 1-2 2.1-3.078 3.077-.165.15-.242.416-.405.567-1.028.954-2.122 1.891-3.077 2.915-1.247 1.34-2.573 2.535-3.887 3.806-.244.237-.408.567-.647.81a39.9 39.9 0 01-4.373 3.887l-.729.81c-1.591 1.2-2.868 2.689-4.454 3.887l-2.348 2.348c-1.317 1-2.348 2.34-3.644 3.32-2.277 1.722-4.34 3.716-6.8 5.264-2.492 1.566-7.381 3.9-11.58 2.591a10.968 10.968 0 01-5.344-3.725c-2.025-2.719-3.052-5.972-4.13-9.717-.672-2.335-.473-5.267-1.053-7.45v-1.377c-.358-1.623-.208-3.662-.567-5.263v-1.377c-.514-2.3-.206-5.177-.728-7.288-.259-1.043.044-2.228-.162-3.158-.225-1.01.045-2.142-.162-3.077v-1.539a22.192 22.192 0 00-.162-4.372c-.356-1.6.019-3.637-.324-5.183v-2.105a37.919 37.919 0 00-.324-4.454v-2.429c-.535-2.044-.023-4.871-.486-6.965-.179-.809.076-1.882-.081-2.591l-.081-2.672-.324-5.911a6.042 6.042 0 011.053-2.187c.184-.251.608-.515.729-.81v-2.753c.2-.249.157-.59.324-.891l1.133-1.133c.688-.425 1.865-.319 2.51-.81a1.485 1.485 0 00.081-.729c-.275-.475-.024-1.358-.161-1.943-.443-1.885-.508-4.091-.972-5.831v-.566a8.279 8.279 0 00-.486-.81c-.214-.431-.13-.756-.324-1.215-.414-.98-.913-2.154-1.3-3.158-.53-1.392-.679-2.8-1.295-4.13a63.723 63.723 0 01-3.077-7.369c-.568-1.762-1.118-6.013-.243-7.855.828-1.744 2.4-2.333 3.806-3.482 2.222-1.81 4.628-3.388 6.964-5.1a29.711 29.711 0 003.239-3.077l.809-.891a20.41 20.41 0 013.159-2.024 6.786 6.786 0 013.563-.81h1.043a8.145 8.145 0 014.292 2.753c.4.558.985 2.254 1.7 2.348.712-.43 2.022.325 2.429.567a8.232 8.232 0 013.4 3.968c.246.586.381 1.275.567 1.863v.4c.2.3 1.034.783 1.295 1.134a12.766 12.766 0 011.215 2.106l.4 1.7v1.458c.105.32.479.552.648.809a10.887 10.887 0 01.81 1.62c1.274 3.038 1.8 7.149.243 10.284a8.606 8.606 0 01-3 3.482 7.083 7.083 0 01-1.7.648c-.3.084-.845 0-.972.243v1.3c-.364.552-.272 1.427-.567 2.025a16.222 16.222 0 01-1.457 2.267 37.419 37.419 0 01-3.158 3.4c-.379.4-1.074.861-1.3 1.377v3.887l.243.081c.618.41 1.458.179 1.943.81a9.03 9.03 0 01.891 2.186c.338 1.187-.252 2.876.162 3.968.07.185.272.2.4.324a3.962 3.962 0 01.972 1.376l.243 2.673c.521 2.357.162 5.293.162 7.935a18.475 18.475 0 00.4 4.211 17.5 17.5 0 01-.243 5.021 9.746 9.746 0 00.243 3.725v.891a12.07 12.07 0 01.243 1.943c.168-.03.156-.02.243-.081a11.42 11.42 0 00.972-1.7c1.026-1.618 2.114-3.3 3.239-4.858.545-.756 1.314-1.427 1.863-2.187 2.3-3.185 4.615-6.3 6.8-9.555.83-1.237 1.946-2.372 2.753-3.644.848-1.337 1.547-2.674 2.429-3.968.905-1.327 2.12-2.528 3.077-3.806a16.369 16.369 0 012.754-3.077c1.375-1.04 2.6-2.275 4.048-3.239.851-.567 1.8-1.14 2.673-1.619.644-.355 1.318-.427 1.943-.81a87.318 87.318 0 018.584-4.373c2.529-1.183 5.252-1.92 7.774-3.077.731-.336 1.467-.3 2.186-.648a11.156 11.156 0 001.215-.972c.917-.615 1.794-1.137 2.672-1.781.525-.386.971-.937 1.538-1.3a8.728 8.728 0 011.62-.81c.346-.118.551-.005.81-.162l.405-.4c.492-.288 1.073-.333 1.538-.648.286-.194.442-.6.81-.729l1.134-.081 3.239-.567v-2.51a3.616 3.616 0 00.081-1.377v-3.4c-1.078-.357-4.211-.087-5.588-.081-.468-.278-1.413.054-2.024-.081-1.8-.4-3.953.011-5.75-.405a18.917 18.917 0 01-10.77-4.939 8.32 8.32 0 01-1.133-1.377c-.352-.469-.884-.883-1.215-1.376a25.171 25.171 0 01-3.482-8.746l-.243-7.693v-2.672c-.148-.684.089-1.725-.081-2.51-.176-.813.117-2-.081-2.916-.361-1.673-.081-4.288-.081-6.154l-.081-11.661a52.3 52.3 0 00-.162-7.288c-.041-.262.081-.9.081-1.295 0-1.4.007-2.941-.081-4.211-1.238.033-3.49.627-4.534.162-1.707-.759-2.412-2.257-3.563-3.563a8.617 8.617 0 01-1.782-2.429c-.392-1.009-.391-2.082-.81-3.077a15.491 15.491 0 01-1.052-2.187 11.938 11.938 0 01.081-2.915c.007-1.205-.418-2.452-.081-3.644a10.559 10.559 0 011.7-3.32 6.753 6.753 0 013.482-2.186l1.782-.081a3.73 3.73 0 011.457-.162c.935.222 2.053.6 2.915.728a12.275 12.275 0 00.081-3.239 4.371 4.371 0 01-.081-1.619v-4.211l-.081-10.608c-.185-.892.124-2.163-.081-3.158a7.506 7.506 0 010-2.43v-1.3a30.251 30.251 0 01.729-3.158c.2-.55.23-1.129.891-1.215.679.9 1.578 1.53 1.943 2.753l.081 1.458a23.665 23.665 0 01.243 4.778v7.207a19.911 19.911 0 00.081 4.048v4.859c.325 1.454-.266 3.386.081 4.94a16.054 16.054 0 01.081 3v6.235c.023 6.6.162 13.512.162 20.325v6.64a16.852 16.852 0 00.081 3.4v4.048a29.886 29.886 0 00.081 4.292c.194 1.229-.1 2.714.162 3.725.209.816-.121 2.09 0 2.672v3.32c.2.889-.142 2.171.081 3.159.16.709-.1 1.916 0 2.591.412 2.678-.046 6.065.729 8.34a15.642 15.642 0 0011.256 10.77c1.642.48 3.53.184 5.1.567.523.128 1.274-.023 1.7.081l11.418.081c.27.243.178 1.116.162 1.62-.261.424.04 1.3-.081 1.862-.1.478.043 1.283-.081 1.863-.213.994.153 2.387-.081 3.482a13.979 13.979 0 00-.162 2.186c2.7 1.636 5.361 3.2 8.259 4.7.55.285 2.281 1.457 3.158 1.215a50.779 50.779 0 008.1-3.321h.324c.982-.414 2.031-1.1 3-1.538.348-.159 1.055-.247 1.215-.567v-9.231a10.956 10.956 0 00.081-2.835 7 7 0 011.862-.081c.529-.317 1.955-.057 2.673-.081a18.308 18.308 0 003-.242h2.672c1.8-.4 4.154-.089 5.911-.486l1.62-.081c5.365-1.485 7.405-3.072 9.474-7.855a29.552 29.552 0 001.053-4.859c.2-.84-.006-1.758.162-2.51.256-1.149-.079-2.666.081-3.725.28-1.852-.3-4.029.081-5.749v-1.377a30.947 30.947 0 01.081-3.968c.181-1.256-.4-3.069-.081-4.454.488-2.091.162-5.3.162-7.45v-2.591l.324-16.195v-5.669a15.16 15.16 0 01.081-2.834l.081-9.474c.6-2.754-.449-6.813.162-9.556v-2.915a39.893 39.893 0 00.243-6.883V90.79a19.327 19.327 0 00-1.053-2.51c-.29-.661-.278-1.205-.567-1.863-.745-1.693-1.4-3.639-2.024-5.425-.669-1.925-1.1-3.955-1.62-5.912-.162-.608-.046-.961-.243-1.538-.407-1.2-.928-2.6-1.3-3.887-.2-.71-.208-1.4-.4-2.024l-.081-1.053a25.9 25.9 0 01-.567-5.345c-.011-.879-.374-1.952.081-2.672.087-.061.076-.049.243-.081 1.034 1.978 1.2 4.761 2.105 6.883.828 1.942 1.294 3.98 2.025 6.074 1.087 3.117 2.218 6.437 3.4 9.474.436 1.12.569 2.149 1.052 3.239s.834 2.272 1.3 3.482c.571 1.5 1.522 3.427.972 5.83-.2.859.093 1.994-.081 2.754v2.672c-.188.837.129 2.059-.081 3-.363 1.618-.081 3.888-.081 5.668a15.43 15.43 0 01-.081 3.968h.324a7.072 7.072 0 014.291-1.214 9.033 9.033 0 002.349.243v-.162c.318-.49.2-1.171.4-1.782.38-1.133.92-2.392 1.3-3.482.183-.53.059-.841.243-1.377.688-2 1.487-4.177 2.106-6.235.406-1.353.354-2.691.728-4.13.3-1.162.7-2.51 1.053-3.644v-.588c.406-1.537.665-3.38 1.053-5.021v-1.7c-.205-.231-.774-.179-1.215-.162-.431-.338-1.218-.285-1.7-.566a17.311 17.311 0 01-3.4-2.511c-1.183-1.188-1.765-2.992-2.673-4.453a19.9 19.9 0 01-1.781-2.835c-.417-1.025-.555-2.012-.972-3-.237-.561-.8-1.106-1.053-1.619-.544-1.1-.291-2.583-.809-3.725a17.218 17.218 0 01-1.053-2.106c-.546-1.833-.76-3.752-1.215-5.587v-.729c-.36-1.619-.2-3.339-.567-4.94a11.009 11.009 0 01-.485-4.129c.433-.161 1.606-.936 2.429-.4a2.452 2.452 0 01.486.243 37.264 37.264 0 00.81 4.777v1.782c.48 2.1.448 4.431 1.052 6.478a78.109 78.109 0 003.563 9.879c.32.7.252 1.385.567 2.106.39.891 1.086 1.816 1.539 2.672 1.123 2.126 2.37 4.434 4.372 5.668.353.217.767.192 1.134.4.342.2.254.5.81.567a1.5 1.5 0 00.081-.486c-.432-.686-.238-2.175-.486-3.077-.757-2.759-.523-6.174-1.215-8.988-.517-2.108-1.111-4.075-1.619-6.155l-.81-6.64c-.6-2.077-1.229-4.085-1.781-6.154-.664-2.485-.874-5.083-1.539-7.45-.187-.668-.055-1.114-.243-1.782-.616-2.187-.918-4.723-1.539-6.964-.345-1.249-.272-2.526-.809-3.563a5.216 5.216 0 00-1.944-1.619 26.26 26.26 0 00-7.612-2.834c-1.538-.4-4.022.011-4.21-1.7-.461-.506.544-2.3 1.214-2.348a2.7 2.7 0 011.782 0c1.483.43 3.249.746 4.7 1.214.576.187.967.139 1.539.324 2.622.85 6.1 2.371 7.369 4.535.724 1.233.821 2.653 1.3 4.211.576 1.894.882 4.127 1.457 6.073.229.775.116 1.392.324 2.187.4 1.529.665 3.345 1.053 4.858.192.75.035 1.209.243 1.944.778 2.753 1.379 5.644 2.105 8.5.247.971.273 1.968.486 2.835l.081 1.133c.365 1.153.371 2.455.729 3.725.8 2.832 1.079 5.959 1.781 8.989a15.044 15.044 0 01.081 1.943c.216 1.558.385 3.374.729 4.859v1.052a13.288 13.288 0 01.081 4.535l-.081 1.863c-.312 1.334-.486 2.938-.81 4.21v.729c-1.047 3.743-1.694 7.872-3.077 11.256-.525 1.285-.545 2.607-1.053 3.887a22.931 22.931 0 00-2.348 4.211c-.383.513-1.269.69-1.377 1.457a8.428 8.428 0 014.7 5.588 24.483 24.483 0 01.081 5.263 14.189 14.189 0 01-1.3 4.7c-.288.683-.266 1.37-.566 2.024a16.439 16.439 0 01-2.673 4.292 7.138 7.138 0 01-6.316 1.539l-1.215-.162c-.506-.191-.68-.795-1.284-.887zM96.639 65.105c.04 4.856 1.664 8.44 5.344 9.88.473.184.794.147 1.3.323a10.319 10.319 0 005.183.567c.906-.211 1.9-.139 2.834-.405 2.621-.748 5.57-1.182 8.178-2.024.685-.221 1.18-.1 1.863-.324.92-.307 2.114-.6 3-.972l.729-.081c.824-.286 1.882-.628 2.672-.971l.648-.081c2.289-1 4.64-1.81 6.883-2.835 2.206-1.007 4.41-2.336 6.64-3.32 2.784-1.228 5.523-2.581 8.341-3.644.628-.237 2.377-.642 3.077-.162 1.926.605 1.21 3.7.567 5.1a23.764 23.764 0 01-3.4 4.778c-.115.143-.117.357-.243.486a22.786 22.786 0 00-2.106 2.186c-.584.773-2.8 2.36-3 3.239a7.432 7.432 0 002.753-1.053c.749-.362 1.43-.489 2.187-.809 1.55-.658 3.15-1.579 4.616-2.349a110.578 110.578 0 0011.822-7.045c2.323-1.614 5.054-3.272 6.721-5.506a45.517 45.517 0 004.13-6.8 17.487 17.487 0 00.567-1.7 69.969 69.969 0 002.348-7.936c.307-1.2.222-2.488.486-3.644.243-1.064-.063-2 .324-2.834a5.9 5.9 0 011.3-1.457c1.789.118 2.846 1.653 2.348 3.8v1.053c-.34 1.38-.342 2.91-.729 4.373a70.9 70.9 0 01-2.1 7.369c-.17.436-.122.79-.324 1.215a33.694 33.694 0 01-6.235 9.555 40.583 40.583 0 01-2.915 3.077c-5.243 4.245-11.421 7.34-17.654 10.608a44.66 44.66 0 01-7.935 3.4 7.611 7.611 0 01-4.373.243 4.325 4.325 0 01-1.62-1.3 4.093 4.093 0 01-.162-1.538 10.175 10.175 0 013-4.616 15.39 15.39 0 001.133-1.458c.844-1.116 1.973-2.014 2.834-3.158.6-.8 1.9-1.563 2.025-2.753a1.15 1.15 0 00-.324-.081 10.356 10.356 0 01-2.024.891c-1.555.7-3.21 1.32-4.778 2.1a128.021 128.021 0 01-9.07 4.13c-2.858 1.161-5.894 1.911-8.745 3.077-.763.313-1.623.3-2.429.567-2.058.685-4.47 1.167-6.641 1.782-.817.231-1.447.071-2.267.324-2.872.883-8.414 1.257-11.5.242-4.209-1.384-6.047-3.59-7.369-7.854v-.891a7.087 7.087 0 01.729-3.239c.302-.72.34-1.499 1.364-1.525zm78.143 14.9h2.186c3.748 1 4.594 4.618 4.616 9.232a2.02 2.02 0 00-.4.323c-1.184.057-2.431.107-3.158-.485a12.122 12.122 0 00-.567-4.94c-.2-.335-.69-.544-.972-.81a10.884 10.884 0 00-5.83 1.944c-.5.306-1.085.359-1.62.647-.3.161-.538.543-.809.729-.589.405-1.14.714-1.7 1.134-1.072.8-1.977 1.775-3.077 2.591l-.648.729c-.606.373-2.98.126-3.239-.324v-.648c.574-.548 1.038-1.242 1.62-1.781.346-.321.8-.48 1.133-.81l1.134-1.3c.727-.5 1.484-.854 2.186-1.376l1.377-1.458c.66-.48 1.557-.614 2.267-1.053.457-.281.805-.754 1.215-1.052.633-.46 1.52-.263 2.429-.486a7.548 7.548 0 001.86-.806zm-52.959 23c3.116.026 4.3 1.286 4.939 3.806.122.475.666 1.246.486 1.862a8.558 8.558 0 01-.486.81c-.073.189.075.308.081.405a9.736 9.736 0 01-.081 2.186c-.361 1.514-1.709 3.443-3.158 3.806a2.693 2.693 0 01-1.7-.324c-.534-.222-1.094-.126-1.539-.405a4.333 4.333 0 01-1.376-2.186l-.162-1.377a4.588 4.588 0 01-.567-2.834c.155-.607.556-1.222.729-1.781v-.891a7.2 7.2 0 011.052-1.863c.399-.538 1.264-.799 1.785-1.216zm44.618 0c2.841.028 4.178 1.161 4.94 3.239l.081.971c.31 1.023.524 1.222 0 2.187l-.081 2.591c-.384 1.626-1.607 3.5-3.158 3.887a2.78 2.78 0 01-1.7-.324l-1.457-.324c-.772-.433-1.244-1.758-1.539-2.672l-.081-1.053c-.076-.231-.411-.66-.486-.89a6.3 6.3 0 010-2.187c.09-.285.39-.7.486-.972.2-.547.034-1.014.243-1.619a7.558 7.558 0 011.053-1.7c.369-.494 1.218-.751 1.702-1.136zm-22.836 4.127c.495.074.668.108.647.729-.236.408-.155 1.027-.323 1.458-.661 1.686-1.53 3.467-2.106 5.182-.207.618-.048 1.082-.243 1.7-.367 1.168-1.054 2.494-1.538 3.644-.608 1.441-.526 3.172-1.053 4.778-.461 1.4-1.127 2.827-1.539 4.372l-.081 1.944c-.466 1.837-2.108 4.15-.728 6.154.589.856 1.811 1.008 2.915 1.377a40.92 40.92 0 002.429.728l2.429.162a8.344 8.344 0 002.835.081 9.21 9.21 0 013.4-.4 3.757 3.757 0 01.566 3.239c-.66.419-1.023.2-1.943.405a15.341 15.341 0 01-5.021.4c-4.339-.994-8.374-.973-10.527-4.21a5.376 5.376 0 01-1.052-4.049c.42-1.846.822-3.686 1.376-5.426.328-1.029.264-1.937.567-2.915.27-.868.748-1.719 1.053-2.51.27-.7.256-1.365.486-2.106.375-1.211.879-2.547 1.295-3.725a59.285 59.285 0 012.106-6.154c.447-.914.485-2.048 1.052-2.834.031-.042 1.3-1.377 1.3-1.377.507-.307 1.237-.298 1.698-.647zm-41.623 8.5l.081 8.017c0 .689-.18 2.814.081 3.239a13.227 13.227 0 01-.081 3.482c-.447.125-2.6.611-3.158.243-1.154-.116-1.835-1.532-2.348-2.348-.274-.435-.748-.921-.972-1.377-.36-.733-.282-1.584-.567-2.348a11.173 11.173 0 01-1.052-4.454 12.076 12.076 0 01.162-3.644 4.42 4.42 0 012.186-2.187c.308-.15.714-.071.972-.242a12.008 12.008 0 014.7 1.622zm99.44-.162c.261.38.314.827.567 1.215.177.27.539.55.648.891a7.253 7.253 0 01-.324 2.672c-.187.9.391 1.932.081 2.915-.257.814-.707 1.64-.972 2.429-.3.9-.2 1.781-.566 2.592a4.971 4.971 0 01-6.074 2.915 22.05 22.05 0 01-2.024-.972l.162-9.393c0-.789-.217-3.4.081-3.887.193-.761 1.965-2.018 2.672-2.349.483-.225 1.053-.19 1.458-.485 1.805-.006 3.564.397 4.295 1.46zm-148.7 19.611a9.733 9.733 0 013.806.81c.582.2 1 .123 1.539.324a9.505 9.505 0 014.049 3.32h.081a1.6 1.6 0 011.862-1.539c.3.271.729.4 1.053.648a4.1 4.1 0 011.053 4.13 14.141 14.141 0 01-1.3 2.1c-.582 1.074-.959 2.159-1.619 3.158-.272.411-.7.813-.972 1.215-1.2 1.792-2.1 3.728-3.239 5.588-.817 1.332-1.781 2.742-2.511 4.129-1.071 2.038-1.519 4.422-3.563 5.507a3.084 3.084 0 01-2.186.4c-2.505-.688-2.51-3.465-2.51-6.721 0-4.469.258-8.608.405-12.957l.081-4.615a6.438 6.438 0 01.081-2.43 4.9 4.9 0 012.51-2.753c.413-.142 1.006-.079 1.383-.311zm188.468 2.569c1.863-.021 3.366.335 4.048 1.458.8 1.317.554 4.419.567 6.478v1.944c.343 1.492.408 3.551.729 4.858v4.454c.2.931.066 1.88.324 2.834.816 3.016.25 5.983-2.348 6.8a3.175 3.175 0 01-2.268-.405 6.866 6.866 0 01-3.158-3.32c-1.549-2.788-3.191-5.69-4.616-8.583-.643-1.306-.952-2.638-1.619-3.887-.736-1.379-1.354-2.787-2.106-4.211a15.41 15.41 0 01-1.214-2.024 3.465 3.465 0 011.862-4.049c.769-.228 1.047.275 1.62.324.377-.52 1.043-.556 1.7-.81 1.526-.589 3.339-1.073 4.94-1.539.534-.149 1.123-.042 1.542-.319zm-185.066 1.075c.538.185.836.081 1.376.243.624.187 1.417.51 2.025.729a5.3 5.3 0 002.51.162c.307.2.075.458.243.81.127.268.581.541.81.728-.048.943-.7 1.3-1.053 1.944-.674 1.222-1.314 2.415-2.025 3.563-2.169 3.5-4.224 7.089-6.316 10.689-.151.26-.1.456-.243.729-.387.731-.971 1.547-1.295 2.348-.16.394-.106.679-.324.972-.084.065-.02.03-.162.081-.084-.066-.02-.03-.162-.081-.147-.775.216-1.693 0-2.592a24.626 24.626 0 01.081-8.016 7.294 7.294 0 00-.162-2.592 14.9 14.9 0 01.081-4.777l.081-4.13a3.807 3.807 0 01.891-1.539c.187-.018.228-.016.323-.081a9.131 9.131 0 013.324.813zm-35.468-.648a5.157 5.157 0 014.7 2.754c.52.947.6 2.017 1.053 3 .709 1.528 1.135 3.346 1.781 5.02a112.473 112.473 0 004.94 11.418c.984 1.871 1.407 5.2-.891 5.992a3.594 3.594 0 01-2.267-.243 19.218 19.218 0 01-3.887-2.1c-4.795-3.145-9.484-6.4-14.252-9.555-.377-.25-.752-.328-1.134-.567-.933-.583-2.569-2.833-2.1-4.778.54-2.264 1.82-3.26 3.4-4.454l1.781-1.781c.537-.36 1.211-.436 1.782-.81.2-.131.412-.465.648-.567l2.348-.324c.065-.095.063-.136.081-.323a2.894 2.894 0 01-.486-1.377c.346-.4.6-.851 1.134-1.053.418-.164 1.018-.023 1.372-.249zm253.086 2.084c1.633-.042 2.194.193 3 .971l.081 1.215c-.968.282-.89 1.2-2.268 1.215-.174-.161-.37-.168-.729-.162-.2.3-.568.549-.728.891l-.243 1.052c-.323.757-.679 1.54-1.053 2.349-.469 1.013-1.206 2.1-1.782 3.077-1.171 1.99-1.9 4.283-2.915 6.4-.93 1.934-2.828 4.966-2.834 7.612l.081.081c1.738-.764 2.992-2.187 4.454-3.239s2.992-1.89 4.534-2.916c1.668-1.107 3.214-2.491 4.859-3.644 1.038-.727 2.049-1.5 3.077-2.186.69-.462 1.486-.682 1.62-1.7-.162-.178-.18-.445-.324-.648a7.817 7.817 0 00-1.62-1.458c-.427-.323-.728-.863-1.133-1.214a3.392 3.392 0 01-1.782-2.268l-.729-.729a6.6 6.6 0 01-.405-2.672 1.239 1.239 0 01.324-.162c.552.462 1.208.784 1.782 1.215l1.3 1.376c1.077.816 1.935 1.775 2.915 2.673a7.36 7.36 0 012.591 3.482c.784 2.812-2.822 4.468-4.211 5.344-1.33.839-2.556 1.893-3.806 2.834-.59.444-1.084 1.124-1.7 1.539-2.324 1.565-4.669 2.97-6.8 4.7-.357.288-.6.779-.972 1.052-1.052.783-3.412 2.337-5.345 1.62-2.749-1.02-1.728-5.81-.728-7.936s2.078-4.436 3.077-6.559c.261-.555.292-1.006.567-1.539.889-1.723 1.993-3.491 2.834-5.263.722-1.523 1.362-4.086 2.429-5.183a5.368 5.368 0 011.7-1.052c.312-.115.645-.013.885-.165zm-39.355 1.133c.72.266 1.5-.077 2.268.081a3.39 3.39 0 001.214.081 43.919 43.919 0 002.754-.728c.323-.1 1.033-.421 1.376-.243.464.009.622.132.729.485a4.934 4.934 0 01.081 1.782 8.007 8.007 0 00.162 1.458v2.1c.5 2.178.1 4.371.567 6.478a4.014 4.014 0 01-.081 1.3 15.05 15.05 0 00.243 3.725c.214.925-.1 2.547.324 3.239a4.969 4.969 0 01-.243 2.267c-.869-.076-1.009-.714-1.377-1.3-.448-.71-1.027-1.456-1.457-2.187-.2-.348-.2-.709-.4-1.053-1.685-2.838-3.2-6.039-4.616-9.069-.191-.41-.131-.734-.324-1.134a44.6 44.6 0 00-1.7-3.239c-.38-.646-.552-1.427-1.134-1.862.027-.529.218-.5.324-.81v-1.943a5.927 5.927 0 011.293.575zM28.915 161.723c-.51-.317-1.064-.365-1.619-.648-.607-.309-1.213-.876-1.782-1.215-1.469-.876-2.678-1.923-4.049-2.834-.96-.639-1.951-1.052-3-1.62-1.1-.6-2.146-1.425-3.158-2.1-.939-.631-2.944-1.666-3.482-2.591-.178-.307-.476-1.142-.243-1.539.078-1.141 1.457-1.88 2.186-2.429.979-.737 1.706-1.862 2.673-2.591a9.113 9.113 0 002.591-2.754c.632.055 1.357.339 1.862-.081 1.791.063 2.295 3.357 2.916 4.778.42.962.919 2.084 1.3 3.077.284.75.287 1.375.567 2.106.882 2.3 1.879 4.565 2.834 6.883.457 1.108 1 2.3 1.539 3.4.226.464.685.721.729 1.376-.774-.137-1.274-.851-1.861-1.215zM169.437 149.4a13.115 13.115 0 01-.324 3.077v.81c-.248 1.038-.228 2.358-.566 3.4-.541 1.667-.99 3.528-1.539 5.1-.249.713-.233 1.248-.486 1.944-2.692 7.408-5.832 13.118-12.632 16.438-3.349 1.635-9.294 1.676-12.633 0a21.346 21.346 0 01-8.259-7.612 23.455 23.455 0 01-1.458-2.105c-.643-1.25-.976-2.464-1.62-3.725a18.1 18.1 0 01-1.295-3l-.243-1.62v-1.215a3.661 3.661 0 01-.324-1.943 13.162 13.162 0 00.567-2.753c.188-.131.4-.425.567-.324.528.437.418 1.183.728 1.862.76 1.662.991 3.714 1.782 5.426.862 1.867 1.59 3.946 2.591 5.749a27.923 27.923 0 002.106 3.077l1.214 1.134a14.8 14.8 0 003.4 3.239c2.021 1.342 5.57 2.744 8.827 1.782a16.113 16.113 0 004.373-2.106 19.194 19.194 0 006.64-7.369c.8-1.567 1.127-3.423 1.781-5.1 1.241-3.181 2.584-6.09 2.915-10.284a4.982 4.982 0 00-1.376-.081c-.521.317-1.422.012-2.106.162-1.046.228-2.477.018-3.482.242h-1.376a29.978 29.978 0 01-5.588.243c-.5 0-1.068-.134-1.457-.081-1.1.152-3.4 0-5.021 0-3.025 0-6.509.1-8.988.162l-8.179.081c-.726-.2-1-.679-1.458-1.133a2.639 2.639 0 01.891-2.187c.656-.469 2.052-.324 3.158-.324l7.612-.081c.787-.17 1.946.111 2.834-.081a11.293 11.293 0 013.968.081h6.883a26.43 26.43 0 014.94-.162h1.7a19.811 19.811 0 013.644-.243h1.7c.4-.086 1.22-.167 1.539-.242.428-.1.945.129 1.538 0a12.365 12.365 0 012.515-.235zM25.028 182.777a14.573 14.573 0 01-4.7-1.377c-1.473-.546-2.92-.753-4.373-1.376-1.63-.7-3.222-1.344-4.94-2.025-.993-.394-2.086-.7-3.158-1.134a9.68 9.68 0 00-1.619-.647c-.38-.075-.683.174-.972.243a5.045 5.045 0 01-.567 1.133c-.219.185-.529.209-.729.405a5.916 5.916 0 01-2.024-.405 1.48 1.48 0 00-.243-.324 4.41 4.41 0 015.587-4.13 46.951 46.951 0 016.236 2.511c1.089.547 2.283.6 3.4 1.133 1.828.866 3.987 1.571 5.911 2.268 2.363.856 3.952.5 5.1 2.672a2.767 2.767 0 01.4 1.3 4.209 4.209 0 01-2.672 3.239 25.15 25.15 0 01-2.753.567c-4.759 1.424-10.337 2.258-15.143 3.644-2.338.674-4.091 1.127-5.992-.243l-.567-.324c-1.4-1.656-1.495-3.6-.81-5.993.286-.995.128-1.878.567-2.672l.486-.486c.19-.344.121-.733.324-1.052a3.591 3.591 0 012.186-1.458 5.314 5.314 0 01.081 1.458c-.31.49-.143 1.249-.324 1.862-.37 1.255-.649 2.9-.971 4.13a2.14 2.14 0 00.566 2.1c.968.815 2.517.11 3.563-.162.737-.191 1.14-.06 1.863-.243 2.033-.515 3.954-1.19 5.911-1.781.865-.261 1.611-.074 2.51-.324a32.253 32.253 0 004.7-1.458c.765-.355 2.474-.263 3.077-.728.076-.092.074-.132.092-.32zm263.533-7.715a3.929 3.929 0 014.049 2.1c.179.294.638.8.486 1.377-.116.441-.481.574-.567 1.053.715.764.573 2.139.891 3.32.77 2.862 1.705 7.537-1.215 8.745-1.474.61-2.939-.147-4.13-.486-.632-.18-.987-.063-1.619-.243-1.122-.318-2.619-.435-3.887-.728l-1.539-.081c-2.357-.555-4.682-.98-7.126-1.539h-2.1c-2.014-.5-3.74-1.045-4.616-2.672-1.144-2.126.792-4.325 1.944-5.021a9.746 9.746 0 011.619-.567c2.483-.957 5.266-1.8 7.855-2.591 1.4-.428 2.921-.626 4.211-1.053h.486c1.231-.41 2.68-.852 3.887-1.3.431-.146 1.004-.069 1.374-.311zm.81 3.239c.363.131.485.579.648.891a7.256 7.256 0 001.943.324l.081.081c-.2.637-.77 1.168-.972 1.781-.193.589.155.873 0 1.458a9.074 9.074 0 00-.242 1.295c-.111 1.19 1.258 3.416.4 4.535a1.075 1.075 0 01-1.052.243c-.862-.273-2.12-.561-3.077-.81l-.972-.081c-1.324-.4-2.932-.536-4.292-.891l-1.053-.08c-1.14-.311-2.426-.65-3.563-.972-.916-.26-1.637-.093-2.591-.324-1.475-.357-3.122-.585-4.454-.972-.052-.14-.015-.079-.081-.162.069-1.329 3.4-1.838 4.616-2.267 2.781-.984 5.833-1.812 8.746-2.591.658-.177 1.048-.068 1.7-.243.751-.2 1.625-.564 2.349-.81a5.175 5.175 0 001.457-.486.706.706 0 01.412.084zm-48.107-5.175c3.458-.062 6.626 2.329 8.1 4.292a23.84 23.84 0 001.943 2.591 39.582 39.582 0 004.535 3.725c.811.6 1.535 1.426 2.348 2.024 1.364 1 3.223 1.964 3.968 3.563.337.723.1 1.445.324 2.268.487 1.753-.966 7.041-1.619 8.907-.282.806-.277 1.425-.567 2.187-1.321 3.462-2.861 6.81-4.049 10.446l-.081 1.862c-.118.528-.118 1.33-.243 1.863v1.619c-.086.385-.157 1.016-.243 1.377v1.215a16.859 16.859 0 00-.4 2.915 18.648 18.648 0 011.944.728c.934.642.836 2.284.809 3.887a8.617 8.617 0 011.782 2.187 6.038 6.038 0 010 2.591v1.539a14.939 14.939 0 01-.243 3v1.619a17.485 17.485 0 01-.243 3.563l-.162 5.993c-.212.967.153 2.333-.081 3.4a15.067 15.067 0 00-.081 2.753v8.988a19.318 19.318 0 00-.243 4.211 40 40 0 01-.243 1.3l-.081 3.158c-.24 1.089.111 2.49-.162 3.725a22.875 22.875 0 00-.243 4.13v7.531c-.32 1.424-.246 3.241-.566 4.615v.972c-1.434 5.672-2.228 11.318-5.183 15.386a10.868 10.868 0 01-4.778 3.482c-4.427 1.645-9.771-.953-12.47-2.672a61.059 61.059 0 01-7.612-6.4 42.342 42.342 0 01-5.749-5.83l-4.211-4.13-7.936-8.1-7.531-7.53c-1.3-1.3-2.934-2.421-3.806-4.13h-.162v.162c-.349.633.412 2.111.162 3.239-.229 1.033-.074 2.484-.324 3.563l.081.809a12.614 12.614 0 00-.081 3.4 11.775 11.775 0 01.243 3.886 20.493 20.493 0 00-.243 5.993 6.393 6.393 0 01.324 2.915 18.168 18.168 0 00-.486 5.587 9.359 9.359 0 01.243 3.644 13.757 13.757 0 00-.243 2.43v1.538c-.1.455-.136 1.166-.243 1.62v1.457c-.352 1.573-.443 3.245-.809 4.778-.193.809.008 1.7-.162 2.429a4.02 4.02 0 00.081 1.458l.081 2.348a10.887 10.887 0 01.486 3.887c-.286.2-.506.579-.81.729a4.65 4.65 0 01-2.51 0c-1.421-4.13-1.232-10.353-.243-14.819.339-1.532.164-3.25.485-4.7v-1.3a16.492 16.492 0 00.162-4.373 8.651 8.651 0 01-.081-2.834c.611-2.817.154-6.469.162-9.555a20.352 20.352 0 01.324-3.968l-.081-2.511.081-5.263c0-2.93-.334-6.5.243-9.151.218-1-.179-2.175.081-3.077.138-.478.511-.888.648-1.3l.081-.891c.209-.426 1.488-1.8 2.024-1.863.058-.045 0-.116.162-.081v.081c.2.105.056-.034.162.162.34.442.243 1.423.243 2.187 0 1.789-.04 3.6-.162 5.182a1.273 1.273 0 00.405.081c1.17-.926 2.826.188 3.482.81a23.759 23.759 0 012.591 2.834l5.264 5.264c3.674 3.672 7.418 7.26 11.013 11.013 3.1 3.235 6.071 6.716 9.555 9.555.255.207.4.6.648.81 1 .843 1.941 1.724 3 2.51 2.357 1.755 3.962 3.135 7.045 4.292a7.256 7.256 0 004.049.648c5.17-1.21 6.379-6.437 7.936-11.256l.081-.972c.321-1.078.459-2.494.729-3.644v-.972a11.146 11.146 0 00.243-1.862v-1.458c.546-2.432-.08-5.54.485-8.016.132-.577-.028-1.385.081-1.863v-3.32c.187-.642.014-1.829.243-2.834v-1.458c.332-1.477.105-3.851.486-5.506.156-.679-.051-1.607.081-2.187l.081-4.048c.492-2.2-.249-4.49.243-6.641.132-.576-.028-1.384.081-1.862v-2.186c.276-1.232-.222-2.59.081-3.806a2.605 2.605 0 00.162-.729c.008-.375-.108-.884-.081-1.134a112.982 112.982 0 00.4-11.9 5.675 5.675 0 01-1.782-2.429c-.246-.777.06-1.521-.081-2.267h-.162c-1.232-.795-2.343.425-3.158.81a18.752 18.752 0 01-3.482 1.052h-1.214a8.11 8.11 0 01-2.673.081c-2.571-.553-4.83-.713-6.883-1.7a10.41 10.41 0 00-2.591-1.053c-1.052.412-.63 2.614-1.7 2.753l-.081-.243a3.588 3.588 0 01-.162-1.538c0-.247-.259-.574-.162-.972.418-1.721.706-1.939 2.186-2.591.076-1.114.08-2.486.081-3.725l-2.267-2.268c-2.2-2.2-4.435-4.554-4.454-8.907a10.073 10.073 0 01-2.025-.891c-3.043-2.07-4.505-7.617-2.915-12.065a18.543 18.543 0 011.3-2.916c.162-.278.61-.593.729-.89l-.081-.891a13.544 13.544 0 01.405-2.106 10.148 10.148 0 011.295-2.348c.3-.4 1.036-.763 1.3-1.134.208-.3.375-1.815.567-2.267a7.241 7.241 0 015.668-4.7 9.342 9.342 0 015.021-5.182c.542-.188 1.64-.109 2.094-.391zm-8.5 9.231c.263-.232.642-.322.89-.566 1.31.039 2.177.883 3.158 1.3 2.677 1.126 5.248 2.3 7.774 3.563 1.056.528 3.145 1.753 4.049.486.937-1.312-.559-2.286-1.377-2.672l-.485-.081c-2.914-1.616-6.26-2.719-9.151-4.373a2.434 2.434 0 01.567-1.134 3.929 3.929 0 015.668-1.457c2.9 1.8 4.46 5.03 7.126 7.045 1.858 1.4 3.539 3.086 5.426 4.454a19.005 19.005 0 012.429 1.7c.346.381.259 1.386.243 2.1a19.111 19.111 0 01-.81 4.211c-.627 2.061-.9 4.567-1.781 6.478-1.292 2.8-2.82 5.519-3.644 8.746v1.943c-.1.453.042 1.23-.081 1.782-.339 1.517-.192 3.249-.486 4.535-.21.916.005 2.65-.486 3.239-.3.74-1.543 1.026-2.267 1.376-3.692 1.785-8.647.982-11.742-.809 0-1.455.55-4.027-.081-5.426a5.583 5.583 0 00-1.862-1.862 17.219 17.219 0 01-3.32-3.563 11.007 11.007 0 01-1.215-2.349c-.175-.452-.08-1.008-.324-1.376.023-1.115.722-.973.972-1.782.26-.843-.484-1.056-.324-1.781.286-1.295.962-2.784.891-4.13-.188.018-.229.016-.324.081-.74.082-2.315 1.919-2.673 2.51-.258.428-.346 1.031-.566 1.458-1.323-.057-1.876-.935-2.43-1.782-2.239-3.421-1.1-8.129 1.3-10.608a12.9 12.9 0 013.239 1.377c.4.2.72.139 1.134.324 1.728.773 3.709 1.438 5.425 2.267.96.464 2.969 1.124 3.4-.243a2.887 2.887 0 00.081-1.214l-.405-.567a11.055 11.055 0 00-2.591-.972c-1.315-.531-2.846-1.166-4.13-1.782-.607-.291-1.166-.279-1.781-.566-.993-.464-2.676-1.556-3.968-1.539l-.081-.081c.047-1.529 1.179-1.963 1.862-2.834 1.241-.061 2.071.587 3.077.972 1.976.754 4.031 1.3 5.912 2.1.879.378 2.41.423 3.077.972 1.185.014 1.263-.333 1.862-.81.034-.316.173-.714 0-.972-.119-1.268-1.871-1.338-2.915-1.7a157.045 157.045 0 01-5.749-2.106c-.437-.172-.788-.124-1.215-.324a8.544 8.544 0 00-2.753-1.052 4.194 4.194 0 011.456-2.503zm-174.749-2.186c-.209.547-2.577 1.326-3.239 1.62-1.579.7-3.251 1.575-4.778 2.348-.685.346-1.388.418-2.024.81-.311.191-.366.669-.648.89a1.557 1.557 0 00.243 1.134c.181.524.657.512 1.052.81 1.652-.116 2.973-1.306 4.292-1.863 2.273-.958 4.431-1.831 6.64-2.915.854-.419 1.809-1.217 3-1.214.408.406 1.029.585 1.377 1.052a9.55 9.55 0 00.972 1.539c-.017.264.006.471-.162.567h-.486c-.225.083-.6.38-.81.486-.593.3-1.157.325-1.781.566-1.809.7-3.826 1.449-5.669 2.106a17.577 17.577 0 00-3.158.971c-.228.139-.345.487-.567.648-.033.316-.173.715 0 .972.07.74.551.766.972 1.134a10.415 10.415 0 004.049-1.134c1.749-.7 3.458-.993 5.182-1.7.54-.222 2.976-1.43 3.4-1.215 1.4.135 1.617 1.672 2.267 2.591-.177.451-.259.164-.729.324a18.473 18.473 0 00-2.024.972l-.567.081c-1.672.766-3.573 1.519-5.264 2.267-.449.2-.768.12-1.214.324-.637.29-1.466.682-2.106.972l-.486.081-.566.567a2.723 2.723 0 00-.081.809c.008.892.45.893.809 1.377a9.082 9.082 0 004.211-1.3c1.72-.8 3.462-1.205 5.183-1.943.456-.2 2.8-1.361 3.077-1.215 1.094.212 1.425 1.909 1.781 2.915a15.336 15.336 0 01.891 3.563c.16 1.594-1.487 4.725-2.348 5.345-.457.329-1.144.28-1.62.567a1.184 1.184 0 01-.324-.081c-.252-1.181-1.079-3.876-1.862-4.454v-.081a.679.679 0 00-.405.486c-.269.427-.12 1.259-.243 1.781a6.857 6.857 0 00.081 2.916l-.081.566a19.783 19.783 0 01-.324 3.239v.486c-.8 1.954-2.87 3.761-4.292 5.183a7.463 7.463 0 00-1.943 2.267c-.544 1.427-.08 3.77-.243 5.345-1.509.7-5.115 2.01-7.369 1.538l-1.863-.081a12.8 12.8 0 01-3.563-1.538 34.561 34.561 0 00-.809-6.883v-.972c-.241-.967-.223-2.428-.567-3.4-.659-1.866-1.465-3.771-2.267-5.507-.692-1.495-1.023-2.98-1.62-4.534-.7-1.814-1.523-3.78-2.267-5.588-.266-.644-.194-1.2-.4-1.862a8.172 8.172 0 01-.405-3.644c.427-1.576 3.478-3.112 4.777-4.049 2.147-1.547 4.2-3.262 6.317-4.859l1.052-1.133c1.19-.9 2.174-2.057 3.4-2.915a7.8 7.8 0 011.7-.891c.255-.093.676-.034.891-.162 1.548.006 3.711 1.694 3.559 2.921zm172.562 80.653c.01-2.849-.243-5.2-.243-8.016 0-2.709.179-5.8-.324-7.936v-5.419c-.165-.922.168-2.132.081-2.915-.239-2.149-.2-4.76.729-5.992.548-.725 2.727-1.767 4.13-1.134.569.257 1.272.691 1.862.972a25.41 25.41 0 003.644 1.053c1.377.391 2.948.258 4.292.566.909.209 1.737-.313 2.429-.242a14.182 14.182 0 011.944.242l1.7-.081c.684.162 1.493.391 2.187.567a1.275 1.275 0 01.081.405 11.98 11.98 0 01-2.349 1.377c-3.319 1.22-10.258.636-13.361-.486-1.1-.4-2.736-.739-3.482-1.458l-.729.243c-.526 1.17.157 3.364.162 4.859.012 3.254-.356 6.933.4 10.122v1.3c0 1.605-.162 2.94-.162 4.615v1.458a14.555 14.555 0 01.324 5.668c-.246 1.045.088 2.447-.081 3.4-.152.862.257 2.1 0 3.24-.453 2.008-.32 4.192-.729 5.911-.257 1.086.008 2.3-.242 3.4-.411 1.8-.375 3.982-.81 5.749-.445 1.806.185 3.7-2.025 3.725-.461-.43-1.38-.4-1.619-1.052-.492-.672.043-1.866.243-2.592.264-.963.021-1.777.243-2.753.365-1.61.136-3.529.566-5.182.811-3.116.787-5.979 1.053-9.556l-.162-.162c-.313.138-1.18.453-1.619.162-.94-.357-1.144-1.505-1.62-2.348-.242-.43-.719-.871-.972-1.3-.316-.532-.493-1.006-.809-1.538-.938-1.579-2.112-3.124-3.077-4.7-.563-.917-.866-1.868-1.377-2.834-.418-.79-1.088-1.591-1.539-2.349-1.281-2.156-2.51-4.235-3.887-6.316a121.52 121.52 0 00-3.644-5.182c-.923-1.244-2.167-2.3-3.077-3.563a46.32 46.32 0 00-3.077-4.049 8.663 8.663 0 00-.81-1.053 56.675 56.675 0 00-7.53-5.02c-.763-.432-1.481-1.125-2.268-1.539-1.011-.532-2.033-.769-3.077-1.3a106.5 106.5 0 00-9.96-4.13c-1.548-.587-3.124-.994-4.616-1.538a10.785 10.785 0 01-1.376-.324l-.567-.567c-.891-.642-1.655-1.389-2.511-2.024-1.158-.859-2.628-1.6-3.482-2.754-.242-.326-.322-.715-.566-1.052-.188-.259-.617-.381-.81-.648-.33-.456-1.383-2.85-.972-3.4.1-.065.136-.063.324-.081a18.5 18.5 0 002.186 1.3c1.5 1 2.9 2.237 4.373 3.32.8.584 1.533 1.259 2.348 1.862.484.358.942.986 1.539 1.215.916.351 1.834.239 2.753.567 2.989 1.064 5.879 2.486 8.746 3.644 2.294.926 4.776 1.447 6.883 2.591 1.993 1.082 3.962 2.409 5.83 3.644 1.522 1.006 3.187 1.757 4.616 2.834 1.771 1.335 2.721 3.632 4.049 5.426.637.861 1.628 1.5 2.267 2.348.826 1.091 1.829 2.106 2.591 3.239 1.426 2.12 2.794 4.175 4.211 6.316.543.82 1.3 1.657 1.782 2.51.6 1.065 1.04 2.065 1.619 3.159 1.021 1.928 2.411 3.82 3.563 5.668.97 1.555 1.847 3.122 2.834 4.616.294.435.363 1.196.978 1.295zm-92.314 3c.168-.031.156-.02.243-.081.316-.495.083-1.168.243-1.863.27-1.174.29-2.652.567-3.887v-2.024c.49-2.279.632-5.327 1.215-7.774.18-.758.117-1.542.242-2.025.31-1.189-.036-2.5.243-3.724l.081-1.7c.223-.933.415-2.058.648-3a4.588 4.588 0 00.162-1.944c-.241-.7-1.127-1.329-1.538-1.943a54.624 54.624 0 01-2.673-5.1 11.994 11.994 0 01-1.538-2.672c-.694.058-2.806 1.592-3.4 2.025-.405.293-.457.651-1.134.728-.809-.66-1.777-1.393-1.62-2.753 1.179-.39 2.668-1.914 3.725-2.591.631-.4 1.327-.513 2.025-.891.589-.319 1.209-.878 1.781-1.215 1.145-.672 2.255-1.194 3.4-1.862 1.946-1.134 3.017-2.7 5.669-3.32a2.7 2.7 0 011.538.405 17.852 17.852 0 013 1.619c3.907 2.611 7.61 5.549 11.336 8.341a3.529 3.529 0 01.81 4.049c-.142-.051-.079-.016-.162-.081a4.378 4.378 0 01-1.457-.972 33.208 33.208 0 00-3.806-2.834c-.345-.189-.486-.48-.972-.567-.083.065-.022.029-.162.081-.174.761-.789 1.2-1.134 1.782-.323.541-.4 1.155-.729 1.7-.406.677-1.161 1.228-1.619 1.863a16.207 16.207 0 00-1.053 2.1c-.154.3-.6.616-.729.891v1.538c.338.574.057 1.462.243 2.187.277 1.075.63 2.3.972 3.32.284.851.074 1.586.324 2.51.3 1.115.254 2.468.567 3.725 1.318 5.3.883 11.366 2.1 16.681h.162v-.162a16.99 16.99 0 00.891-3 426.77 426.77 0 001.781-5.1v-.486c.133-.381.439-.974.567-1.377.148-.464.056-.761.243-1.215.993-2.4 1.45-5.058 2.349-7.611 1.777-5.051 3.058-10.381 4.858-15.386.308-.857.278-1.711.648-2.51.416-.9.721-1.889 1.215-2.754.135-.237.449-.55.567-.809.325-.718.356-1.465.728-2.106a18.453 18.453 0 011.3-1.619c.518-.7.888-1.716 1.862-1.944.349.718-.451 3.471-.728 4.292-1.2 3.557-2 7.255-3.239 10.689-1 2.779-1.752 5.67-2.592 8.5-.453 1.528-.531 2.919-1.052 4.372-1.811 5.051-3.55 10.3-5.183 15.467-.622 1.97-.91 3.845-1.539 5.83a80.018 80.018 0 01-3.4 9.232c-.257.559-.262 1.06-.485 1.619-.737 1.842-1.629 3.823-2.349 5.669a26.977 26.977 0 01-1.781 4.13c-.539.9-1.7 2.915-3.482 2.429-1.491-.407-2.106-1.573-2.835-2.753-1.785-2.891-2.765-6.572-4.129-9.879-.749-1.814-1.863-3.642-2.592-5.507-2.459-6.293-4.2-13-6.478-19.434l-.081-.729c-.322-.882-.7-2-.972-2.915-.193-.644-.11-1.073-.323-1.7-1.352-3.974-2.21-8.237-3.563-12.147-.29-.835-.277-1.509-.567-2.348-1.287-3.72-2.115-7.879-3.563-11.5-.438-1.092-.7-3.88.729-4.049.4.245 1.159.066 1.538.324 1.055.382 1.191 1.925 1.539 3.077.649 2.151 1.279 4.487 2.024 6.56.2.564.121.946.324 1.538 2.379 6.931 3.98 14.639 6.235 21.783a196.518 196.518 0 001.539 4.616c.369 1.072.429 2 .81 3.077a26.371 26.371 0 011.617 5.114zm12.471-42.028c.766.57 1.661.857 2.51 1.377.516.316.989.78 1.538 1.053-.082.532-.247.274-.485.566s-.274.734-.486 1.053c-.183.274-.562.528-.729.81-.8 1.348-1.555 2.564-2.348 3.887-.46.767-1.21 1.505-1.7 2.267h-2.348a5.944 5.944 0 01-1.134.243c-.484.02-1.189.222-1.538 0-.791-.152-1.084-1.263-1.458-1.862-.493-.791-1.1-1.684-1.539-2.511-.342-.647-.367-1.4-.728-2.024a11.053 11.053 0 01-1.3-2.024c-.065-.084-.03-.02-.081-.162 1.6-1.018 3.267-1.929 4.859-3 .615-.413 1.036-1.117 1.619-1.538.292-.211.69-.267.972-.486 1.998.141 3.147 1.439 4.377 2.351zm-11.985 70.127h-.324c-.4-.644-1.047-1.218-1.457-1.863-1.589-2.493-2.812-5.127-4.211-7.774-.887-1.677-2.166-3.168-3.077-4.777-1.158-2.044-2.014-4.1-3.159-6.155-1.4-2.506-3.134-4.8-4.615-7.207-.83-1.35-1.33-2.8-2.106-4.21-.29-.527-.762-1.089-1.052-1.62a24.255 24.255 0 00-1.3-2.348c-.493-.706-1.144-1.385-1.62-2.106-.551-.835-.78-1.791-1.3-2.672-.771-1.318-1.3-2.9-2.106-4.211-.6-.974-1.4-1.885-2.024-2.834a25.221 25.221 0 01-1.539-3c-.38-.787-1.832-2.849-1.538-4.049.441-1.8 2.638-3.611 3.968-4.616l1.538-1.538c.235-.2.54-.231.729-.486-1.539-.8-3.648-.826-5.1-1.7-.548-.329-.706-.936-1.134-1.376-.051-2.772 2.192-4.233 3.4-5.831.459-.606 1.058-1.726 2.024-1.781.287-.191.774-.028 1.134 0a3.323 3.323 0 01.81 2.024c-.262.238-.32.718-.567.972-.79.813-2.617 2.338-3 3.4l.162.081c.259.173.545.128.89.243 1.675.557 5.493 1.2 5.75 3-.115.191 0 .31 0 .486a3.218 3.218 0 01-.486 1.134 10.969 10.969 0 01-2.024 1.943c-.607.551-1.127 1.286-1.782 1.782a18.722 18.722 0 00-2.915 2.672c-.113.389.291.753.4.972.446.856.826 1.666 1.3 2.429 1.853 3.008 3.563 6.2 5.264 9.312 1.322 2.416 2.677 4.7 4.13 6.964 1.061 1.658 1.656 3.558 2.672 5.264 3.06 5.139 6.129 10.338 9.069 15.629.448.805 1.108 1.612 1.539 2.429.415.787.642 1.491 1.053 2.267.536 1.014 1.312 1.966 1.781 3.077.221.522.117 1.01.324 1.62.086.253.391.559.486.81a8.742 8.742 0 01.014 3.644zm45.185-70.613c1.4.02 1.979 1.041 2.592 1.863l1.052.972a21.4 21.4 0 011.539 2.186l.324.324a3.489 3.489 0 01.162 2.186c-.708 2.08-4.774 3.007-7.045 3.4v.243c.5.32.835.866 1.3 1.215a26.242 26.242 0 013.32 3.158c.348.375 1.167 1.113.891 2.025a25.228 25.228 0 01-2.267 4.372c-.818 1.561-1.3 3.2-2.187 4.7-1.259 2.124-2.618 4.3-3.806 6.478-.849 1.558-1.5 3.136-2.348 4.7-1.021 1.873-2.349 3.622-3.4 5.425-1.157 1.985-2.153 4.011-3.32 5.912-1.73 2.818-3.152 5.784-4.94 8.5-.553.842-.85 1.732-1.376 2.592-.756 1.234-1.67 2.422-2.43 3.644a24.393 24.393 0 01-1.943 3.077c-.226.266-.634.407-.891.647a4.481 4.481 0 00-.405.648 5.594 5.594 0 01-3.32 1.7 1.5 1.5 0 01-.081-.486 4.945 4.945 0 00.567-1.134c.4-.754.82-1.545 1.3-2.267 1.726-2.619 3.5-5.307 5.1-8.017.393-.663.534-1.344.891-2.024a31.913 31.913 0 011.782-2.673c1.264-1.905 2.406-3.957 3.563-5.911 1.047-1.769 1.694-3.712 2.672-5.506.416-.765 1.059-1.545 1.538-2.268.853-1.284 1.606-2.725 2.349-4.049a29.422 29.422 0 001.295-3.158 18.8 18.8 0 011.539-2.51 39.039 39.039 0 002.915-4.778 41.872 41.872 0 012.106-4.777c.415-.706.812-1.413 1.214-2.187.1-.2.463-.55.324-.728-.2-.529-.895-.859-1.3-1.215-1.319-1.173-4.419-3.637-4.939-5.345-.139-.454.116-.856.162-1.214.259-.167.335-.474.567-.648a7.758 7.758 0 011.214-.729 9.107 9.107 0 011.053-.243c.969-.329 2.129-.7 3.077-1.053.605-.223 1.592-.184 1.7-.89a15.118 15.118 0 01-1.458-1.782c-.628-.83-1.884-1.2-2.186-2.348-.115-.439.115-.779.162-1.134a11.765 11.765 0 001.373-.893zm-35.629 14.743l.081.081c.584 1.459.354 3.525.81 5.1.384 1.327.63 2.888.972 4.292s.257 2.951.567 4.291v.972c.2.863.283 2.134.485 3v.972c.263 1.135.23 2.21.486 3.32.3 1.281-.041 2.763.243 3.968.559 2.367.473 4.822 1.053 7.207a10.33 10.33 0 01.324 2.834c-.231.728-.77 1.565-1.053 2.268-.461 1.148-.84 2.268-1.3 3.32v.405c-.1.262-.385.629-.486.89-.175.449-.121.769-.324 1.215-.869 1.905-1.607 4.024-2.591 5.83-.732-.191-.987-1.462-1.3-2.1-.8-1.656-1.578-3.544-2.348-5.264-.277-.617-.306-1.161-.567-1.781-.8-1.906-1.579-3.824-2.349-5.831a15.274 15.274 0 01-.89-2.024c-.094-.435.318-.793.405-1.134v-.647c.08-.234.394-.565.485-.81a16.855 16.855 0 00.405-2.268l.162-2.429c1.034-4.315.744-9.427 1.782-13.766v-.891c.185-.817.1-1.738.324-2.672.429-1.791.541-3.933.971-5.587.191-.733-.02-1.532.324-2.106a.938.938 0 01.162-.567c.9.1 2.073.483 2.834-.081zm-1.214 65.916a6.484 6.484 0 015.992 3c.591.885.931 1.046.648 2.429-.057.278.117.275 0 .486a2.047 2.047 0 01-1.134 1.134l.081.081a6.71 6.71 0 001.539.405 1.653 1.653 0 01.243.728 5.945 5.945 0 00-.4 1.377 7.138 7.138 0 01-1.863 2.753c-3.377 2.7-8.982.944-10.77-1.943a8.676 8.676 0 01-.567-6.073 8.565 8.565 0 013.482-3.644 9.119 9.119 0 011.539-.567c.452-.135.881.037 1.21-.171zm4.129 5.263c.276.518.144 1.262.567 1.62-.082.643-.366.3-.647.648l-.162.971a4.248 4.248 0 01-1.215 1.539c-2.185 1.5-4.515-.5-5.83-1.377-.041-.5.079-1.516 0-1.781a1.736 1.736 0 01-.243-1.215 7.88 7.88 0 012.429-2.591c.194-.1.412-.056.567-.162 2.284-.016 3.742.852 4.534 2.343z" fill="#231815" fill-rule="evenodd"/></g></g></svg>