<svg xmlns="http://www.w3.org/2000/svg" width="591.851" height="199.321" viewBox="0 0 591.851 199.321">
  <g id="グループ_395" data-name="グループ 395" transform="translate(-364.999 -1528.502)">
    <g id="グループ_148" data-name="グループ 148">
      <path id="パス_595" data-name="パス 595" d="M836.189,1720.562a16.239,16.239,0,0,0,1.961-4.076h-7.592v-1.163h8.236l.939.547a22.638,22.638,0,0,1-2.549,5.407,32.349,32.349,0,0,1,3.151,2.493l-.924.911a24.43,24.43,0,0,0-2.928-2.466,13.057,13.057,0,0,1-5.462,4.077l-.813-1.037a12.215,12.215,0,0,0,5.28-3.754,39.566,39.566,0,0,0-3.7-2.325l.714-.911A42.983,42.983,0,0,1,836.189,1720.562Z" fill="#231815"/>
      <path id="パス_596" data-name="パス 596" d="M849.151,1724.12v-6.779h-3.893v-1.163h9.23v1.163h-4.034v6.779h5.085v1.191H844.207v-1.191Z" fill="#231815"/>
      <path id="パス_597" data-name="パス 597" d="M862.773,1720.52a15.456,15.456,0,0,1-3.053,4.245l-.981-.7a12.629,12.629,0,0,0,2.914-3.992Zm8.124-2.213h-5.154v6.051c0,1.387-.518,1.934-1.863,1.934a16.388,16.388,0,0,1-1.709-.1V1725a8.432,8.432,0,0,0,1.4.1c.714,0,.9-.252.9-.883v-5.911h-5.114v-1.162h5.114v-2.886h1.274v2.886H870.9Zm-2.436,1.639a24.1,24.1,0,0,1,2.983,4.048l-1.106.631a18.815,18.815,0,0,0-2.9-4.063Zm.069-5.505a10.359,10.359,0,0,1,1.471,1.765l-.56.434a9.208,9.208,0,0,0-1.443-1.751Zm1.5-.868a10.557,10.557,0,0,1,1.486,1.75l-.575.435a9.028,9.028,0,0,0-1.443-1.737Z" fill="#231815"/>
      <path id="パス_598" data-name="パス 598" d="M878.972,1716.36a24.049,24.049,0,0,1-3.643,9.329l-1.177-.644a20.614,20.614,0,0,0,3.544-8.951Zm7.717,8.671-1.3.406a33.68,33.68,0,0,0-3.754-9.119l1.177-.518A41.084,41.084,0,0,1,886.689,1725.031Zm.351-9.539a1.548,1.548,0,1,1,0-.014Zm-2.62,0a1.085,1.085,0,0,0,1.079,1.064,1.086,1.086,0,1,0-1.079-1.078Z" fill="#231815"/>
      <path id="パス_599" data-name="パス 599" d="M890.787,1718.643a14.257,14.257,0,0,1,1.3,2.886l-.981.406a12.278,12.278,0,0,0-1.289-2.857Zm7.34-.042a9.849,9.849,0,0,1-5.715,7.662l-.715-.966a8.317,8.317,0,0,0,5.295-6.934Zm-4.665-.532a16.13,16.13,0,0,1,1.177,2.928l-.994.406a13.242,13.242,0,0,0-1.149-2.942Z" fill="#231815"/>
      <path id="パス_600" data-name="パス 600" d="M910.979,1716.416l.91.434c-1.065,4.623-3.4,7.746-7.606,9.5l-.827-1.022a10.436,10.436,0,0,0,6.893-7.8h-4.623a17.136,17.136,0,0,1-3.362,3.824l-.953-.785a16.591,16.591,0,0,0,4.721-6.331l1.177.42a16.165,16.165,0,0,1-.9,1.765Z" fill="#231815"/>
    </g>
    <g id="グループ_149" data-name="グループ 149">
      <path id="パス_601" data-name="パス 601" d="M719.949,1572.414H365L560.052,1528.5H915Z" fill="#f2e10a"/>
      <path id="パス_602" data-name="パス 602" d="M719.949,1727.823H365L560.052,1683.9H915Z" fill="#f2e10a"/>
      <path id="パス_603" data-name="パス 603" d="M413.144,1637.476l-27.462-39.663H365.076v71.151h20.583v-39.873l27.319,39.873h20.709v-71.151H413.144Z" fill="#040000"/>
      <path id="パス_604" data-name="パス 604" d="M485.943,1642.763c0,3.963-1.076,7.014-3.239,9.177s-5.22,3.227-9.018,3.227c-3.831,0-6.911-1.086-9.073-3.282s-3.228-5.225-3.228-9.122v-44.952H439.364v41.372a45.869,45.869,0,0,0,2.053,12.571,22.768,22.768,0,0,0,4.687,8.233,25.74,25.74,0,0,0,7.586,6.148,29.53,29.53,0,0,0,10.286,3.311,98.133,98.133,0,0,0,11.384.724,44.442,44.442,0,0,0,15.434-2.382,24.7,24.7,0,0,0,8.838-5.906,25.9,25.9,0,0,0,6.191-9.836,35.754,35.754,0,0,0,1.965-11.955v-42.28H485.943Z" fill="#040000"/>
      <path id="パス_605" data-name="パス 605" d="M624.869,1597.809l-15.945,51.8-17.227-51.8H513.651v71.151h59.7v-15.923H535.43v-14.569h34.905v-15.877H535.43v-8.969h37.925V1608.3h.5L596.6,1668.96h23l26.758-71.151Z" fill="#040000"/>
      <path id="パス_606" data-name="パス 606" d="M675.96,1596.339c-11.6,0-20.461,3.249-26.961,9.748s-9.737,15.566-9.737,27.224q0,12.516,4.908,20.847A30.148,30.148,0,0,0,657,1666.332c5.281,2.558,11.779,3.843,19.837,3.843,7.915,0,14.369-1.482,19.671-4.457a30.073,30.073,0,0,0,12.185-12.46q4.2-8.019,4.205-20.539,0-17.225-9.638-26.8c-6.423-6.389-15.424-9.583-27.3-9.583m11.154,53.529c-2.6,3.085-6.269,4.7-11.011,4.7a13.657,13.657,0,0,1-10.934-4.8c-2.667-3.151-4.43-9.157-4.43-16.359,0-7.278,1.763-13.307,4.453-16.457a13.453,13.453,0,0,1,10.725-4.814,13.975,13.975,0,0,1,11.021,4.737c2.712,3.1,4.4,8.839,4.4,15.557,0,7.992-1.625,14.35-4.227,17.435" fill="#040000"/>
      <path id="パス_607" data-name="パス 607" d="M775.385,1621.137c0-7.026-2.977-13.83-6.963-17.628s-10.7-5.7-18.691-5.7H714.8v71.141h21.586V1645.6h11.5q13.338,0,19.837-6.081A26.3,26.3,0,0,0,775.385,1621.137Zm-24.063,6.218c-1.713,1.482-4.71,2.218-8.958,2.218h-5.979v-15.929h6.857c4.117,0,6.938.78,8.42,2.338a7.931,7.931,0,0,1,2.24,5.7,7.143,7.143,0,0,1-2.58,5.675" fill="#040000"/>
      <path id="パス_608" data-name="パス 608" d="M886.565,1624.511l26.05-26.7h-28.6l-23.84,27.478v-27.478H838.11v63.829L813.7,1597.808H789.631l-26.417,71.151h22.114l3.48-11.79h25.04l3.579,11.79h42.748V1651.95l12.22-13.264,15.463,30.273H913.79Zm-92.97,15.586,7.805-24.854,7.871,24.854Z" fill="#040000"/>
      <path id="パス_609" data-name="パス 609" d="M921.777,1566.931H915.3v-3.994H935v3.994h-8.475v17.606h-4.749Z" fill="#231815"/>
      <path id="パス_610" data-name="パス 610" d="M933.585,1562.937h6.687l5.052,14.854h.06l4.78-14.854h6.686v21.6H952.4v-15.308h-.06l-5.294,15.308h-3.66l-5.295-15.156h-.06v15.156h-4.448Z" fill="#231815"/>
    </g>
  </g>
</svg>
