<svg xmlns="http://www.w3.org/2000/svg" width="304.883" height="62.83" viewBox="0 0 304.883 62.83">
  <g id="グループ_310" data-name="グループ 310" transform="translate(-747.872 -10877.004)">
    <path id="パス_3342" data-name="パス 3342" d="M769.871,10906.923,749.632,10877h16.015l12.32,20.063,12.76-20.063h15.135l-20.151,30.007,21.911,32.823H791.166l-13.728-21.735-13.991,21.735H747.872Z"/>
    <path id="パス_3343" data-name="パス 3343" d="M811.495,10905.443h26.486v10.735H811.495Z"/>
    <path id="パス_3344" data-name="パス 3344" d="M848.454,10877h44.175v11.615H862.27v14.52h26.311v10.736H862.27v25.959H848.454Z"/>
    <path id="パス_3345" data-name="パス 3345" d="M911.9,10887.3h-12.5V10877h12.5Zm-12.5,7.041h12.5v45.494h-12.5Z"/>
    <path id="パス_3346" data-name="パス 3346" d="M921.845,10877h12.5v62.83h-12.5Z"/>
    <path id="パス_3347" data-name="パス 3347" d="M944.284,10877h12.5v62.83h-12.5Z"/>
    <path id="パス_3348" data-name="パス 3348" d="M966.161,10880.191H961.88v-2.641h11.7v2.641H969.3v11.643h-3.141Z"/>
    <path id="パス_3349" data-name="パス 3349" d="M975.16,10877.551h4.421l3.341,9.822h.04l3.161-9.822h4.421v14.283H987.6v-10.122h-.041l-3.5,10.122h-2.42l-3.5-10.021h-.04v10.021H975.16Z"/>
    <path id="パス_3350" data-name="パス 3350" d="M1015.092,10877h14.167l23.5,62.83h-14.344l-4.752-13.992h-23.5l-4.928,13.992H991.244Zm-1.321,38.543h16.28l-7.919-23.056h-.177Z"/>
  </g>
</svg>
