<svg xmlns="http://www.w3.org/2000/svg" width="338.152" height="64.063" viewBox="0 0 338.152 64.063">
  <g id="グループ_396" data-name="グループ 396" transform="translate(-210.242 -10877.004)">
    <g id="グループ_308" data-name="グループ 308">
      <path id="パス_3328" data-name="パス 3328" d="M232.241,10906.923,212,10877h16.016l12.319,20.063L253.1,10877h15.135l-20.151,30.007,21.911,32.823H253.537l-13.728-21.735-13.992,21.735H210.242Z"/>
      <path id="パス_3329" data-name="パス 3329" d="M273.865,10905.443h26.487v10.735H273.865Z"/>
      <path id="パス_3330" data-name="パス 3330" d="M310.825,10877h28.336c15.751,0,21.735,9.943,21.735,20.151s-5.984,20.151-21.735,20.151h-14.52v22.527H310.825Zm13.816,29.566h10.735c6.336,0,12.144-1.407,12.144-9.415s-5.808-9.416-12.144-9.416H324.641Z"/>
      <path id="パス_3331" data-name="パス 3331" d="M367.409,10908.331c.7-11.616,11.175-15.224,21.383-15.224,9.063,0,19.975,2.023,19.975,12.936v23.672c0,4.135.441,8.271,1.584,10.119H397.68a18.591,18.591,0,0,1-.88-4.4c-3.96,4.137-9.68,5.633-15.312,5.633-8.712,0-15.488-4.312-15.488-13.641.176-20.679,30.8-9.592,30.271-19.8,0-5.279-3.7-6.16-8.1-6.16-4.84,0-7.832,1.936-8.272,6.864Zm28.862,9.239c-2.111,1.848-6.511,1.936-10.383,2.641s-7.392,2.111-7.392,6.688,3.608,5.808,7.656,5.808c9.767,0,10.119-7.655,10.119-10.472Z"/>
      <path id="パス_3332" data-name="パス 3332" d="M450.654,10934.026h-.176c-2.9,4.928-7.92,7.04-13.815,7.04-13.728,0-20.416-11.7-20.416-24.376,0-12.231,6.776-23.583,20.152-23.583,5.367,0,10.647,2.289,13.463,6.775h.176V10877h12.5v62.83h-11.88Zm-10.911-31.5c-8.184,0-11,7.127-11,14.52,0,7.127,3.256,14.607,11,14.607,8.183,0,10.735-7.216,10.735-14.7C450.478,10909.563,447.838,10902.523,439.743,10902.523Z"/>
      <path id="パス_3333" data-name="パス 3333" d="M498.086,10907.906H515.6v9.416H498.086v17.512H488.67v-17.512H471.159v-9.416H488.67v-17.51h9.416Z"/>
      <path id="パス_3334" data-name="パス 3334" d="M524.011,10880.191H519.73v-2.641h11.7v2.641h-4.281v11.643h-3.141Z"/>
      <path id="パス_3335" data-name="パス 3335" d="M533.01,10877.551h4.421l3.34,9.822h.041l3.161-9.822h4.421v14.283h-2.941v-10.122h-.04l-3.5,10.122h-2.421l-3.5-10.021h-.04v10.021H533.01Z"/>
    </g>
  </g>
</svg>
