<svg xmlns="http://www.w3.org/2000/svg" width="297.938" height="221.5" viewBox="0 0 297.938 221.5">
  <g id="グループ_401" data-name="グループ 401" transform="translate(-150.395 -4392.766)">
    <g id="グループ_400" data-name="グループ 400">
      <path id="パス_2908" data-name="パス 2908" d="M381.091,4581.932l-170.409,19.147a25,25,0,0,1-27.154-19.235L159.278,4476.5a25,25,0,0,1,25.213-30.594l200.975,6.834a25,25,0,0,1,24.071,26.969l-6.316,79.363A25,25,0,0,1,381.091,4581.932Z" fill="#f2e10a"/>
      <g id="グループ_258" data-name="グループ 258">
        <g id="グループ_256" data-name="グループ 256">
          <path id="パス_2909" data-name="パス 2909" d="M426.742,4420.28l-2.686-5.473a4.619,4.619,0,0,0-5.726-2.316l-.05.016-8.744,2.283-10.043-20.463a2.774,2.774,0,0,0-1.6-1.412,2.791,2.791,0,0,0-3.406,3.871l.291.593-26.038,29.144a6.2,6.2,0,0,1-1.9,1.444l-15.031,7.377a2.415,2.415,0,0,0-1.1,3.229l.137.28-4.556,2.236a13.728,13.728,0,0,0,7.765,25.939h0a13.747,13.747,0,0,0,4.326-1.3l4.556-2.236.139.283a2.412,2.412,0,0,0,3.228,1.1l2.8-1.372,9.1,18.547a5.194,5.194,0,0,0,5.3,2.861,5.209,5.209,0,0,0,1.629-.489l.046-.023a5.2,5.2,0,0,0,2.33-6.917l-9.1-18.547,2.926-1.437a6.2,6.2,0,0,1,1.957-.588c.116-.015.232-.026.351-.034l38.982-2.768.291.592a2.791,2.791,0,1,0,5.01-2.459l-10.043-20.463,7.232-5.571A4.617,4.617,0,0,0,426.742,4420.28Z" fill="#f2e10a"/>
        </g>
        <g id="グループ_257" data-name="グループ 257">
          <path id="パス_2910" data-name="パス 2910" d="M431.473,4418.074a5.616,5.616,0,0,0-6.948-2.821l-7.931,2.071L406.91,4397.6a3.79,3.79,0,0,0-6.811,3.327l-25.589,28.643a5.216,5.216,0,0,1-1.6,1.213l-15.029,7.376a3.422,3.422,0,0,0-1.8,3.92l-3.721,1.826a14.722,14.722,0,1,0,12.973,26.432l3.721-1.827a3.416,3.416,0,0,0,3.257,1.278,3.438,3.438,0,0,0,.946-.305l1.9-.931,8.664,17.65a6.184,6.184,0,0,0,11.1-5.449l-8.664-17.651,2.029-1a5.2,5.2,0,0,1,1.938-.523l38.311-2.72a3.791,3.791,0,0,0,6.8-3.353l-9.684-19.729,6.49-5.007a5.614,5.614,0,0,0,2.019-7.223Zm-67.242,50.014a12.222,12.222,0,1,1-10.77-21.944l3.658-1.795,10.77,21.943Zm28.444,13.761a3.684,3.684,0,0,1-6.614,3.247l-8.663-17.651,6.614-3.246Zm40.477-24.255a1.291,1.291,0,0,1-2.38.151l-8.563-17.446a1.25,1.25,0,0,0-2.244,1.1l7.38,15.037-37.3,2.648a7.683,7.683,0,0,0-2.861.772l-15.03,7.377a.912.912,0,0,1-1.222-.417l-8.993-18.323-3.374-6.875a.914.914,0,0,1,.418-1.22l15.03-7.377.014-.008,10,20.385a1.25,1.25,0,0,0,2.245-1.1l-10.194-20.77c.1-.1.2-.193.292-.3l24.913-27.885,5.89,12a1.25,1.25,0,0,0,2.245-1.1l-7.073-14.411a1.291,1.291,0,0,1,2.317-1.137l28.424,57.912A1.285,1.285,0,0,1,433.152,4457.594Zm-2.39-28.91-6.235,4.8-6.809-13.873,7.5-1.957.119-.037a3.119,3.119,0,0,1,3.9,1.556l2.686,5.473A3.122,3.122,0,0,1,430.762,4428.684Z" fill="#16429c"/>
          <path id="パス_2911" data-name="パス 2911" d="M447.164,4436.006l-7.41-.484a1.25,1.25,0,0,0-.162,2.5l7.409.483a1.2,1.2,0,0,0,.288-.014,1.25,1.25,0,0,0-.125-2.48Z" fill="#16429c"/>
          <path id="パス_2912" data-name="パス 2912" d="M427.21,4398.176l-4.15,6.157a1.25,1.25,0,1,0,2.073,1.4l4.15-6.157a1.25,1.25,0,0,0-2.073-1.4Z" fill="#16429c"/>
          <path id="パス_2913" data-name="パス 2913" d="M445.028,4414.45a1.25,1.25,0,0,0-1.673-.572l-6.611,3.245a1.25,1.25,0,0,0,.756,2.356,1.276,1.276,0,0,0,.345-.112l6.611-3.244A1.25,1.25,0,0,0,445.028,4414.45Z" fill="#16429c"/>
          <path id="パス_2914" data-name="パス 2914" d="M397.308,4411.185l-1.8,2.017a1.25,1.25,0,0,0,1.867,1.663l1.8-2.017a1.25,1.25,0,1,0-1.867-1.663Z" fill="#16429c"/>
          <path id="パス_2915" data-name="パス 2915" d="M391.858,4417.235l-6.742,7.566a1.25,1.25,0,0,0,1.867,1.663l6.741-7.566a1.25,1.25,0,1,0-1.866-1.663Z" fill="#16429c"/>
        </g>
      </g>
      <g id="グループ_259" data-name="グループ 259">
        <path id="パス_2916" data-name="パス 2916" d="M223.237,4614.1a26.249,26.249,0,0,1-28.512-20.2L170.476,4488.56a26.251,26.251,0,0,1,26.473-32.123l127.727,4.343a1.25,1.25,0,0,1-.085,2.5l-127.727-4.343A23.749,23.749,0,0,0,172.913,4488l24.249,105.343a23.737,23.737,0,0,0,25.8,18.274l170.41-19.147a23.788,23.788,0,0,0,21.023-21.717l7.265-90.606a1.25,1.25,0,1,1,2.492.2l-7.265,90.606a26.292,26.292,0,0,1-23.236,24Z" fill="#16429c"/>
      </g>
      <g id="グループ_265" data-name="グループ 265">
        <path id="パス_3056" data-name="パス 3056" d="M173.32,4453.7a1.247,1.247,0,0,1-1.083-.492l-11.5-15.151a1.25,1.25,0,1,1,1.991-1.511l11.5,15.151a1.25,1.25,0,0,1-.908,2Z" fill="#16429c"/>
      </g>
      <g id="グループ_266" data-name="グループ 266">
        <path id="パス_3057" data-name="パス 3057" d="M163.649,4464.779a1.231,1.231,0,0,1-.429-.045l-11.917-3.393a1.25,1.25,0,1,1,.684-2.4l11.917,3.393a1.25,1.25,0,0,1-.255,2.449Z" fill="#16429c"/>
      </g>
    </g>
  </g>
</svg>
