<svg xmlns="http://www.w3.org/2000/svg" width="15.445" height="15.211" viewBox="0 0 15.445 15.211">
  <path id="パス_3458" data-name="パス 3458" d="M204.009,755.995a.835.835,0,0,1,.936-.754,2.4,2.4,0,0,1,1.9.936c.573.6,1.664,1.821,2.029,2.106.077.053.1.1.155.1s.1-.051.182-.155c.754-1.093,2.081-3.095,3.407-4.992,1.82-2.6,3.847-5.279,4.368-5.9s.468-.858,1.378-.988a3.986,3.986,0,0,1,.494-.052c.572,0,.6.286.6.546,0,.312-.312.468-.572.7a56.849,56.849,0,0,0-4.992,6.656,16.87,16.87,0,0,0-2.835,6.111c-.1.728-.389,1.2-1.04,1.2a2.975,2.975,0,0,1-1.664-.6,3.115,3.115,0,0,1-.91-1.014,29.532,29.532,0,0,0-3.146-3.381A.758.758,0,0,1,204.009,755.995Z" transform="translate(-204.009 -746.297)" fill="#f36"/>
</svg>
