<svg xmlns="http://www.w3.org/2000/svg" width="234.999" height="48.46" viewBox="0 0 234.999 48.46">
  <g id="グループ_227" data-name="グループ 227" transform="translate(-150.338 -25.232)">
    <path id="パス_221" data-name="パス 221" d="M177.476,50.65h-3.749V48.21h3.749Zm3.512,1.779V46.643a2,2,0,0,0-1.9-2.266H169.9V59.449h3.832V51.1l1.133,3.386h4.224s1.9-.4,1.9-2.054" fill="#098651"/>
    <path id="パス_222" data-name="パス 222" d="M174.617,29.78a14.973,14.973,0,0,1,1.919-2.412h-8.675s-3.518-.013-4.861,2.173l-4.974,9.191,8.758,5.027s.634-.938,7.833-13.979" fill="#098651"/>
    <path id="パス_223" data-name="パス 223" d="M158.026,66.551s.126,4.66,4.658,4.66h10.493V61.026h-12.91a7.4,7.4,0,0,0-2.241,5.525" fill="#098651"/>
    <path id="パス_224" data-name="パス 224" d="M164.96,52.185l-4.387-7.557L151.84,44.6l1.909,1.1-3.171,5.754a4.208,4.208,0,0,0,.31,3.35c4.221,7.827,4.966,9.07,4.966,9.07.063-1.121,1.615-3.729,1.615-3.729,4.153-7.376,5.034-8.943,5.228-9.276l2.263,1.308" fill="#098651"/>
    <path id="パス_225" data-name="パス 225" d="M180.475,40.286l-1.436.828,8.732-.026,4.387-7.548-2.677,1.543c-.415-.805-1.12-2.2-2.084-3.989a7.625,7.625,0,0,0-3.391-3.315s-3.19-1.325-4.845.624c0,0-.62.746-3.144,4.386l4.458,7.5" fill="#098651"/>
    <path id="パス_226" data-name="パス 226" d="M198.955,50.373l-4.847-8.393-9.273,5.347,4.849,8.4a5.352,5.352,0,0,0,9.271-5.349" fill="#098651"/>
    <path id="パス_227" data-name="パス 227" d="M181,60.977V58.539l-4.343,7.577L181,73.692V71.247h7.354a3.488,3.488,0,0,0,2.607-1.527s.29-.541,5.549-9.4a8.552,8.552,0,0,1-2.817.661H181" fill="#098651"/>
    <path id="パス_228" data-name="パス 228" d="M371.112,58.5V33.716H364.6V65.232l19.082.024,1.659-6.76H371.112m-43.583,9.058c0,4.758,4.38,5.029,5.285,5.029h22.538V63.37H337.078V58.5h10.8l2.539-9.872-13.344-.013V43.6h18.274V33.716H327.529Zm35.834-33.838h-6.294V67.644c0,3.971,3.962,4.939,6.294,4.939H381.8l1.533-6.111H363.363ZM312.33,51.758l-4.907-18.042H297.315l10.108,38.867h9.884l9.214-38.867h-9.214Zm-88.861-1.865H213.81V43.6h9.659Zm9.061,4.6V39.559c0-5.843-4.9-5.843-4.9-5.843h-23.7V72.583h9.886V51.06l2.922,8.717h10.893s4.9-1.019,4.9-5.285m7.226-20.776L228.189,72.583h9.958l6.329-21,3.44,11.789H241.7l2.849,9.214h16.658L249.3,33.716ZM299.565,60.1l-7.077-26.384h-9.939s7.844,30.714,8.664,33.928a6.779,6.779,0,0,0,6.1,4.939c1.916-.006,6.182,0,6.182,0l1.35-5.743L301.258,53.1ZM269.517,43.6h13.032l-2.364-9.885H264.916c-2.356,0-5.169,2.253-5.169,7.415V66.068c0,3.26,2.25,6.515,5.169,6.515H287.34l2.287-9.213h-20.11Z" fill="#fff"/>
    <path id="パス_229" data-name="パス 229" d="M206.747,28.568l-1,.432a22.66,22.66,0,0,0-1.379-2.671l.913-.439c.434.725.7,1.177.8,1.367s.321.625.671,1.311m3.39-2.534A13.158,13.158,0,0,1,209.854,28a5.068,5.068,0,0,1-.766,1.642,4.436,4.436,0,0,1-1.532,1.37,6.667,6.667,0,0,1-2.319.715l-.3-.867a6.248,6.248,0,0,0,2.169-.723,3.559,3.559,0,0,0,1.378-1.479,6.982,6.982,0,0,0,.619-2.717Z" fill="#098651"/>
    <path id="パス_230" data-name="パス 230" d="M213.019,29.617H212V25.905h1.022Zm3.715-1.017q0,2.856-3.982,3.1l-.219-.9a4.762,4.762,0,0,0,2.447-.692,1.961,1.961,0,0,0,.717-1.644V25.789h1.037Z" fill="#098651"/>
    <path id="パス_231" data-name="パス 231" d="M223.861,31.517h-5.644v-.748h3.2l.386-2.876h-2.886v-.748h3.852l-.467,3.624h1.559v.748" fill="#098651"/>
    <rect id="長方形_131" data-name="長方形 131" width="6.203" height="0.896" transform="translate(225.034 28.349)" fill="#098651"/>
    <path id="パス_232" data-name="パス 232" d="M235.263,28.425l-.459.85c-.5-.215-.912-.384-1.233-.49s-.86-.275-1.614-.485l.385-.8a12.9,12.9,0,0,1,1.287.337c.387.121.931.32,1.634.588m3.021-.261a6.129,6.129,0,0,1-2.293,2.443,8.205,8.205,0,0,1-3.437,1.036l-.223-.91A8.087,8.087,0,0,0,235.3,29.9a5.668,5.668,0,0,0,2.14-2.164Zm-2.367-1.393-.476.845c-.247-.114-.5-.221-.76-.328s-.474-.185-.637-.242l-1.418-.452.395-.783A20.861,20.861,0,0,1,235.917,26.771Z" fill="#098651"/>
    <path id="パス_233" data-name="パス 233" d="M244.044,31.567h-4.692v-.748h3.795V29.535h-3.67v-.729h3.67V27.739h-3.68v-.717h4.577v4.545" fill="#098651"/>
    <path id="パス_234" data-name="パス 234" d="M249.366,27.35l-.619.843c-.334-.217-.626-.4-.887-.545s-.837-.448-1.747-.9l.536-.771a21.961,21.961,0,0,1,2.717,1.376m2.739.824a6.14,6.14,0,0,1-2.242,2.418,8.233,8.233,0,0,1-3.5,1.028l-.227-.94a9.1,9.1,0,0,0,1.925-.351,5.251,5.251,0,0,0,1.346-.644,6.446,6.446,0,0,0,.985-.817,6.573,6.573,0,0,0,.9-1.235Z" fill="#098651"/>
    <path id="パス_235" data-name="パス 235" d="M257.8,26.72v0c0,.133-.05.478-.132,1.037a5.212,5.212,0,0,1-.6,1.714,3.809,3.809,0,0,1-1.529,1.456,7.39,7.39,0,0,1-2.772.76l-.271-.895a6.386,6.386,0,0,0,2.371-.649,3.108,3.108,0,0,0,1.349-1.238,4.884,4.884,0,0,0,.5-1.923l-4.262-.011V26.1l5.005.006a.864.864,0,0,0,.342.609m1.4-.7a.7.7,0,0,1-.213.518.827.827,0,0,1-1.092,0,.74.74,0,0,1,0-1.037.839.839,0,0,1,1.092,0A.7.7,0,0,1,259.2,26.015Zm-.453-.305-.3-.124-.307.124-.124.305.124.306.307.12.3-.12.123-.306Z" fill="#098651"/>
    <path id="パス_236" data-name="パス 236" d="M265.4,31.51h-5.469V26.363H265.4Zm-4.447-.867h3.4V27.208h-3.4Z" fill="#098651"/>
    <path id="パス_237" data-name="パス 237" d="M269,25.939a13.166,13.166,0,0,1-.219,2.481,5.679,5.679,0,0,1-.688,1.708,7.112,7.112,0,0,1-1.259,1.531l-.691-.645a5.872,5.872,0,0,0,.972-1.173,6.763,6.763,0,0,0,.588-1.348,9.594,9.594,0,0,0,.286-2.588l1.011.034m3.967,4.974-.755.707a5.991,5.991,0,0,1-1.188-1.764,8.477,8.477,0,0,1-.6-1.974,11.022,11.022,0,0,1-.166-1.729l0-.231,1.014-.019v.11a8.988,8.988,0,0,0,.355,2.589A6.271,6.271,0,0,0,272.969,30.913Zm-.837-4.357-.492.189c-.09-.244-.245-.593-.446-1.056l.461-.167C271.842,25.889,272,26.231,272.132,26.556Zm.888-.244-.483.175c-.1-.239-.241-.584-.451-1.042l.451-.163C272.721,25.635,272.883,25.979,273.02,26.312Z" fill="#098651"/>
    <path id="パス_238" data-name="パス 238" d="M277.431,31.675h-1.036V28.608a12.553,12.553,0,0,1-2.807,1.019l-.311-.886a10.307,10.307,0,0,0,3.1-1.252,6.093,6.093,0,0,0,1.995-1.9l.981.377a7.594,7.594,0,0,1-.964,1.214,8.314,8.314,0,0,1-.958.789v3.707" fill="#098651"/>
    <path id="パス_239" data-name="パス 239" d="M286.272,26.379a6.594,6.594,0,0,1-.089,1.016,6.06,6.06,0,0,1-.449,1.471,4.688,4.688,0,0,1-.844,1.239,5.075,5.075,0,0,1-1.375,1,8.286,8.286,0,0,1-1.914.673l-.339-.883a5.286,5.286,0,0,0,2.778-1.336c-.545-.266-1.162-.523-1.853-.782L282.66,28a18.322,18.322,0,0,1,1.975.808,4.952,4.952,0,0,0,.558-1.592h-2.241a6.434,6.434,0,0,1-2.283,2.25l-.543-.707a5.653,5.653,0,0,0,2.423-3.131l1.037.131c-.082.238-.159.447-.228.618h1.968c-.148-.364-.288-.669-.417-.913l.456-.165a9.174,9.174,0,0,1,.459.969l-.32.109h.768m.555-.148-.485.177c-.15-.367-.3-.7-.451-1l.464-.174C286.54,25.588,286.7,25.927,286.827,26.231Z" fill="#098651"/>
    <rect id="長方形_132" data-name="長方形 132" width="6.196" height="0.896" transform="translate(287.255 28.349)" fill="#098651"/>
  </g>
</svg>
