<svg xmlns="http://www.w3.org/2000/svg" width="208.776" height="340.602" viewBox="0 0 208.776 340.602">
  <g id="グループ_394" data-name="グループ 394" transform="translate(-887.432 -588.601)">
    <path id="パス_1" data-name="パス 1" d="M931.073,649.682a12.168,12.168,0,0,1-3.731,1.162,6.865,6.865,0,0,1-1.642.006,8.608,8.608,0,0,1-1.772-.432,9.587,9.587,0,0,1-3.466-2.2l-.537-.555c-.166-.2-.325-.4-.485-.6l-.238-.3-.211-.323-.415-.65-.352-.685-.174-.342-.142-.357-.282-.712c-.079-.242-.145-.489-.218-.732a14,14,0,0,1-.467-2.36c-.1-.773-.151-1.537-.179-2.3a38.45,38.45,0,0,1,.1-4.534,36.407,36.407,0,0,1,.638-4.495,22.692,22.692,0,0,1,1.373-4.438c.239-.519.468-1.044.766-1.56.134-.26.31-.513.469-.769a8.24,8.24,0,0,1,.578-.741,8.009,8.009,0,0,1,.784-.79c.259-.213.514-.439.782-.639s.542-.388.821-.559.569-.319.856-.458a16.418,16.418,0,0,1,3.835-1.215,12.383,12.383,0,0,1,4.112-.1,8.245,8.245,0,0,1,3.966,1.7c.271.25.542.505.8.762l.641.784c.1.132.218.256.313.4l.279.432.277.432a2.866,2.866,0,0,1,.254.45,8.823,8.823,0,0,1,1.093,4.068,7.5,7.5,0,0,1-1.162,4.16,8.063,8.063,0,0,1-3.185,2.844c-.321.143-.638.306-.967.425l-1,.306a14.148,14.148,0,0,1-1.994.3,20.243,20.243,0,0,1-5.5-.246,16.168,16.168,0,0,1-5.246-1.945,15.056,15.056,0,0,1-4.238-3.714,16.512,16.512,0,0,1-2.643-4.937,15.622,15.622,0,0,1-.662-2.8,19.969,19.969,0,0,1-.212-2.839c-.015-.944.046-1.88.12-2.807.086-.911.174-1.808.273-2.712a28.762,28.762,0,0,1,.982-5.121,16.8,16.8,0,0,1,2.267-4.879,10.915,10.915,0,0,1,4.248-3.623l.646-.3c.217-.084.434-.156.65-.234.435-.139.87-.274,1.31-.37a17.042,17.042,0,0,1,2.655-.423,17.426,17.426,0,0,1,2.684-.034,14.77,14.77,0,0,1,2.688.4,10.778,10.778,0,0,1,2.62.978,5.427,5.427,0,0,1,.623.362c.2.136.417.264.591.409l.534.433.266.217.248.238a13.444,13.444,0,0,1,3.142,4.444,16.986,16.986,0,0,1,1.337,5.187,21.794,21.794,0,0,1,.073,3.22,25.891,25.891,0,0,1-.384,3.173,26.973,26.973,0,0,1-1.911,6.055,25.549,25.549,0,0,1-3.128,5.215,22.283,22.283,0,0,1-2.075,2.3l-.582.529-.562.488-1.113.973a60.545,60.545,0,0,1-7.984,5.646,49.907,49.907,0,0,1-9.642,4.772,26.618,26.618,0,0,1-5.325,1.281,17.611,17.611,0,0,1-5.6-.129,14.233,14.233,0,0,1-4.212-1.5,15.1,15.1,0,0,1-3.562-2.752,16.27,16.27,0,0,1-2.611-3.606,20.91,20.91,0,0,1-.952-1.981c-.258-.682-.523-1.358-.715-2.053a28.534,28.534,0,0,1-1.374-7.187,27.28,27.28,0,0,1,1.613-10.367,21.335,21.335,0,0,1,2.428-4.719,16.641,16.641,0,0,1,3.7-3.883c.216-.156.424-.325.648-.47l.687-.414a12.2,12.2,0,0,1,1.433-.728,5.655,5.655,0,0,1,.748-.294l.76-.264c.5-.154,1-.269,1.5-.4a28.624,28.624,0,0,1,6.135-.791,23.346,23.346,0,0,1,6.2.69,17.657,17.657,0,0,1,5.772,2.61l.909.67.832.766.413.387.369.427.735.86.634.932c.211.311.425.624.6.939q.546.943,1.007,1.932a24.915,24.915,0,0,1,1.522,4.1,18.13,18.13,0,0,1,.667,4.424,10.4,10.4,0,0,1-1.343,5.576,8.351,8.351,0,0,1-2,2.266,9.613,9.613,0,0,1-2.581,1.44c-.224.1-.453.156-.68.234a6.541,6.541,0,0,1-.686.2c-.226.055-.463.117-.683.164l-.643.122c-.854.177-1.721.3-2.588.422a38.023,38.023,0,0,1-5.267.279,27.916,27.916,0,0,1-17.208-6.615,17.717,17.717,0,0,1-3.783-4.67,23.38,23.38,0,0,1-2.232-5.59c-.148-.612-.208-1.29-.344-1.824a22.323,22.323,0,0,1-.493-9.307,29.58,29.58,0,0,1,.982-4.555,16.613,16.613,0,0,1,2.012-4.362,11.77,11.77,0,0,1,5.141-4.2c.505-.2,1-.439,1.512-.589.508-.17,1.013-.344,1.525-.467l.763-.207c.254-.068.517-.111.775-.17l.776-.168.778-.121a19.975,19.975,0,0,1,5.162-.1,24.831,24.831,0,0,1,5.005,1.132l.881.308c.287.117.57.242.854.365a16.511,16.511,0,0,1,1.657.828c.543.292,1.048.658,1.566,1,.247.19.49.385.733.582a8.266,8.266,0,0,1,.709.617c.416.41.877.8,1.3,1.26l.663.667.637.711c.868.94,1.626,1.966,2.33,2.9a27.016,27.016,0,0,1,3.348,6.509,36.887,36.887,0,0,1,1.205,3.722,22.8,22.8,0,0,1,.7,3.916,15.42,15.42,0,0,1,0,2.922,12.072,12.072,0,0,1-.856,3.363,7.884,7.884,0,0,1-2.157,2.973,10.052,10.052,0,0,1-3.085,1.776,16.23,16.23,0,0,1-3.276.813,33.365,33.365,0,0,1-6.452.222c-1.057-.051-2.1-.129-3.138-.216s-2.09-.181-3.161-.332a16.732,16.732,0,0,1-4.991-1.321,8.993,8.993,0,0,1-2.31-1.566l-.482-.512c-.078-.087-.161-.171-.234-.261l-.2-.28-.4-.565c-.12-.193-.218-.4-.324-.593a14.089,14.089,0,0,1-1.366-4.678,26.78,26.78,0,0,1-.132-4.672,35.25,35.25,0,0,1,.837-5.733,32.05,32.05,0,0,1,1.132-3.89,25.275,25.275,0,0,1,1.712-3.71,16.219,16.219,0,0,1,5.817-5.7c.753-.441,1.563-1.053,2.407-1.471a16.387,16.387,0,0,1,8.132-1.813,16.676,16.676,0,0,1,2.8.441,17.641,17.641,0,0,1,9.216,6.617,34.648,34.648,0,0,1,2,3.052c.6,1.058,1.173,2.13,1.693,3.225.268.543.515,1.1.772,1.643.24.56.512,1.08.716,1.689a16.772,16.772,0,0,1,.883,3.611,33.522,33.522,0,0,1-.259,9.375,41.235,41.235,0,0,1-.991,4.592,32.941,32.941,0,0,1-1.61,4.456,18.656,18.656,0,0,1-1.15,2.132l-.325.52-.381.494-.383.493-.421.45a18.467,18.467,0,0,1-3.785,3.02,28.4,28.4,0,0,1-8.85,3.4,22.968,22.968,0,0,1-3.719.465,17.72,17.72,0,0,1-1.9-.013,15.8,15.8,0,0,1-1.9-.259,9.367,9.367,0,0,1-.935-.212l-.92-.278c-.3-.1-.6-.236-.9-.353-.147-.062-.3-.119-.443-.186l-.426-.222c-.28-.157-.578-.282-.842-.464l-.807-.523a14.926,14.926,0,0,1-1.479-1.219c-.475-.413-.884-.887-1.315-1.343-.392-.485-.8-.962-1.145-1.485a8.619,8.619,0,0,1-.515-.785c-.158-.269-.327-.535-.475-.811a16.333,16.333,0,0,1-.786-1.706,16.147,16.147,0,0,1-1.073-5.03,20.69,20.69,0,0,1,.358-5.056,16.439,16.439,0,0,1,3.952-8.088c.273-.269.528-.558.814-.812s.581-.5.88-.745l.941-.669.934-.6a37.929,37.929,0,0,1,3.924-2.23,12.981,12.981,0,0,1,2.45-.9,7.78,7.78,0,0,1,2.763-.218,5.88,5.88,0,0,1,2.726,1.035,7.545,7.545,0,0,1,1.954,2.057l.358.584.319.6c.179.4.384.793.537,1.209l.237.62c.077.208.134.423.2.634.142.421.23.859.333,1.293a13.026,13.026,0,0,1,.268,2.679,12.638,12.638,0,0,1-.073,1.359c-.03.226-.072.451-.108.676l-.058.337-.085.334a10.055,10.055,0,0,1-1.873,3.827,10.432,10.432,0,0,1-1.483,1.531,10.734,10.734,0,0,1-1.751,1.211,13.668,13.668,0,0,1-3.905,1.408,16.828,16.828,0,0,1-4.078.314,12.736,12.736,0,0,1-3.915-.789c-.317-.123-.627-.27-.941-.407-.3-.157-.6-.333-.905-.5-.289-.2-.574-.412-.858-.622a9.312,9.312,0,0,1-.78-.722,9.493,9.493,0,0,1-2.117-3.581,14,14,0,0,1-.676-3.94,21.007,21.007,0,0,1,.255-3.871,26.118,26.118,0,0,1,.868-3.749,23.088,23.088,0,0,1,1.5-3.557,19.28,19.28,0,0,1,2.127-3.274,11.266,11.266,0,0,1,2.413-2.25,8.394,8.394,0,0,1,1.552-.811,7.14,7.14,0,0,1,1.767-.412,6.977,6.977,0,0,1,1.822.1,7.975,7.975,0,0,1,.866.228l.417.147c.14.051.29.127.434.192a7.239,7.239,0,0,1,2.651,2.367,13.789,13.789,0,0,1,1.536,2.872,22.979,22.979,0,0,1,.962,2.989,29.1,29.1,0,0,1,.587,3.05,21.791,21.791,0,0,1,.223,3.155l-.066,1.586c-.026.529-.1,1.065-.154,1.6s-.186,1.077-.279,1.617c-.065.271-.148.543-.222.815a6.439,6.439,0,0,1-.261.817l-.33.815c-.119.271-.284.535-.429.8-.078.132-.144.268-.234.4l-.287.382a4.828,4.828,0,0,1-.63.736,6.572,6.572,0,0,1-3.546,1.885,7.832,7.832,0,0,1-2.922-.073,12.414,12.414,0,0,1-3.706-1.542,15.978,15.978,0,0,1-3.015-2.386,14.276,14.276,0,0,1-2.363-3.111,9.9,9.9,0,0,1-1.272-4.047l-.027-.647a5.53,5.53,0,0,1,.041-.663c.025-.222.036-.445.082-.667s.106-.444.164-.665l.091-.331c.039-.117.089-.239.135-.358a6.224,6.224,0,0,1,.326-.677,7.3,7.3,0,0,1,.811-1.152,9.867,9.867,0,0,1,6.637-3.209,7.411,7.411,0,0,1,2.768.337,6.138,6.138,0,0,1,1.425.7,5.569,5.569,0,0,1,1.229,1.132,6,6,0,0,1,.461.672l.317.6c.1.211.183.431.269.648s.144.46.21.69a6.18,6.18,0,0,1-.122,3.385,7.255,7.255,0,0,1-1.456,2.544,11.224,11.224,0,0,1-3.78,2.764,38.439,38.439,0,0,1-5.925,2.134c-.146-.623-.186-.947.088-1.282a10.777,10.777,0,0,1,1.924-1.379,29.7,29.7,0,0,0,2.821-2.108,11.293,11.293,0,0,0,2.206-2.413,3.512,3.512,0,0,0,.641-2.526,1.475,1.475,0,0,0-.071-.308l-.043-.155-.064-.154a2.074,2.074,0,0,0-.14-.31,3.036,3.036,0,0,0-.16-.289,1.793,1.793,0,0,0-.8-.693,3.461,3.461,0,0,0-1.7-.232,6.246,6.246,0,0,0-1.9.5A4.731,4.731,0,0,0,900.971,611a5.6,5.6,0,0,0,.862,4.637,11.294,11.294,0,0,0,3.78,3.74,6.2,6.2,0,0,0,4.584.99,3.335,3.335,0,0,0,1.674-1.106,6.2,6.2,0,0,0,1.091-2.088c.037-.122.075-.244.113-.368a17.11,17.11,0,0,0,.575-4.208,19.606,19.606,0,0,0-.421-4.287,20.558,20.558,0,0,0-1.246-4.121,7.493,7.493,0,0,0-2.093-2.994,2.986,2.986,0,0,0-.6-.329l-.4-.128c-.131-.022-.262-.066-.39-.079a3.2,3.2,0,0,0-1.473.12,4.9,4.9,0,0,0-1.453.823,9.438,9.438,0,0,0-1.372,1.4,19.609,19.609,0,0,0-2.766,4.835c-.187.471-.364.915-.521,1.4s-.313.986-.446,1.484a11.284,11.284,0,0,0-.405,2.978,13.811,13.811,0,0,0,.628,4.273l.164.475.205.44.1.222.122.2.239.4a5.727,5.727,0,0,0,1.249,1.317,8.22,8.22,0,0,0,3.689,1.506,11.094,11.094,0,0,0,4.264-.157,8.763,8.763,0,0,0,6.481-6.01,10.978,10.978,0,0,0-.647-5.171l-.245-.637-.285-.626c-.092-.215-.2-.385-.295-.581-.109-.172-.207-.362-.321-.517a3.813,3.813,0,0,0-1.456-1.373,3.43,3.43,0,0,0-1.934-.262,9.361,9.361,0,0,0-2.5.717,22.238,22.238,0,0,0-2.614,1.341q-.654.388-1.3.807c-.209.138-.451.287-.633.421l-.527.4a12.647,12.647,0,0,0-4.47,8.288,16.409,16.409,0,0,0,.03,4.981,15.8,15.8,0,0,0,1.491,4.722,12.011,12.011,0,0,0,4.749,5.168,10.744,10.744,0,0,0,3.325,1.209,14.225,14.225,0,0,0,3.727.117,21.744,21.744,0,0,0,3.543-.62,25.07,25.07,0,0,0,3.456-1.145,23.875,23.875,0,0,0,3.219-1.633,17.277,17.277,0,0,0,2.747-2.137,10.469,10.469,0,0,0,1.78-2.423c.124-.225.229-.478.345-.714s.236-.471.328-.732c.192-.514.413-1,.571-1.538a41.3,41.3,0,0,0,1.537-6.523,39.147,39.147,0,0,0,.526-6.31,16.522,16.522,0,0,0-.873-5.731,39.7,39.7,0,0,0-3.7-7.185,17.754,17.754,0,0,0-5.429-5.27,9.34,9.34,0,0,0-.826-.48c-.283-.151-.555-.317-.853-.445l-.874-.409a7.739,7.739,0,0,0-.759-.271,7.955,7.955,0,0,0-1.633-.3,10.534,10.534,0,0,0-1.745.035,15.67,15.67,0,0,0-6.922,2.723,16.165,16.165,0,0,0-5.107,5.448,29.672,29.672,0,0,0-2.732,7.476,22.361,22.361,0,0,0-.472,7.809,11.187,11.187,0,0,0,1.037,3.495,6.122,6.122,0,0,0,2.211,2.433,14.42,14.42,0,0,0,5.6,1.606c1.052.128,2.142.229,3.207.3a31.254,31.254,0,0,0,3.139.065,35.8,35.8,0,0,0,4.289-.347,11.422,11.422,0,0,0,3.748-1.163,4.727,4.727,0,0,0,2.237-2.461,8.323,8.323,0,0,0,.488-3.723c-.03-.372-.005-.784-.032-1.187a23.349,23.349,0,0,0-1.142-5.712,32.213,32.213,0,0,0-2.36-5.484,26.425,26.425,0,0,0-1.546-2.507c-.28-.391-.564-.779-.862-1.133s-.633-.689-.944-1.038a18.321,18.321,0,0,0-4.6-3.336,20.778,20.778,0,0,0-11.124-2.312,16.911,16.911,0,0,0-2.775.489l-.7.186c-.233.06-.445.15-.669.223s-.446.148-.661.232l-.626.276-.314.136c-.1.049-.2.107-.293.159l-.584.32c-.187.114-.358.245-.539.364l-.269.182c-.088.063-.163.138-.245.205l-.488.413-.435.462a3.549,3.549,0,0,0-.408.489c-.123.174-.272.327-.38.516l-.343.558a6.472,6.472,0,0,0-.306.592,11.756,11.756,0,0,0-.537,1.259c-.087.213-.142.449-.216.672s-.152.445-.2.685c-.1.475-.242.935-.317,1.429a34.9,34.9,0,0,0-.568,6.014,21.1,21.1,0,0,0,2.957,11.354,17.987,17.987,0,0,0,4.613,5,19.122,19.122,0,0,0,2.945,1.792l.387.194.4.172c.266.113.53.232.8.34.548.19,1.084.411,1.648.559a27.357,27.357,0,0,0,9.82.981,35.517,35.517,0,0,0,4.945-.7c.215-.038.393-.085.568-.132s.363-.082.529-.146l.508-.171.478-.2a5.814,5.814,0,0,0,1.6-1.077,7.035,7.035,0,0,0,.631-.7,6.153,6.153,0,0,0,1.184-3.76,14.526,14.526,0,0,0-.728-4.556,23.348,23.348,0,0,0-1.932-4.423c-.1-.172-.2-.357-.3-.519l-.317-.47a7.432,7.432,0,0,0-.655-.92c-.246-.283-.47-.585-.726-.858l-.807-.782a12.349,12.349,0,0,0-5.231-2.612,31.584,31.584,0,0,0-6.082-.813c-.324.014-.647.059-.971.1s-.646.075-.969.124c-.642.125-1.289.2-1.924.365l-.955.216-.945.26c-.154.044-.323.082-.465.13l-.416.15a6.793,6.793,0,0,0-.822.315,11.141,11.141,0,0,0-2.973,1.877,13.11,13.11,0,0,0-2.4,2.71,18.036,18.036,0,0,0-1.751,3.317,22.968,22.968,0,0,0-1.093,3.685,25.387,25.387,0,0,0-.449,3.867,24.826,24.826,0,0,0,.2,3.9,26.3,26.3,0,0,0,1.712,5.821,13.259,13.259,0,0,0,.558,1.275c.2.419.449.8.672,1.206.262.371.505.761.787,1.112a12.245,12.245,0,0,0,.877,1.015l.459.479.492.433a11.6,11.6,0,0,0,1.015.808,5.464,5.464,0,0,0,.537.367c.185.115.363.243.548.355.382.2.743.445,1.136.617a10.408,10.408,0,0,0,3.293,1.017,13.377,13.377,0,0,0,3.568-.026,26.307,26.307,0,0,0,7.154-2.2,52.422,52.422,0,0,0,7.981-4.535c2.573-1.741,5.058-3.653,7.517-5.634a18.323,18.323,0,0,0,5.058-6.919,22.6,22.6,0,0,0,1.95-8.492,15.541,15.541,0,0,0-1.148-6.491,10.722,10.722,0,0,0-1.638-2.665c-.177-.188-.338-.392-.522-.572l-.565-.532-.608-.484c-.2-.136-.367-.251-.569-.367a11.321,11.321,0,0,0-6.1-1.045,14.933,14.933,0,0,0-3.221.587c-.245.086-.507.163-.73.263s-.439.2-.661.3a7.48,7.48,0,0,0-1.2.808,8.846,8.846,0,0,0-1.965,2.313,15.8,15.8,0,0,0-1.342,3.02,30.74,30.74,0,0,0-1.271,6.951,18.865,18.865,0,0,0,.6,6.775,13.2,13.2,0,0,0,3.226,5.662,12.125,12.125,0,0,0,5.25,3,14.143,14.143,0,0,0,4.174.8,15.664,15.664,0,0,0,3.193-.308,5.792,5.792,0,0,0,2.434-1.245,4.326,4.326,0,0,0,1.34-2.141,4.819,4.819,0,0,0-.079-2.616l-.108-.335-.052-.168c-.022-.056-.053-.11-.078-.164l-.314-.658a9.728,9.728,0,0,0-.877-1.242l-.247-.3-.123-.151-.12-.106a3.29,3.29,0,0,0-.484-.415,3.138,3.138,0,0,0-.547-.337l-.291-.147a2.677,2.677,0,0,0-.316-.113,8.6,8.6,0,0,0-5.9.532,12.165,12.165,0,0,0-2.724,1.58c-.1.077-.219.161-.291.23l-.213.2-.212.232-.205.261a8.591,8.591,0,0,0-.755,1.25,16.591,16.591,0,0,0-1.1,3.079,28.645,28.645,0,0,0-.662,3.387,34.99,34.99,0,0,0-.274,6.963,13.714,13.714,0,0,0,.533,3.168,7.729,7.729,0,0,0,5.036,5.034c1.306.483,2.192.636,2.933.942a5.6,5.6,0,0,1,.547.249,5.992,5.992,0,0,1,.548.284C930.166,649.137,930.567,649.357,931.073,649.682Z"/>
    <g id="グループ_113" data-name="グループ 113">
      <g id="グループ_10" data-name="グループ 10">
        <g id="グループ_9" data-name="グループ 9">
          <path id="パス_2" data-name="パス 2" d="M1061.266,920.05c14.84,3.8,18.115,4.707,24.212-6.916,4.281-8.162,9.1-62.838,8.828-78.994s-1.34-29.247-11.886-37.045-50.828-13.6-50.828-13.6l-36.175.479s-37.741,19.883-45.554,29.722-16.737,78.156-17.188,88.533,4.85,15.793,34.464,18.09l73.9.352Z" fill="#fff"/>
        </g>
      </g>
      <path id="パス_3" data-name="パス 3" d="M1003.922,820.614s4.22-8.281,9.544-11.632,14.361-1.513,14.361-1.513l2.057,4.394s2.99,6.8,4.964,6.939,10.84-23.473,10.84-23.473,27.368,2.227,36.5,13.327-1.1,92.448-3.389,100.219-8.355,12.241-15.016,11.754-57.106,0-57.106,0-26.394.422-43.448-.371-23.536-6.221-22.866-17.148c.4-6.547,9.892-75.545,14.909-83.342s23.136-16.181,23.136-16.181,2.906,13.1,5.175,12.588a5.512,5.512,0,0,1,3.638.229s11.46,26.714,14.092,28.181,7.747-2.708,8.739-3.814,1.229-4.831.613-5.963Z" fill="#93c630"/>
      <g id="グループ_12" data-name="グループ 12">
        <g id="グループ_11" data-name="グループ 11">
          <path id="パス_4" data-name="パス 4" d="M1061.549,694.944a9.2,9.2,0,0,1,.946.582c6.236,4.36,2.12,21.316-1.936,23.282-5.6,2.714-10.347-2.578-10.347-2.578l-1.777-1.588.011,2.413s.136,21.853-.481,36.878c-.292,7.115-.161,11.728-1.389,13.562-1.522,2.274-10.138,3.78-20.518,4.747l2.289,11.531s-18.377,4.99-21.586,4.755-11.007-2.626-11.007-2.626c.187-2.642.325-8.018.409-12.181-4.964.076-8.914.05-10.925-.039-9.078-.4-18.255-3.417-20.043-10.314-1.084-4.184-2.987-39.128-4.317-65.98l-1.407-1.759s-7.567-12.351-8.173-19.856a67.146,67.146,0,0,1,1.139-16.053s-7.88-21.31-1.07-29.054c5.529-6.287,15.718-.933,20.428-1.8,6.5-1.2,42.909-15.168,59.871-13.581s19.355,25.358,19.355,25.358,7.638.646,12.869,12.479-2.122,40.619-2.122,40.619Z" fill="#fff"/>
        </g>
      </g>
      <path id="パス_5" data-name="パス 5" d="M959.228,688.088s-6.17-15.57-1.756-28.855c0,0-6.142-12.468-.8-20.242s10.36-2.72,19.513-3.563c10.324-.951,41.138-13.624,55.011-11.1s14.111,20.158,14.111,20.158,13.633,3.567,14.794,19.829a85.63,85.63,0,0,1-3.449,29.986s-3.614,2-4.586,4.049c0,0-5.143-6.726-6.712-12.586s-1-25.473-3.171-29.865-3.049-5.968-8.683-5.775-13.975,1.246-34.56-2.224-34.3,5.808-38.336,11.409c0,0-2.681,2.828-1.3,11.4A61.856,61.856,0,0,1,959.228,688.088Z" fill="#9b7760"/>
      <g id="グループ_16" data-name="グループ 16">
        <g id="グループ_15" data-name="グループ 15">
          <path id="パス_6" data-name="パス 6" d="M1003.209,680.131s.845,14.992,1.894,22.388a4.643,4.643,0,0,0,4.271,3.7c7.617.948,18.747.37,20.106-.612,3.6-2.6,2.48-24.933,2.48-24.933a42.7,42.7,0,0,0-15.186-2.542A66.244,66.244,0,0,0,1003.209,680.131Z" fill="#fff"/>
          <g id="グループ_14" data-name="グループ 14">
            <g id="グループ_13" data-name="グループ 13">
              <path id="パス_7" data-name="パス 7" d="M1001.455,684.082c.211,3.219.409,6.441.734,9.66.161,1.587.523,3.158.763,4.744l.406,2.75.215,1.382a5.266,5.266,0,0,0,.591,1.742,5.968,5.968,0,0,0,2.613,2.425,7.209,7.209,0,0,0,1.7.576c.145.033.292.059.439.078s.306.044.416.052l.731.069c1.945.17,3.874.245,5.8.294,2.339.057,4.68.244,7.036.171,1.111-.037,2.221-.119,3.344-.25.561-.065,1.125-.141,1.705-.242.291-.05.585-.106.894-.177.149-.03.32-.081.479-.121l.309-.1a2.544,2.544,0,0,0,.325-.134,3.5,3.5,0,0,0,.512-.276,4.038,4.038,0,0,0,.818-.829,5.988,5.988,0,0,0,.459-.753,10.306,10.306,0,0,0,.586-1.418,25.138,25.138,0,0,0,.713-2.711,38.648,38.648,0,0,0,.818-8.951c-.058-1.969.109-3.937.114-5.9l-.016-2.757-.024-1.38-.041-1.239-.054-1.31c-.759-.3-1.522-.589-2.315-.856l-.29-.1-.181-.058-.325-.106-.652-.2q-1.3-.4-2.631-.718a46,46,0,0,0-5.17-.958,34.3,34.3,0,0,0-5.341-.276c-.361,0-.683.077-1.026.1-1.238.076-2.464.228-3.694.321a11.347,11.347,0,0,0-4.5,1.114,2.166,2.166,0,0,1-.64.182c-1.478.248-2.393,1.322-3.438,2.126-.161.125-.168.431-.23.651a3.668,3.668,0,0,0,.654.012c.989-.16,1.992-.278,2.98-.446,1.267-.219,2.526-.508,3.812-.646,1.745-.185,3.483-.412,5.236-.544a19.647,19.647,0,0,1,5.188.2c1.993.374,4.044.586,6.042,1.076.724.174,1.447.359,2.162.563l.913.268a4.606,4.606,0,0,1,.527.182c.01.173.017.349.02.523l.011.945c0,2.2-.239,4.39-.329,6.576-.071,1.748.016,3.5-.072,5.244a22.865,22.865,0,0,1-1.084,6.643c-.223.589-.395,1.185-.58,1.728-.09.275-.188.528-.286.75a4.5,4.5,0,0,1-.216.416l-.023.034c-.009.016-.052.043-.043.047a1.486,1.486,0,0,1-.183.066c-.066.025-.151.048-.232.072-.327.094-.7.182-1.079.257a17.814,17.814,0,0,1-2.374.314c-1.675.1-3.38-.113-5.069-.159-1.712-.055-3.43-.05-5.136-.12q-1.27-.052-2.532-.148c-.419-.034-.837-.07-1.253-.112-.4-.04-.9-.093-1.1-.129a2.78,2.78,0,0,1-2.213-1.685,1.029,1.029,0,0,1-.055-.179,1.853,1.853,0,0,1-.052-.224l-.119-.648-.251-1.3c-.169-.87-.325-1.747-.454-2.628-.294-2.1-.51-4.223-.717-6.342q-.283-2.877-.486-5.763c-.076-1.076-.145-2.155-.158-3.233a2.1,2.1,0,0,0-1.21-2.069c-.1-.049-.232-.131-.308-.105a6.232,6.232,0,0,0-1.691.68c-.3.224-.3.758-.421,1.155a.332.332,0,0,0,0,.121l.189,1.995Z"/>
            </g>
          </g>
        </g>
      </g>
      <g id="グループ_20" data-name="グループ 20">
        <g id="グループ_19" data-name="グループ 19">
          <g id="グループ_18" data-name="グループ 18">
            <g id="グループ_17" data-name="グループ 17">
              <path id="パス_8" data-name="パス 8" d="M1052.433,720.179a11.545,11.545,0,0,0,2.912,1.035,9.559,9.559,0,0,0,4.833-.242c.25-.086.5-.175.742-.271l.354-.157a3.323,3.323,0,0,0,.389-.192c.155-.089.309-.181.459-.277s.245-.191.368-.288a5.358,5.358,0,0,0,.614-.586,8.577,8.577,0,0,0,.9-1.172,16.8,16.8,0,0,0,1.831-4.679,34.825,34.825,0,0,0,1.091-5.412,25.448,25.448,0,0,0,.09-5.254,17.28,17.28,0,0,0-.433-2.661,11.708,11.708,0,0,0-.959-2.65,10.194,10.194,0,0,0-.973-1.556c-.2-.25-.425-.488-.642-.731-.249-.216-.508-.459-.762-.65a8.417,8.417,0,0,0-3.6-1.647,7.374,7.374,0,0,0-3.936.406,10.569,10.569,0,0,0-3.041,1.886c-.109.1-.221.192-.327.292l-.192.18-.138.131c-.075.075-.143.148-.2.216l-.023.027-.027-.036-.051-.075-.093-.146a2.37,2.37,0,0,1-.127-.249c-.009-.02-.01-.026-.025-.055l-.131-.21-.275-.437-.524-.889-.5-.9-.475-.909c-.617-1.219-1.171-2.456-1.707-3.705a10.088,10.088,0,0,1-.451-1.265,12.233,12.233,0,0,1-.32-1.3c-.18-.871-.287-1.743-.391-2.647-.357-3.176-.489-6.465-.647-9.746-.132-2.941-.259-5.894-.461-8.865-.019-.292-.1-.582-.127-.875-.105-1.069-.248-2.137-.335-3.215a8.661,8.661,0,0,0-1.124-4.027,1.833,1.833,0,0,1-.192-.581,3.5,3.5,0,0,0-1-1.724,8.626,8.626,0,0,0-1.6-1.257c-.182-.1-.49,0-.713.036a3.157,3.157,0,0,0,.108.475,13.736,13.736,0,0,1,.648,2.409,30.767,30.767,0,0,1,.641,3.347,67.5,67.5,0,0,1,.767,9.381,54.038,54.038,0,0,0,.306,5.567c.132,2.034.343,4.07.455,6.118l.14,3.239c.032.546.07,1.094.136,1.651s.174,1.107.276,1.66a24.949,24.949,0,0,0,1.9,5.069c.5,1.075,1.054,2.123,1.638,3.159.284.523.587,1.037.882,1.558.171.28.231.445.575.944.284.427.567.88.884,1.3.146.2.294.41.45.607.161.012.326.021.492.027l.437.015.373.009.166,0,.129-.022c.345-.058.841-.135,1.609-.243a10.5,10.5,0,0,1,1.108-1.365l.228-.232.185-.181c.123-.12.247-.24.375-.351a7.31,7.31,0,0,1,.789-.623,3.984,3.984,0,0,1,1.738-.706,3.214,3.214,0,0,1,1.677.289,7.749,7.749,0,0,1,1.541.964,2.678,2.678,0,0,1,.315.267l.145.123.13.15a5.079,5.079,0,0,1,.51.648,7.356,7.356,0,0,1,.787,1.678,12.266,12.266,0,0,1,.446,1.961,18.25,18.25,0,0,1,.161,2.094,26.478,26.478,0,0,1-.268,4.3,30.7,30.7,0,0,1-.9,4.795,16.108,16.108,0,0,1-1.075,2.657,8.93,8.93,0,0,1-.712,1.143,3.21,3.21,0,0,1-.747.769,2.527,2.527,0,0,1-.446.232c-.185.077-.371.151-.56.212a5.793,5.793,0,0,1-1.155.246,6.049,6.049,0,0,1-2.388-.252,7.771,7.771,0,0,1-2.525-1.332,2.433,2.433,0,0,0-2.236-.557c-.1.02-.257.038-.3.1a3.713,3.713,0,0,0-.787,1.536c-.04.369.412.8.687,1.185a.476.476,0,0,0,.113.089,14.069,14.069,0,0,0,2.088,1.24Z"/>
            </g>
          </g>
        </g>
      </g>
      <g id="グループ_24" data-name="グループ 24">
        <g id="グループ_23" data-name="グループ 23">
          <g id="グループ_22" data-name="グループ 22">
            <g id="グループ_21" data-name="グループ 21">
              <path id="パス_9" data-name="パス 9" d="M1034.036,648.7c-2.586.335-5.208.5-7.826.594-.645.012-1.288.069-1.935.132-.645.045-1.294.091-1.943.107-.749,0-1.5-.024-2.247-.047l-2.24-.162-2.12-.234c-.7-.089-1.4-.213-2.106-.319-1.428-.227-2.912-.517-4.367-.743-.886-.159-1.768-.34-2.651-.523s-1.768-.366-2.662-.494c-.422-.06-.844-.118-1.267-.164l-1.274-.113-1.274-.107-1.276-.092c-1.574-.141-3.155-.237-4.737-.367-1.259-.076-2.52-.171-3.786-.155a28.988,28.988,0,0,0-3.791.215c-.833.1-1.673.185-2.518.23-.423.018-.846.059-1.269.1s-.846.086-1.267.137a37.121,37.121,0,0,0-8.764,2.192l-.956.388c-.311.134-.6.285-.9.427-.594.286-1.188.572-1.76.9s-1.158.63-1.713.982l-.842.516-.817.553c-.214.145-.4.329-.6.485l-1.1.88c-.36.3-.715.609-1.088.9a5.9,5.9,0,0,0-2.122,2.8,1.346,1.346,0,0,1-.273.422c-.757.855-.515,2.066-.471,3.084.012.156.253.364.412.512a1.739,1.739,0,0,0,.374-.276c.432-.546.943-1.058,1.4-1.6a21.8,21.8,0,0,1,1.852-2.042c.953-.836,1.892-1.688,2.9-2.484a15.518,15.518,0,0,1,3.33-2.019c.357-.15.7-.317,1.041-.495s.691-.339,1.03-.521a20.691,20.691,0,0,1,2.057-.987c.192-.078.376-.171.574-.24l.6-.2,1.193-.415c.817-.232,1.644-.447,2.485-.609.446-.068.894-.125,1.342-.176s.9-.1,1.351-.116c.91-.037,1.8-.116,2.712-.147.724-.033,1.436-.141,2.16-.2s1.448-.132,2.174-.171c.955-.015,1.908-.043,2.862,0a20.308,20.308,0,0,1,2.858.333,21.42,21.42,0,0,0,3.324.25c.679.034,1.363.01,2.045.03s1.364.042,2.04.121a17.1,17.1,0,0,1,1.931.4c.639.153,1.274.326,1.915.459,1.3.251,2.611.451,3.919.666,1.3.239,2.549.488,3.97.732l1.036.18,1.042.132c.695.084,1.388.181,2.085.222,1.556.131,3.115.059,4.66.046l1.382-.01,1.38-.036c.92-.011,1.836-.075,2.753-.116,1.656-.116,3.308-.249,4.953-.443.922-.109,1.843-.227,2.772-.323a1.588,1.588,0,0,0,1.566-1.29c.023-.092.063-.224.025-.29a8.294,8.294,0,0,0-.884-1.449c-.235-.25-.652-.2-.992-.287a.226.226,0,0,0-.1.013c-.52.107-1.05.2-1.578.293Z"/>
            </g>
          </g>
        </g>
      </g>
      <g id="グループ_28" data-name="グループ 28">
        <g id="グループ_27" data-name="グループ 27">
          <g id="グループ_26" data-name="グループ 26">
            <g id="グループ_25" data-name="グループ 25">
              <path id="パス_10" data-name="パス 10" d="M956.857,686.582c-.808-1.732-1.548-3.482-2.177-5.241a24.786,24.786,0,0,1-1.319-5.233c-.07-.41-.084-.883-.114-1.338s-.039-.919-.053-1.38c-.023-.922-.013-1.85.018-2.78.061-1.859.205-3.727.414-5.59l.3-2.5.163-1.245.088-.619.022-.154.05-.289.106-.6-.7-1.834c-.176-.48-.349-.962-.513-1.447-.331-.97-.643-1.947-.922-2.931a52.111,52.111,0,0,1-2.117-12.612,20.56,20.56,0,0,1,.6-5.8,13.05,13.05,0,0,1,.444-1.339,9.932,9.932,0,0,1,.629-1.224l.174-.294.2-.268a5.168,5.168,0,0,1,.424-.529,6.984,6.984,0,0,1,1.007-.931,7.314,7.314,0,0,1,2.49-1.236,11.74,11.74,0,0,1,2.967-.4,34.954,34.954,0,0,1,6.471.733c1.354.238,2.727.515,4.232.646a9.347,9.347,0,0,0,2.425-.077c.369-.071.744-.143,1.083-.227s.693-.163,1.028-.251c2.691-.7,5.287-1.473,7.889-2.266,4.894-1.508,9.742-3.1,14.652-4.514,4.549-1.3,9.135-2.511,13.756-3.493,3.671-.774,7.358-1.459,11.043-1.918,1.841-.244,3.682-.408,5.507-.5a30.127,30.127,0,0,1,5.341.135,13.71,13.71,0,0,1,6.176,2.427,19.343,19.343,0,0,1,4.6,4.817,31.258,31.258,0,0,1,3.748,7.6c.466,1.343.863,2.712,1.2,4.093.169.691.314,1.385.451,2.08l.186,1.044.09.569c.056.35.1.7.143,1.057.364.347.668.654.909.875l.953.84.684.169.085.021.035.012.07.025.14.049.28.1.279.119c.376.145.74.349,1.108.533.352.223.724.409,1.06.666l.517.362c.169.126.328.267.493.4a19.851,19.851,0,0,1,3.495,3.826l.723,1.1a5.432,5.432,0,0,1,.341.562l.323.575.323.574.162.287.141.3.568,1.2c.09.2.2.4.273.593l.22.571c.161.371.259.785.386,1.18a22.047,22.047,0,0,1,.547,2.489,39.286,39.286,0,0,1,.459,5.214c.006.347.027.7.05,1.043s.027.7.029,1.049a67.167,67.167,0,0,1-.411,7.686,93.127,93.127,0,0,0-.828,9.754,8.271,8.271,0,0,1-.177,1.4c-.6,3.127-.2,5.713-.28,8.514-.013.433.245.711.373,1.069a12.93,12.93,0,0,0,.522-1.348c.6-2.174,1.165-4.356,1.61-6.566.563-2.836.948-5.707,1.362-8.568a81.606,81.606,0,0,0,.857-11.778,59.248,59.248,0,0,0-.285-5.954,28.855,28.855,0,0,0-1.188-5.992l-.309-.873c-.115-.281-.243-.55-.366-.825-.256-.545-.486-1.1-.777-1.636l-.9-1.6c-.33-.52-.685-1.031-1.03-1.545s-.769-.99-1.152-1.484c-.4-.485-.855-.939-1.28-1.409a20.8,20.8,0,0,0-3-2.475c-.307-.226-.649-.414-.982-.611s-.686-.37-1.036-.544-.728-.313-1.093-.468l-.573-.193-.141-.048-.066-.017-.132-.035a3.48,3.48,0,0,0-.384-.075c-.047.008-.039-.032-.045-.062l-.012-.091-.027-.183-.153-.891c-.07-.4-.152-.8-.234-1.207-.165-.8-.354-1.6-.556-2.394q-.611-2.385-1.456-4.721a40.965,40.965,0,0,0-1.582-3.811,28.957,28.957,0,0,0-2.05-3.672,22.053,22.053,0,0,0-2.693-3.4,18.092,18.092,0,0,0-3.491-2.857,17.1,17.1,0,0,0-7.021-2.492,37.614,37.614,0,0,0-7.225-.076c-3.085.216-6.1.655-9.093,1.153s-5.954,1.07-8.923,1.624a103.587,103.587,0,0,0-10.158,2.615c-4.089,1.209-8.084,2.631-12.131,3.872-1.952.6-3.919,1.142-5.884,1.676l-5.853,1.572-.724.188-.7.167c-.231.054-.435.088-.653.135a4.139,4.139,0,0,1-.495.049,8.507,8.507,0,0,1-1.235-.043c-.448-.038-.927-.106-1.413-.179-1.962-.305-4.07-.757-6.305-1a24.062,24.062,0,0,0-3.446-.146,14.735,14.735,0,0,0-3.613.551A10.716,10.716,0,0,0,949,630.447a13.143,13.143,0,0,0-1.468,3.03,17.8,17.8,0,0,0-.7,3.087,28.292,28.292,0,0,0-.147,6.054,44.632,44.632,0,0,0,1,6.537c.472,2.144,1.052,4.255,1.682,6.354q.35,1.169.732,2.329L950.49,659l.2.581.046.126.014.034.027.066-.157.959-.2,1.323c-.127.881-.233,1.765-.334,2.649-.192,1.77-.329,3.547-.391,5.334-.03,1.175-.051,2.352-.005,3.536a27.545,27.545,0,0,0,.307,3.614,34.549,34.549,0,0,0,2.095,6.932c1,2.485,2.156,4.9,3.343,7.287.973,1.952,2.094,3.463,3.506,4.122.146.07.373.2.411.114a4.878,4.878,0,0,0,.756-2.031,12.088,12.088,0,0,0-.888-2.585,2.04,2.04,0,0,0-.135-.256c-.765-1.4-1.509-2.807-2.2-4.233Z"/>
            </g>
          </g>
        </g>
      </g>
      <g id="グループ_32" data-name="グループ 32">
        <g id="グループ_31" data-name="グループ 31">
          <g id="グループ_30" data-name="グループ 30">
            <g id="グループ_29" data-name="グループ 29">
              <path id="パス_11" data-name="パス 11" d="M986.419,683.226c-.461,1.526-.953,3.045-1.355,4.586-.2.76-.21,1.566-.358,2.338-.167.892-.4,1.769-.6,2.651-.4,1.674-.748,3.36-1.2,5.021-.275,1.01-.775,1.964-1.09,2.968-.3.944-.477,1.921-.736,2.88-.249.883-.491,1.78-.789,2.66-.222.714-.448,1.416-.611,2.162-.077.379-.144.76-.2,1.143-.021.209-.025.455-.029.68v.381a1.655,1.655,0,0,0,.008.217l.045.248a4.528,4.528,0,0,0,1.244,2.14,9.025,9.025,0,0,0,1.443,1.216,31.249,31.249,0,0,0,5.214,2.64c1.567.65,3.144,1.228,4.732,1.765.155.055.33.057.488.1.579.169,1.167.307,1.73.513a3.485,3.485,0,0,0,2.322.179.577.577,0,0,1,.333.025c.7.219,1.5-.447,2.244-.791.115-.054.245-.322.364-.492-.082-.083-.157-.2-.254-.246a14.463,14.463,0,0,0-1.39-.579c-.611-.193-1.257-.288-1.862-.5-1.639-.58-3.419-.792-4.954-1.638a22.345,22.345,0,0,0-2.85-1.073,21.5,21.5,0,0,1-3.008-1.3,8.744,8.744,0,0,1-1.318-.957,8.431,8.431,0,0,1-.97-.995l-.179-.239a.7.7,0,0,1-.089-.172,2.916,2.916,0,0,1-.01-.4l0-.259c.01-.1.027-.2.042-.3a11.312,11.312,0,0,1,.34-1.6,6.783,6.783,0,0,1,.662-1.577,5.964,5.964,0,0,0,.546-1.9,24.057,24.057,0,0,1,.394-2.392c.232-.746.719-1.427,1-2.161a21.233,21.233,0,0,0,.669-2.28c.406-1.522.828-3.04,1.192-4.574.2-.856.263-1.749.439-2.613.217-1.03.481-2.05.745-3.069.237-.923.492-1.841.759-2.756a15,15,0,0,1,.515-1.519c.17-.4.055-.814-.739-1.28a.96.96,0,0,0-.275-.133,11.437,11.437,0,0,0-1.755-.155c-.33.021-.436.265-.637.412-.019.014-.016.037-.021.056l-.226.963Z"/>
            </g>
          </g>
        </g>
      </g>
      <g id="グループ_36" data-name="グループ 36">
        <g id="グループ_35" data-name="グループ 35">
          <path id="パス_12" data-name="パス 12" d="M1001.023,677.322c14.429-5.456,33.037-.117,33.037-.117a2.436,2.436,0,0,1,.924,1.967c-.086,1.215-.656,1.919-1.758,1.771s-9.831-2.55-16.908-2.118a90.3,90.3,0,0,0-14.484,2.4c-.9.138-1.747-.466-2.025-1.776S1001.023,677.322,1001.023,677.322Z"/>
          <g id="グループ_34" data-name="グループ 34">
            <g id="グループ_33" data-name="グループ 33">
              <path id="パス_13" data-name="パス 13" d="M1004.245,677.57a44.4,44.4,0,0,1,7.063-1.27c1.182-.126,2.364-.325,3.566-.4,1.385-.082,2.78-.086,4.176-.049a62.9,62.9,0,0,1,7.946.688c1.6.25,3.16.689,4.719,1.073l1.778.439a.462.462,0,0,1,.125.114,1.59,1.59,0,0,1,.2.311,1.147,1.147,0,0,1,.122.659,1.9,1.9,0,0,1-.159.644.357.357,0,0,1-.087.12.288.288,0,0,1-.11.06.306.306,0,0,1-.124.01c-.015,0-.056-.011-.087-.012l-.186-.041c-.309-.073-.663-.164-1.006-.253a44.373,44.373,0,0,0-6.778-1.362c-1.53-.159-3.057-.447-4.615-.563a35.755,35.755,0,0,0-4.136-.106c-1.379.053-2.72.16-4.066.314-2.4.265-4.778.662-7.124,1.139-.23.046-.451.129-.681.181-.834.192-1.666.414-2.487.582l-.693.144c-.062.013-.04.014-.07.033-.038.046-.289-.019-.586-.271a.565.565,0,0,1-.15-.278,1.523,1.523,0,0,0-.149-.4,1.61,1.61,0,0,1-.13-.427,1.848,1.848,0,0,1,.243-1.176c.075-.122,0-.313.038-.49a1.947,1.947,0,0,0-.509.2,3.159,3.159,0,0,0-.881.885,2.008,2.008,0,0,0-.315,1.3,2.325,2.325,0,0,0,.075.4,3.713,3.713,0,0,0,.119.367,3.1,3.1,0,0,0,.395.72,2.439,2.439,0,0,0,1.614.99,2.3,2.3,0,0,0,.689,0l.272-.05.239-.052.925-.222,1.824-.45a27.286,27.286,0,0,1,3.707-.664c1.466-.141,2.913-.453,4.38-.625a34.166,34.166,0,0,1,4.8-.337,42.915,42.915,0,0,1,5,.568c1.33.194,2.68.323,4.014.558a32.583,32.583,0,0,1,5.175,1.294c.132.043.249.083.4.122a3.309,3.309,0,0,0,.548.1,2.771,2.771,0,0,0,1.425-.22,2.447,2.447,0,0,0,1.039-.934,3.082,3.082,0,0,0,.387-1.032,3.4,3.4,0,0,0,.061-.444l.013-.218,0-.256a3.091,3.091,0,0,0-.226-1,3.516,3.516,0,0,0-.509-.861c-.053-.066-.1-.125-.162-.192-.072-.084-.147-.158-.224-.234a4,4,0,0,0-.5-.4l-1.084-.284c-1.212-.324-2.386-.764-3.61-1.046s-2.5-.478-3.762-.65a64.331,64.331,0,0,0-7.574-.62c-1.418-.029-2.832.083-4.243.176-1.684.1-3.368.253-5.038.49-1.511.224-3.012.51-4.495.867l-1.241.318c-.411.115-.821.234-1.236.341a1.568,1.568,0,0,0-1.3,1.157c-.014.066-.042.162-.005.2a4.347,4.347,0,0,0,.884.825c.226.125.6.013.9,0a.3.3,0,0,0,.084-.027l1.387-.459Z"/>
            </g>
          </g>
        </g>
      </g>
      <g id="グループ_40" data-name="グループ 40">
        <g id="グループ_39" data-name="グループ 39">
          <path id="パス_14" data-name="パス 14" d="M957.265,681.313c9.437-6.843,28.929-3.058,28.929-3.058s1.423.612.976,1.624-.663,2.038-2.419,1.858-10.539-1.076-15.352-.284a61.585,61.585,0,0,0-10.613,2.625c-.95.458-2.043-.523-2.3-1.256S957.265,681.313,957.265,681.313Z"/>
          <g id="グループ_38" data-name="グループ 38">
            <g id="グループ_37" data-name="グループ 37">
              <path id="パス_15" data-name="パス 15" d="M960.1,681.076a19.335,19.335,0,0,1,2.773-1.12c.969-.3,1.959-.563,2.971-.779s1.986-.5,3.016-.658a34.136,34.136,0,0,1,3.6-.355,53.5,53.5,0,0,1,6.946.038c1.409.106,2.8.395,4.189.612l2.233.346a.5.5,0,0,1,.1.049c.031.022.066.042.093.064a.488.488,0,0,1,.048.037.3.3,0,0,1,.1.159.252.252,0,0,1-.031.172l-.122.274c-.045.1-.089.2-.131.285a1.664,1.664,0,0,1-.244.383.347.347,0,0,1-.176.111.861.861,0,0,1-.306.023c-.139,0-.3-.033-.578-.069l-.746-.1q-.747-.1-1.5-.174c-1-.1-2-.164-3.014-.173-1.334-.011-2.673-.162-4.023-.2-1.181-.031-2.369-.035-3.573.025-.3.011-.6.027-.907.055s-.6.04-.915.085-.626.074-.916.121l-.872.141c-2.075.352-4.12.785-6.151,1.3-.2.05-.388.133-.587.192-.726.206-1.438.439-2.186.66a6.426,6.426,0,0,0-.943.347.187.187,0,0,1-.05.086c-.028.015-.038.052-.112.051a1.54,1.54,0,0,1-.289-.034.379.379,0,0,1-.207-.146.414.414,0,0,0-.11-.113l-.116-.071a.827.827,0,0,1-.268-.243.845.845,0,0,1-.143-.423,1.487,1.487,0,0,1,.1-.564c.045-.117-.063-.293-.063-.463a1.665,1.665,0,0,0-.426.214,2.984,2.984,0,0,0-.4.4,2.074,2.074,0,0,0-.317.553,1.423,1.423,0,0,0,.154,1.24,2.713,2.713,0,0,0,.481.61,2.9,2.9,0,0,0,.616.46,2.255,2.255,0,0,0,1.727.253c.1-.039.21-.066.311-.111.434-.173.932-.331,1.422-.493s.993-.315,1.5-.464a20.991,20.991,0,0,1,3.089-.689c1.275-.17,2.517-.52,3.783-.747.347-.062.693-.127,1.027-.173s.677-.1,1.023-.131.692-.064,1.041-.081.7-.03,1.052-.028c1.473,0,2.949.191,4.424.3,1.18.081,2.37.075,3.556.161.775.057,1.55.123,2.321.223.386.049.769.108,1.154.177a4.311,4.311,0,0,0,1.651.017,2.507,2.507,0,0,0,.959-.447,2.767,2.767,0,0,0,.626-.7,4.344,4.344,0,0,0,.322-.638l.232-.584a1.769,1.769,0,0,0,.08-.27,2.6,2.6,0,0,0,.065-.271,1.975,1.975,0,0,0-.522-1.585,3.024,3.024,0,0,0-.32-.31,3.089,3.089,0,0,0-.329-.241c-.1-.062-.2-.121-.345-.2a4.237,4.237,0,0,0-.409-.183c-.472-.077-.6-.087-.844-.123-.226-.033-.45-.065-.673-.1-1.078-.184-2.133-.505-3.22-.667s-2.214-.242-3.325-.306a55.937,55.937,0,0,0-6.653-.015c-1.24.084-2.465.294-3.689.488a42.078,42.078,0,0,0-4.354.894,25.954,25.954,0,0,0-3.807,1.314q-1.033.456-2.034.993a1.5,1.5,0,0,0-.639.537,1.068,1.068,0,0,0-.151.783c.01.064.017.159.062.188a5.621,5.621,0,0,0,1.037.623c.233.082.505-.083.759-.131a.172.172,0,0,0,.064-.034c.347-.2.666-.435,1.035-.612Z"/>
            </g>
          </g>
        </g>
      </g>
      <g id="グループ_44" data-name="グループ 44">
        <g id="グループ_43" data-name="グループ 43">
          <g id="グループ_42" data-name="グループ 42">
            <g id="グループ_41" data-name="グループ 41">
              <path id="パス_16" data-name="パス 16" d="M978,704.03c-1.358.083-2.72.122-4.075.229-.667.052-1.322.281-1.988.37-.768.108-1.539.155-2.309.212-1.462.1-2.925.225-4.367.184a4.779,4.779,0,0,1-.635-.057l-.313-.051a2.016,2.016,0,0,1-.263-.055.744.744,0,0,1-.3-.285,5.067,5.067,0,0,1-.942-1.474,8.727,8.727,0,0,1-.521-1.925,18.905,18.905,0,0,0-.622-3.247,9.871,9.871,0,0,1-.255-2.218c-.121-1.3-.206-2.616-.271-3.931q-.079-1.766-.12-3.536c0-.116-.061-.231-.071-.347a9.67,9.67,0,0,1-.07-1.272,1.849,1.849,0,0,0-.561-1.6.29.29,0,0,1-.076-.231c.017-.52-.915-.924-1.485-1.381a2.94,2.94,0,0,0-.617-.167c-.066.08-.171.155-.19.235a6.163,6.163,0,0,0-.2,1.11c-.018.476.085.951.06,1.426-.068,1.293.347,2.571.1,3.874a8.2,8.2,0,0,0,.14,2.283c.08.833.244,1.66.273,2.5.028.876-.123,1.773-.062,2.659a16.632,16.632,0,0,0,.444,2.1,10.819,10.819,0,0,1,.33,2.846,3.6,3.6,0,0,0,.5,1.683,14.774,14.774,0,0,0,1.353,2.011,6.2,6.2,0,0,0,.978,1.178,3.321,3.321,0,0,0,1.712.842.971.971,0,0,0,.142.028l.6.067c.177.015.356.029.531.037l1.04.018c1.417.007,2.809-.015,4.193-.114.772-.055,1.532-.258,2.3-.351.913-.11,1.827-.181,2.739-.26.826-.074,1.652-.134,2.478-.19a12.954,12.954,0,0,1,1.394-.035c.383.016.682-.214.812-1.05a.884.884,0,0,0,.022-.279,11.56,11.56,0,0,0-.416-1.561c-.116-.277-.343-.29-.52-.417-.017-.012-.034,0-.051,0l-.836.11Z"/>
            </g>
          </g>
        </g>
      </g>
      <g id="グループ_48" data-name="グループ 48">
        <g id="グループ_47" data-name="グループ 47">
          <path id="パス_17" data-name="パス 17" d="M1011.7,687.786c-.007,2.316,1.364,4.216,3.061,4.243s3.079-1.828,3.086-4.144-1.364-4.216-3.062-4.243S1011.71,685.469,1011.7,687.786Z"/>
          <g id="グループ_46" data-name="グループ 46">
            <g id="グループ_45" data-name="グループ 45">
              <path id="パス_18" data-name="パス 18" d="M1011.569,687.783l.6-.09c.273-.043.336-.1.279-.171-.035-.05-.1-.1-.112-.152a.766.766,0,0,1,.023-.481c.009-.028.048-.05.07-.074s.086-.05.07-.085a.7.7,0,0,1-.031-.415c.033-.129.083-.254.12-.382a2.568,2.568,0,0,1,.293-.488c.039-.087-.02-.232.061-.3.318-.23.477-.553.783-.751a3.012,3.012,0,0,1,.273-.17.328.328,0,0,1,.3-.056c.093.038.148-.057.228-.1a1.054,1.054,0,0,1,.273-.07.517.517,0,0,1,.274.075.4.4,0,0,0,.2.079.725.725,0,0,0,.236.012c.077-.005.1.089.16.106a.8.8,0,0,1,.471.3,3.078,3.078,0,0,1,.385.536c.047.151.148.268.191.417a3.835,3.835,0,0,1,.1.546.414.414,0,0,0,.1.176.268.268,0,0,1,.073.269c-.036.109.082.188.123.286.008.016.062.025.045.042-.191.192.143.308.18.478.032.112.166.226.1.342a.767.767,0,0,0-.061.278.189.189,0,0,0,.1.206c.089.069.088.149,0,.206s-.07.129-.1.193a.836.836,0,0,1-.132.2.3.3,0,0,0-.042.069,3.777,3.777,0,0,1-.218.646c-.037.078-.155.128-.136.221a.413.413,0,0,1,.007.257.329.329,0,0,1-.087.127.3.3,0,0,0-.093.428c.018.038-.027.043-.03.07a1.624,1.624,0,0,1-.031.251c-.006.026-.015.053-.051.058-.145.027-.164.136-.2.249a.446.446,0,0,1-.331.254c-.381.095-.665.216-.992.3a1.14,1.14,0,0,1-.4.037.557.557,0,0,1-.181-.1c-.077-.048-.188.036-.285.027a.494.494,0,0,1-.442-.222.692.692,0,0,0-.171-.224c-.061-.069-.13-.128-.193-.192-.086-.11-.267-.154-.29-.312-.059-.278-.312-.446-.4-.709a3.711,3.711,0,0,1-.167-.633.982.982,0,0,1,.1-.354.1.1,0,0,0,0-.061c-.044-.115.049-.249.086-.368a.6.6,0,0,0,0-.391c-.016-.076-.146-.146-.387-.215-.18-.052-.339-.113-.5-.173-.516,0-.516.005-.578.089a.535.535,0,0,0-.069.484c.027.1.007.21.025.314a5.483,5.483,0,0,1,.023.816l0,.015a5.8,5.8,0,0,0,.107.651c.027.114.034.235.073.349a.728.728,0,0,0,.131.194c.058.065.191.091.192.178,0,.284.269.425.394.649.083.126.114.312.341.32a.764.764,0,0,0,.372.376,3.152,3.152,0,0,1,.475.294,1.787,1.787,0,0,0,1,.379,2.04,2.04,0,0,0,.414-.03c.135-.027.265-.07.393-.093l.682-.167a4.806,4.806,0,0,0,.655-.105,1.637,1.637,0,0,0,.493-.31,3.518,3.518,0,0,0,.832-1.043,4.459,4.459,0,0,0,.4-1.141c.03-.148.01-.309.132-.425.181-.172.07-.406.315-.572.017-.012.009-.03.012-.045a4.46,4.46,0,0,0,.042-1.734c-.065-.289-.234-.56-.316-.837-.05-.163-.124-.317-.158-.484-.038-.237-.058-.488-.108-.74a.094.094,0,0,0-.023-.044c-.187-.193-.243-.451-.42-.653-.125-.121-.1-.355-.348-.39-.141-.456-.67-.618-1.072-.874-.081-.052-.13-.176-.239-.189-.194-.027-.347-.2-.565-.142a1.526,1.526,0,0,1-.386.011,1.351,1.351,0,0,0-.375-.014,6.505,6.505,0,0,0-1.615.466,2.221,2.221,0,0,0-.948.751,10.34,10.34,0,0,0-.585.941,1.652,1.652,0,0,0-.161.208c-.023.053.034.136.008.186-.159.313-.166.658-.33.968a1.089,1.089,0,0,0-.033,1.005c.03.058,0,.114-.021.17C1010.949,687.675,1011.024,687.712,1011.569,687.783Z"/>
            </g>
          </g>
        </g>
      </g>
      <g id="グループ_52" data-name="グループ 52">
        <g id="グループ_51" data-name="グループ 51">
          <ellipse id="楕円形_1" data-name="楕円形 1" cx="2.703" cy="3.871" rx="2.703" ry="3.871" transform="translate(969.561 685.686) rotate(-0.557)"/>
          <g id="グループ_50" data-name="グループ 50">
            <g id="グループ_49" data-name="グループ 49">
              <path id="パス_19" data-name="パス 19" d="M969.477,689.486l.539-.083c.246-.04.3-.092.251-.157-.032-.045-.089-.093-.1-.139a.721.721,0,0,1,.018-.439c.008-.026.043-.046.063-.069s.077-.047.062-.078a1.048,1.048,0,0,1,.069-.73,2.52,2.52,0,0,1,.257-.452c.033-.081-.026-.212.048-.274.281-.219.415-.519.685-.707a2.192,2.192,0,0,1,.241-.16.287.287,0,0,1,.271-.058c.083.03.131-.053.2-.093a.834.834,0,0,1,.242-.064.436.436,0,0,1,.244.068.384.384,0,0,0,.18.075.651.651,0,0,0,.211.013c.068,0,.085.084.142.1a.746.746,0,0,1,.416.29,3.094,3.094,0,0,1,.333.5c.035.141.128.247.161.385a3.6,3.6,0,0,1,.079.5.365.365,0,0,0,.093.163.245.245,0,0,1,.061.247c-.033.1.072.173.108.263.007.014.056.023.041.039-.173.174.126.283.159.438.028.1.147.207.088.312a.673.673,0,0,0-.055.254.173.173,0,0,0,.088.188c.081.062.081.134,0,.187s-.063.118-.09.177a.827.827,0,0,1-.117.18.277.277,0,0,0-.038.063,3.757,3.757,0,0,1-.189.593c-.032.072-.14.12-.119.205a.372.372,0,0,1,.01.234.358.358,0,0,1-.075.119.274.274,0,0,0-.075.392c.017.033-.023.039-.026.064a1.33,1.33,0,0,1-.02.229c0,.024-.013.048-.045.054-.132.028-.141.131-.177.232a.409.409,0,0,1-.289.243c-.344.095-.595.212-.886.293a.951.951,0,0,1-.353.035.47.47,0,0,1-.16-.092c-.068-.044-.17.032-.257.02a.432.432,0,0,1-.391-.212,1.681,1.681,0,0,0-.317-.387c-.076-.1-.235-.149-.253-.292-.045-.255-.271-.414-.343-.656a3.78,3.78,0,0,1-.14-.581.982.982,0,0,1,.095-.322.089.089,0,0,0,0-.056c-.036-.106.046-.227.081-.336a.556.556,0,0,0,0-.36c-.013-.069-.131-.134-.348-.2-.162-.048-.3-.1-.45-.159-.466,0-.466.005-.522.081a.487.487,0,0,0-.063.437c.024.093.005.189.021.283a4.753,4.753,0,0,1,.011.737l0,.014a5.784,5.784,0,0,0,.084.587c.021.1.029.213.057.316a.628.628,0,0,0,.114.178c.052.059.171.085.167.165-.009.254.227.389.337.593.064.119.095.284.295.3.118.321.494.4.748.632a1.607,1.607,0,0,0,.913.369,1.9,1.9,0,0,0,.385-.025c.125-.024.246-.064.365-.085l.625-.164a4.379,4.379,0,0,0,.6-.116,1.485,1.485,0,0,0,.436-.3,3.161,3.161,0,0,0,.716-.966,4.178,4.178,0,0,0,.33-1.037c.026-.133,0-.279.111-.385.162-.156.057-.367.277-.518.015-.011.008-.027.01-.041a4.187,4.187,0,0,0,.035-1.562c-.057-.261-.207-.506-.276-.757a4.347,4.347,0,0,1-.136-.438c-.03-.214-.043-.441-.08-.669a.076.076,0,0,0-.02-.04.975.975,0,0,1-.182-.3,1.777,1.777,0,0,0-.179-.3c-.1-.114-.081-.32-.3-.361-.115-.414-.585-.578-.943-.823-.076-.048-.113-.166-.214-.179-.179-.028-.315-.187-.518-.143a1.438,1.438,0,0,1-.358,0,1.23,1.23,0,0,0-.347-.013,5.272,5.272,0,0,0-1.472.458,1.975,1.975,0,0,0-.83.708,9.888,9.888,0,0,0-.5.862,1.786,1.786,0,0,0-.139.191c-.019.049.033.122.011.168-.135.284-.139.6-.28.876a.993.993,0,0,0-.023.907c.028.052,0,.1-.018.153C968.919,689.388,968.986,689.421,969.477,689.486Z"/>
            </g>
          </g>
        </g>
      </g>
      <g id="グループ_53" data-name="グループ 53">
        <path id="パス_20" data-name="パス 20" d="M988.247,686.585a2.334,2.334,0,0,0,1.269-.264c4.642-2.482,11.832-.176,11.9-.153a2.23,2.23,0,0,0,2.8-1.189,2,2,0,0,0-1.341-2.584c-.372-.123-9.153-3.013-15.621.444a1.9,1.9,0,0,0-.757,2.748A2.269,2.269,0,0,0,988.247,686.585Z"/>
      </g>
      <g id="グループ_57" data-name="グループ 57">
        <g id="グループ_56" data-name="グループ 56">
          <g id="グループ_55" data-name="グループ 55">
            <g id="グループ_54" data-name="グループ 54">
              <path id="パス_21" data-name="パス 21" d="M1019.381,658.233a18.427,18.427,0,0,0-.2,3.082,9.823,9.823,0,0,0,.359,1.532c.121.586.222,1.178.364,1.767a12.942,12.942,0,0,0,1.348,3.324,7.836,7.836,0,0,0,1.344,2.041,6.337,6.337,0,0,0,2.243,1.2l.564.172c.188.056.376.084.565.127.381.095.749.128,1.126.187a8.633,8.633,0,0,0,1.7.069,5.293,5.293,0,0,0,1.661-.366c.688-.288,1.458-.392,2.148-.7a11.655,11.655,0,0,0,3.213-2.1,13.372,13.372,0,0,0,2.122-2.476c.063-.085.065-.2.116-.291.186-.33.325-.677.531-.994a1.283,1.283,0,0,0,.1-1.449.213.213,0,0,1,.006-.206c.186-.409-.584-1.008-1.04-1.474a2.484,2.484,0,0,0-.57-.248.579.579,0,0,0-.226.1,5.212,5.212,0,0,0-.461.684,9.278,9.278,0,0,1-.372.952c-.246.4-.407.835-.618,1.253a2.69,2.69,0,0,1-.888,1.093,7.986,7.986,0,0,0-1.107,1.2,5.6,5.6,0,0,1-1.384,1.107,8.338,8.338,0,0,1-1.829.463c-.471.095-.892.345-1.384.419a4.1,4.1,0,0,1-.967.068,1.888,1.888,0,0,1-.928-.283.922.922,0,0,0-.231-.1.878.878,0,0,0-.217-.063,1.679,1.679,0,0,0-.225-.017l-.21-.034a2.143,2.143,0,0,1-1.02-.233.929.929,0,0,1-.26-.432l-.079-.242a1.028,1.028,0,0,0-.084-.234,3.96,3.96,0,0,0-.248-.428c-.079-.16-.191-.291-.266-.465a10.5,10.5,0,0,1-.764-2.258c-.114-.459-.355-.928-.456-1.42a10.922,10.922,0,0,1-.164-1.793,13.117,13.117,0,0,1,.061-1.646,4.1,4.1,0,0,1,.172-.906c.081-.241-.112-.471-.97-.762a1.739,1.739,0,0,0-.292-.086,13.7,13.7,0,0,0-1.739-.1c-.32.02-.379.187-.548.291-.016.009-.008.025-.009.038l-.029.645Z"/>
            </g>
          </g>
        </g>
      </g>
      <g id="グループ_61" data-name="グループ 61">
        <g id="グループ_60" data-name="グループ 60">
          <g id="グループ_59" data-name="グループ 59">
            <g id="グループ_58" data-name="グループ 58">
              <path id="パス_22" data-name="パス 22" d="M1029.695,649.647c-.559-.793-1.05-1.622-1.553-2.446-.25-.4-.584-.775-.851-1.18-.289-.473-.536-.968-.778-1.464a20.031,20.031,0,0,1-1.171-2.91,16.449,16.449,0,0,1-.3-1.867c-.087-.586-.267-1.157-.342-1.746a12.5,12.5,0,0,1-.136-1.639c0-.436.005-.871-.014-1.3a9.2,9.2,0,0,0-.113-1.3,8.277,8.277,0,0,1,.035-1.731q.079-1.516.268-3.022.18-1.344.443-2.673c.019-.087,0-.18.011-.268a7.167,7.167,0,0,1,.178-.956,1.551,1.551,0,0,0-.055-1.264.235.235,0,0,1,0-.182c.12-.379-.4-.823-.651-1.262-.04-.068-.234-.153-.354-.236-.064.052-.148.089-.181.148a5.014,5.014,0,0,0-.387.811c-.116.359-.145.737-.256,1.1-.3.98-.245,2.013-.6,2.986a6.768,6.768,0,0,0-.229,1.777c-.055.652-.043,1.308-.117,1.958-.076.68-.261,1.36-.306,2.049a14.305,14.305,0,0,0,.113,1.652c.019.36.042.72.049,1.081a6.013,6.013,0,0,1-.092,1.095,3.127,3.127,0,0,0,.118,1.266c.107.511.332,1,.422,1.513.072.493,0,1.014.075,1.516a9.192,9.192,0,0,0,.394,1.49c.154.489.339.97.511,1.454.194.478.4.953.616,1.422.271.515.606,1,.918,1.495.183.3.358.593.529.892l.551.88c.321.536.7,1.043,1.037,1.567.19.294.411.572.584.876.145.248.415.367,1,.182a.649.649,0,0,0,.186-.076,7.9,7.9,0,0,0,.826-.752c.132-.16.053-.3.067-.446,0-.013-.013-.021-.02-.03l-.39-.465Z"/>
            </g>
          </g>
        </g>
      </g>
      <g id="グループ_65" data-name="グループ 65">
        <g id="グループ_64" data-name="グループ 64">
          <g id="グループ_63" data-name="グループ 63">
            <g id="グループ_62" data-name="グループ 62">
              <path id="パス_23" data-name="パス 23" d="M1009.213,647.833c-.19-.336-.368-.677-.544-1.02-.154-.352-.339-.692-.491-1.047s-.442-.655-.6-1.01c-.1-.2-.19-.408-.271-.616l-.218-.634c-.147-.4-.254-.813-.381-1.221a12.469,12.469,0,0,1-.266-1.25,4.561,4.561,0,0,1-.026-.775c.016-.26.037-.52.029-.777-.009-.485-.092-.969-.093-1.456a9,9,0,0,1,.079-1.352,9.583,9.583,0,0,0,.149-2.145,6.226,6.226,0,0,1,.188-1.42q.189-1.242.454-2.472c.16-.733.332-1.463.524-2.187.02-.071,0-.15.016-.222a5.238,5.238,0,0,1,.186-.785,1.113,1.113,0,0,0-.06-1.063.172.172,0,0,1,0-.153c.113-.311-.4-.716-.673-1.1a2.109,2.109,0,0,0-.357-.218c-.061.039-.143.065-.173.112a3.78,3.78,0,0,0-.36.653c-.108.292-.134.6-.241.895a22.364,22.364,0,0,1-.641,2.431,4.88,4.88,0,0,0-.3,1.449c-.087.532-.115,1.073-.227,1.6-.125.552-.362,1.094-.463,1.655a10.5,10.5,0,0,0-.047,1.363,5.456,5.456,0,0,1-.288,1.778,2.162,2.162,0,0,0-.045,1.048c.032.428.2.852.2,1.278,0,.411-.146.834-.159,1.254a7.4,7.4,0,0,0,.15,1.264,17.023,17.023,0,0,0,.614,2.481,12.756,12.756,0,0,0,.623,1.319c.11.263.244.522.361.783s.233.524.372.778l.355.7.386.685c.134.26.292.509.419.775.1.217.344.322.922.149a.742.742,0,0,0,.187-.069,10.435,10.435,0,0,0,.9-.673c.15-.14.1-.258.136-.382,0-.012-.008-.017-.013-.025l-.291-.386Z"/>
            </g>
          </g>
        </g>
      </g>
      <g id="グループ_69" data-name="グループ 69">
        <g id="グループ_68" data-name="グループ 68">
          <g id="グループ_67" data-name="グループ 67">
            <g id="グループ_66" data-name="グループ 66">
              <path id="パス_24" data-name="パス 24" d="M989.118,647.169c-.222-.541-.433-1.083-.622-1.635a8.718,8.718,0,0,0-.466-.773,6.579,6.579,0,0,1-.347-.949c-.1-.3-.212-.607-.3-.915s-.15-.622-.2-.936a2.612,2.612,0,0,1-.014-.58,4.656,4.656,0,0,0,.05-.583c0-.363-.1-.721-.1-1.084a7.745,7.745,0,0,1,.059-1.008,4.769,4.769,0,0,0,.076-1.593,3.793,3.793,0,0,1,.125-1.053c.031-.308.094-.613.144-.918s.1-.61.171-.912c.109-.542.243-1.077.377-1.611.016-.052-.007-.112,0-.165a3.356,3.356,0,0,1,.129-.578.685.685,0,0,0-.13-.8.1.1,0,0,1-.013-.115c.087-.226-.446-.571-.731-.892a2.634,2.634,0,0,0-.361-.2c-.056.024-.136.04-.163.076a2.3,2.3,0,0,0-.314.484c-.09.22-.094.461-.182.679-.241.6-.147,1.258-.484,1.838a2.822,2.822,0,0,0-.208,1.1c-.066.4-.041.815-.138,1.212-.107.416-.294.828-.38,1.252a5.376,5.376,0,0,0,.01,1.03,3.2,3.2,0,0,1-.237,1.345,1.385,1.385,0,0,0-.03.791c.028.322.212.636.217.957s-.162.633-.182.95a4.757,4.757,0,0,0,.124.947c.061.312.1.626.182.934s.169.616.267.921a7.248,7.248,0,0,0,.468.985c.181.391.331.787.483,1.182.125.361.312.7.453,1.06a3.723,3.723,0,0,1,.211.607c.039.172.237.259.825.142a1.011,1.011,0,0,0,.2-.048c.349-.167.751-.339,1.019-.5.177-.107.159-.2.225-.3.006-.009,0-.014-.006-.021l-.175-.321Z"/>
            </g>
          </g>
        </g>
      </g>
      <g id="グループ_73" data-name="グループ 73">
        <g id="グループ_72" data-name="グループ 72">
          <g id="グループ_71" data-name="グループ 71">
            <g id="グループ_70" data-name="グループ 70">
              <path id="パス_25" data-name="パス 25" d="M968.357,651.484c-.222-.238-.408-.5-.616-.749s-.377-.52-.583-.771c-.181-.259-.478-.46-.687-.714a7.687,7.687,0,0,1-.61-.939l-.266-.462-.241-.475a7.475,7.475,0,0,1-.41-.979,8.109,8.109,0,0,1-.167-1.27c-.069-.393-.189-.78-.25-1.176a6.364,6.364,0,0,1-.058-1.112,6.939,6.939,0,0,0-.056-1.763,3.991,3.991,0,0,1,.057-1.173c.05-.684.14-1.366.247-2.045.1-.607.219-1.21.357-1.808.015-.058-.01-.124,0-.184a3.664,3.664,0,0,1,.13-.648.82.82,0,0,0-.129-.884.126.126,0,0,1-.014-.128c.092-.255-.445-.611-.729-.95a2.677,2.677,0,0,0-.363-.2c-.058.033-.138.052-.165.091a2.725,2.725,0,0,0-.32.55c-.091.247-.1.513-.187.759a17.422,17.422,0,0,1-.474,2.062,3.454,3.454,0,0,0-.188,1.231c-.044.452-.028.909-.1,1.36-.075.47-.269.939-.317,1.42a7.575,7.575,0,0,0,.078,1.154,6.152,6.152,0,0,1,.018.756,2.491,2.491,0,0,1-.127.772,1.694,1.694,0,0,0,.066.892c.092.359.288.7.348,1.057s-.064.729-.005,1.085a4.459,4.459,0,0,0,.3,1.052,12.52,12.52,0,0,0,.91,2.009,12.38,12.38,0,0,0,.771,1c.309.393.581.8.9,1.183.269.357.571.691.857,1.034.154.2.337.373.478.581.118.169.352.206.869-.078a.87.87,0,0,0,.166-.1c.262-.27.574-.557.761-.8.124-.157.066-.248.088-.366,0-.011-.009-.013-.015-.019l-.306-.27Z"/>
            </g>
          </g>
        </g>
      </g>
      <g id="グループ_77" data-name="グループ 77">
        <g id="グループ_76" data-name="グループ 76">
          <g id="グループ_75" data-name="グループ 75">
            <g id="グループ_74" data-name="グループ 74">
              <path id="パス_26" data-name="パス 26" d="M1059.514,661.613a40.21,40.21,0,0,0-5-.985,9.48,9.48,0,0,0-1.263-.074l-1.265-.012c-.971-.025-1.945-.04-2.921,0-.463.032-.926.04-1.388.095s-.924.108-1.384.176l-1.374.264-1.909.508-.147.038c-.021.009-.059.006-.065.025l.005.075.016.3.026.6.018.606,0,.4c-.006.5-.017.993,0,1.489.037.936.154,1.868.208,2.8.051.867.086,1.735.093,2.6a27.994,27.994,0,0,0,.237,4.13c.03.19.051.381.067.573l.053.848q.052,1.085.1,2.172l.892-.154c.409-.074.819-.145,1.226-.208l.614-.1.4-.057,1.278-.165c.854-.1,1.709-.194,2.567-.27,1.534-.137,3.07-.245,4.606-.3.151,0,.3-.048.451-.056.551-.025,1.1-.08,1.654-.064a4.574,4.574,0,0,0,2.078-.322.689.689,0,0,1,.3-.04c.676.019,1.211-.509,1.82-.838.093-.05.149-.242.223-.368a1.318,1.318,0,0,0-.3-.128c-.483-.071-.97-.16-1.458-.185-.626-.018-1.253.016-1.878.006-1.7-.056-3.378.245-5.087.173a19.326,19.326,0,0,0-2.979.261c-1.083.129-2.155.316-3.239.437l-.552.055a1.143,1.143,0,0,1-.169.006l-.116,0a3.243,3.243,0,0,1-.361-.036c.016-.158.047-.3.054-.406,0-.031,0-.06,0-.09l-.019-.261-.064-.621c-.047-.413-.1-.827-.131-1.242a15.127,15.127,0,0,1,0-3.26,7.83,7.83,0,0,0-.079-1.9c-.081-.771-.274-1.537-.308-2.308-.032-.744.115-1.494.112-2.24-.012-.545.011-.338.009-.378l0,0,.05-.015.1-.032.052-.016.027-.008.117-.021.553-.1.552-.1c.184-.033.377-.042.566-.065.38-.031.752-.1,1.14-.106l1.157-.061c.435,0,.871-.027,1.309-.056.439-.014.882-.019,1.325-.011.528.023,1.057.066,1.586.114.528.067,1.059.116,1.585.2.956.137,1.906.324,2.848.538.526.125,1.052.259,1.559.433a1.049,1.049,0,0,0,1.226-.331c.044-.046.114-.109.12-.157a3.794,3.794,0,0,0,.049-1.094c-.048-.215-.314-.31-.485-.455a.156.156,0,0,0-.061-.02c-.345-.081-.688-.163-1.032-.236Z"/>
            </g>
          </g>
        </g>
      </g>
      <g id="グループ_81" data-name="グループ 81">
        <g id="グループ_80" data-name="グループ 80">
          <g id="グループ_79" data-name="グループ 79">
            <g id="グループ_78" data-name="グループ 78">
              <path id="パス_27" data-name="パス 27" d="M1046.454,727q-.055,12.4-.392,24.778c-.061,2.019-.085,4.086-.078,6.12s.027,4.074-.14,6a13.479,13.479,0,0,1-.223,1.589,3.9,3.9,0,0,1-.411,1.211,1.292,1.292,0,0,1-.279.291,4.352,4.352,0,0,1-.572.362,10.774,10.774,0,0,1-1.507.65,30.707,30.707,0,0,1-3.485.969c-1.206.271-2.437.5-3.676.711-1.611.27-3.237.5-4.871.712q-1.225.157-2.457.3l-1.888.2-2.076.209,2.076,10.057.316,1.52.044.205c.026.045-.026.046-.059.056l-.107.031-.431.12-2.2.583-2.305.595c-2.84.718-5.7,1.365-8.568,1.934-1.429.278-2.869.552-4.269.744l-.525.075-.5.048-.5.048c-.126,0-.251,0-.376,0a2.209,2.209,0,0,1-.436-.031c-.156-.017-.315-.037-.486-.068-.332-.05-.674-.114-1.02-.183-1.451-.288-2.938-.665-4.416-1.051q-1.109-.294-2.218-.606l-.755-.213c-.092-.027-.192-.05-.28-.082l.094-2.33.112-3.43q.093-3.437.187-6.874l-4.1.035-2.426-.009c-1.614-.014-3.231-.04-4.823-.1a38.045,38.045,0,0,1-11.5-2.062,17.823,17.823,0,0,1-4.8-2.565,9.1,9.1,0,0,1-2.986-3.861,6.624,6.624,0,0,1-.243-.754c-.051-.269-.115-.5-.16-.8-.088-.6-.179-1.189-.241-1.81-.143-1.225-.243-2.475-.341-3.72-.191-2.495-.328-5-.494-7.507-.566-8.782-1.027-17.583-1.471-26.382q-.564-11.811-1.127-23.619c-.033-.774-.126-1.548-.169-2.325-.155-2.828-.336-5.658-.433-8.484a66.684,66.684,0,0,0-1.021-10.667,10.645,10.645,0,0,1-.143-1.539c-.134-3.464-1.182-6.125-1.883-9.082-.108-.457-.436-.685-.662-1.02-.044.511-.126,1.015-.123,1.532.02,2.418.025,4.837.113,7.257.117,3.1.355,6.212.463,9.316.295,8.438,1.067,16.858,1.179,25.322.065,4.939.487,9.935.772,14.908.313,5.439.712,10.881.989,16.32.29,5.692.4,11.378.834,17.089l.15,1.715.192,1.724.123.875c.048.3.071.569.146.9a9.238,9.238,0,0,0,.538,1.882,11.217,11.217,0,0,0,2.114,3.368,15.26,15.26,0,0,0,3.068,2.555,22.543,22.543,0,0,0,4.648,2.232,35.8,35.8,0,0,0,4.916,1.338,50.317,50.317,0,0,0,5.007.735c1.688.17,3.344.245,4.978.342,1.216.068,2.44.1,3.668.108h1.519c.06,0,.119,0,.185-.008l.014.184q-.01.848-.02,1.692l-.044,4.228-.029,2.105-.012.524-.034.863-.1,1.9,1.979.584,1.5.424,2.252.619c1.088.3,2.18.594,3.293.874a29.453,29.453,0,0,0,3.536.714c.356.028.764.024,1.145.023l.93-.073c.616-.054,1.172-.139,1.757-.213l1.69-.273,1.664-.313c4.46-.9,8.818-2.036,13.169-3.188l3.3-.889.442-.12a.242.242,0,0,0,.052-.016l-.01-.052-.02-.1-.041-.209-.164-.835-.333-1.672-.722-3.6-.676-3.362-.274-1.353-.014-.04.033-.008.01,0h.005c.013,0-.035,0,.058-.007l.757-.083q1.515-.168,3.03-.367c2.021-.265,4.041-.571,6.065-.963,1.261-.244,2.522-.533,3.787-.89a19.5,19.5,0,0,0,3.844-1.477,7.7,7.7,0,0,0,1-.638,4.488,4.488,0,0,0,1-1.013,6.12,6.12,0,0,0,.846-2.137,23.057,23.057,0,0,0,.408-3.672c.129-2.806.133-5.534.226-8.267.082-2.748.159-5.505.2-8.253.084-4.979.127-9.956.155-14.93.017-2.786.029-5.576.084-8.357.045-2.275-.19-4.188-1.095-5.466-.094-.134-.226-.359-.3-.3a5.233,5.233,0,0,0-1.722,1.575,12.425,12.425,0,0,0-.486,2.913,2.123,2.123,0,0,0,0,.31q.027,2.564.054,5.129A.289.289,0,0,1,1046.454,727Z"/>
            </g>
          </g>
        </g>
      </g>
      <g id="グループ_85" data-name="グループ 85">
        <g id="グループ_84" data-name="グループ 84">
          <g id="グループ_83" data-name="グループ 83">
            <g id="グループ_82" data-name="グループ 82">
              <path id="パス_28" data-name="パス 28" d="M981.861,789.3c-5.152,2.94-10.261,5.953-15.271,9.124-2.5,1.588-4.982,3.217-7.415,4.92a87.505,87.505,0,0,0-7.1,5.45,29.491,29.491,0,0,0-3.209,3.178l-.373.449-.186.224-.185.26c-.26.35-.45.69-.658,1.033a21.064,21.064,0,0,0-.978,2.028,66.778,66.778,0,0,0-2.627,8.061c-1.671,6.2-2.976,12.44-4.171,18.691-2.235,11.877-3.983,23.807-5.628,35.752l-1.527,10.884c-.5,3.635-.984,7.261-1.311,10.947a27.922,27.922,0,0,0-.042,5.415,16.815,16.815,0,0,0,.528,2.785,13.058,13.058,0,0,0,1.124,2.721,12.127,12.127,0,0,0,1.793,2.451l.26.282.28.262c.189.174.373.352.566.52.4.313.789.654,1.218.928a22.93,22.93,0,0,0,5.379,2.676,43.071,43.071,0,0,0,5.245,1.466c.88.2,1.762.357,2.644.526.883.14,1.766.3,2.649.417,3.532.5,7.064.824,10.588,1.058,2.8.184,5.6.3,8.383.393,1.395.053,2.788.089,4.179.118s2.786.07,4.177.083q8.351.129,16.7-.021c7.367-.132,14.783-.064,22.173-.144l11.2-.147,5.6-.091,8.077-.166-.6-1.8-.29-.894-.141-.441-.113-.4-.227-.8-.09-.325-.056-.224c-.074-.3-.155-.594-.221-.894-.292-1.194-.524-2.4-.74-3.607a51.7,51.7,0,0,1-.73-7.269c-.035-.677,0-1.349-.005-2.023l0-.287.026-.522.052-1.028.1-2.058-5.775-.322-3.762-.224-7.522-.466q-7.523-.477-15.039-1.005c-1.135-.081-2.276-.111-3.415-.186-4.151-.278-8.3-.545-12.44-.908-5.307-.47-10.539-.879-15.664-.914-.705-.008-1.506-.088-2.253-.168a64.935,64.935,0,0,0-6.959-.353c-2.179-.018-4.28.03-6.476-.166a6.47,6.47,0,0,0-1.651.187l1.092.374c.366.125.732.214,1.111.3,1.766.388,3.53.693,5.3.971s3.539.521,5.314.729c4.553.533,9.126.876,13.679,1.3,12.38,1.152,24.786,1.658,37.194,2.716,2.5.213,5.014.383,7.536.531l3.788.207,1.783.088.851.033-.021.7,0,.089c0,.006,0,.049,0,.024v.5l0,.8c-.008.53.024,1.06.043,1.589l.033.793.059.792a54.6,54.6,0,0,0,.9,6.6c.212,1.091.463,2.176.738,3.256l.207.792.132.463c.078.261.154.517.243.775.022.031-.021.02-.042.023l-.074,0-.149,0-.3.008-.6.015-2.3.048-4.868.076c-8.361.1-16.714-.024-25.073-.014-6.68.011-13.374.164-20.059.14-4.374-.013-8.743-.063-13.1-.188-4.36-.144-8.707-.339-13-.834-2.468-.273-4.961-.546-7.431-.9a58.789,58.789,0,0,1-7.256-1.42,29.072,29.072,0,0,1-4.111-1.41,15.51,15.51,0,0,1-3.528-2.068,9.717,9.717,0,0,1-3.584-6.568,18.888,18.888,0,0,1-.08-3.848c.1-1.311.268-2.672.439-4.017q.557-4.058,1.114-8.12c.742-5.5,1.452-11.025,2.237-16.532,1.569-10.946,3.336-21.872,5.449-32.707,1.2-6.042,2.339-12.1,4.06-17.974a52.4,52.4,0,0,1,1.775-5.122,19.944,19.944,0,0,1,1.14-2.342c.111-.169.212-.361.327-.514a5.34,5.34,0,0,1,.366-.481c.29-.329.542-.669.87-.988a41.406,41.406,0,0,1,4.13-3.722q2.225-1.77,4.578-3.44c5.68-4.028,11.687-7.734,17.764-11.321,3.409-2,6.859-3.966,10.35-5.844,2.856-1.536,5.125-3.008,6.263-4.571.121-.164.335-.417.222-.44a7.291,7.291,0,0,0-2.9-.293,25.885,25.885,0,0,0-3.938,1.619c-.127.055-.264.141-.393.213q-3.209,1.8-6.39,3.65A.179.179,0,0,1,981.861,789.3Z"/>
            </g>
          </g>
        </g>
      </g>
      <g id="グループ_89" data-name="グループ 89">
        <g id="グループ_88" data-name="グループ 88">
          <g id="グループ_87" data-name="グループ 87">
            <g id="グループ_86" data-name="グループ 86">
              <path id="パス_29" data-name="パス 29" d="M1045.05,791.594c-.751,2.057-1.548,4.1-2.273,6.166-.356,1.018-.535,2.092-.852,3.124-.366,1.189-.788,2.363-1.207,3.535-.79,2.229-1.573,4.459-2.495,6.634-.568,1.316-1.359,2.548-2.026,3.789-.159.291-.311.584-.459.879l-.055.111-.028.056-.018.032-.07.125-.138.253-.132.244a.92.92,0,0,1-.076.113.3.3,0,0,1-.235.132c-.185-.012-.307-.176-.4-.3,0-.013-.182-.251-.358-.5s-.341-.5-.508-.767a40.217,40.217,0,0,0-3.488-5.109c-.912-1.069-1.633-2.274-2.5-3.388a63.806,63.806,0,0,0-4.934-5.637,59.673,59.673,0,0,0-5.036-4.569c-.174-.142-.385-.245-.567-.378l-.5-.364-.125-.09-.065-.047-.1-.062-.387-.243a4.629,4.629,0,0,0-.4-.23l-.462-.2a4.977,4.977,0,0,0-1.007-.3,4.328,4.328,0,0,0-2.633.281,3.214,3.214,0,0,0-1.52,1.4,1.588,1.588,0,0,1-.34.391,1.864,1.864,0,0,0-.588,1.4,7.847,7.847,0,0,0,.166,1.489c.026.146.29.32.45.467a1.683,1.683,0,0,0,.335-.245,12.558,12.558,0,0,1,1.206-1.282,3.655,3.655,0,0,1,1.651-1.121,2.029,2.029,0,0,1,1.1.078,2.422,2.422,0,0,1,.282.115c.093.057.188.113.285.167l.073.041.089.063.179.127.356.255a15.765,15.765,0,0,1,2.617,2.287c.891,1.01,2,1.838,2.966,2.789a37.387,37.387,0,0,1,3.052,3.224c.959,1.206,1.711,2.54,2.577,3.795.694,1,1.521,1.932,2.233,2.939a27.712,27.712,0,0,1,2.542,4.2,5.007,5.007,0,0,0,.389.659l.139.187.073.093.036.046.056.065c.149.17.3.346.46.5a4.171,4.171,0,0,0,2.2,1.256,2.748,2.748,0,0,0,1.485-.131,3.2,3.2,0,0,0,1.183-.83,2.988,2.988,0,0,0,.237-.287l.115-.148.076-.139.3-.547.309-.534.159-.264c.051-.084.118-.185.144-.239a14.393,14.393,0,0,1,.931-1.439c.314-.468.634-.937.9-1.429a31.464,31.464,0,0,0,1.376-3.058c.848-2.043,1.651-4.089,2.39-6.156.407-1.156.67-2.357,1.038-3.523.445-1.39.929-2.768,1.406-4.147q.645-1.873,1.319-3.736c.252-.7.509-1.39.812-2.069a1.278,1.278,0,0,0-.537-1.686.708.708,0,0,0-.261-.164,8.95,8.95,0,0,0-1.786-.118c-.344.044-.495.375-.729.579-.022.02-.022.051-.031.076l-.405,1.295Z"/>
            </g>
          </g>
        </g>
      </g>
      <g id="グループ_93" data-name="グループ 93">
        <g id="グループ_92" data-name="グループ 92">
          <g id="グループ_91" data-name="グループ 91">
            <g id="グループ_90" data-name="グループ 90">
              <path id="パス_30" data-name="パス 30" d="M976.38,801.832c.374,1.649.737,3.3,1.218,4.933.237.8.669,1.566.971,2.356.352.912.661,1.835,1.009,2.755.33.873.693,1.742,1.1,2.614.2.436.419.874.66,1.317a9.251,9.251,0,0,0,.893,1.378l.2.229c.081.083.155.161.247.244a2.677,2.677,0,0,0,.338.259c.071.045.134.086.215.128s.185.083.28.119a1.9,1.9,0,0,0,.341.086,1.608,1.608,0,0,0,.381.029,2.088,2.088,0,0,0,.744-.15,2.333,2.333,0,0,0,.507-.293,2.463,2.463,0,0,0,.334-.3c.181-.187.32-.393.393-.476l.261-.33c.172-.222.341-.446.5-.674.6-.864,1.092-1.785,1.666-2.661.532-.813,1.085-1.616,1.675-2.4a23.8,23.8,0,0,0,2.542-3.871,23.082,23.082,0,0,1,1.705-2.564l2.992-4.495,1.335-2.012c.022-.03.014-.013.02-.018s.014-.007,0,.007l.122-.084c.049-.03.1-.064.148-.088a1.622,1.622,0,0,1,.513-.2.171.171,0,0,0,.065-.031c.02-.017.042-.037.06-.034a.632.632,0,0,1,.2-.005c.038.011.08.029.125.042.043.036.087.05.134.094a3.627,3.627,0,0,0,1.368.8.36.36,0,0,1,.2.2c.27.524,1.323.655,2.07,1.083a3.344,3.344,0,0,0,.661.061,1.194,1.194,0,0,0,.073-.377,6,6,0,0,0-.452-1.54,8.531,8.531,0,0,0-1.307-1.777,4.156,4.156,0,0,0-1.375-1.017,4.007,4.007,0,0,0-1.857-.334,4.993,4.993,0,0,0-1.724.446c-.253.119-.5.242-.736.38-.12.067-.235.14-.353.213-.147.1-.282.194-.417.3a1.214,1.214,0,0,0-.2.215l-.156.2c-.079.1-.155.2-.228.308-.145.208-.279.424-.407.643-.257.438-.493.888-.76,1.32-.583.944-1.1,1.925-1.75,2.834-.68.95-1.529,1.808-2.212,2.757-.543.76-.926,1.608-1.417,2.4a13.3,13.3,0,0,1-2.251,2.92,6.72,6.72,0,0,0-1.207,1.756c-.428.751-.71,1.579-1.2,2.3a7.624,7.624,0,0,1-.83.97l-.445.469-.213.239-.052.061c-.015.017-.013.005-.02.009l-.011,0h0l.062.042c.042.027.093.069.125.085a2.317,2.317,0,0,1,.408.3,1.573,1.573,0,0,1,.278.266.7.7,0,0,1,.145.208.15.15,0,0,1,.025.047.129.129,0,0,1,.008.033.009.009,0,0,1,0-.006.317.317,0,0,1,.005-.056c.005-.028.012-.027.024-.071a.519.519,0,0,1,.048-.119,2.835,2.835,0,0,1,.495-.636c.059-.057.12-.1.2-.187l.1-.09h-.005l-.017-.02a1.369,1.369,0,0,1-.09-.106,3.961,3.961,0,0,1-.244-.36,15.6,15.6,0,0,1-.96-2.018c-.3-.732-.582-1.489-.867-2.252-.318-.852-.768-1.682-1.088-2.55-.379-1.036-.694-2.093-1-3.152q-.418-1.438-.765-2.895a14.878,14.878,0,0,1-.318-1.641c-.054-.452-.359-.785-1.293-.889a.944.944,0,0,0-.31-.011,10.084,10.084,0,0,0-1.63.6c-.281.16-.252.44-.355.666-.01.021.005.042.01.062l.29,1.014Z"/>
            </g>
          </g>
        </g>
      </g>
      <g id="グループ_96" data-name="グループ 96">
        <g id="グループ_95" data-name="グループ 95">
          <g id="グループ_94" data-name="グループ 94">
            <path id="パス_31" data-name="パス 31" d="M1017.848,748.571a22.789,22.789,0,0,0-2.417-3.642,15.345,15.345,0,0,0-1.649-1.483c-.625-.569-1.253-1.134-1.9-1.675a29.21,29.21,0,0,0-4.069-2.681c-.872-.471-1.672-1.1-2.618-1.5a12.068,12.068,0,0,0-1.371-.477c-.473-.113-.938-.25-1.413-.352-.439-.1-.874-.217-1.319-.294s-.885-.186-1.332-.256a9.286,9.286,0,0,0-4.487.093,15.324,15.324,0,0,0-3,1.049,9.139,9.139,0,0,0-1.178.77,9.182,9.182,0,0,0-2.488,3.11,11.219,11.219,0,0,0-.791,2.07,13.832,13.832,0,0,0-.418,2.088,3.848,3.848,0,0,0,.013.415c-.023.5,0,.995-.042,1.485a2.08,2.08,0,0,0,.589,1.821.375.375,0,0,1,.094.255c.031.591,1.015.958,1.657,1.343a2.223,2.223,0,0,0,.637.061c.052-.076.14-.169.147-.247a10.247,10.247,0,0,0,.063-1.116,13.468,13.468,0,0,1-.124-1.415c.034-.641-.022-1.281,0-1.919a4.286,4.286,0,0,1,.4-1.85c.349-.663.43-1.381.743-2.023a4.981,4.981,0,0,1,1.339-1.846,5.9,5.9,0,0,1,2.235-.872,12.141,12.141,0,0,1,1.907-.472,5.369,5.369,0,0,1,2.747.389,5.483,5.483,0,0,0,1.587.342c.163.025.329.04.5.052l.5.061c.167.02.334.042.5.073a3.737,3.737,0,0,1,.476.146,2.836,2.836,0,0,1,.43.209c.136.088.267.183.4.278.261.184.5.391.77.555.537.326,1.1.6,1.649.923a23.438,23.438,0,0,1,3.074,2.2c.553.444,1.185.842,1.726,1.329a16.636,16.636,0,0,1,1.731,1.919,18.293,18.293,0,0,1,1.32,1.915,6.789,6.789,0,0,1,.569,1.146c.116.326.44.488,1.352.371a1.266,1.266,0,0,0,.3-.056,8.767,8.767,0,0,0,1.49-.825c.245-.2.167-.433.224-.648.005-.02-.014-.035-.022-.051-.155-.267-.317-.525-.479-.782Z"/>
          </g>
        </g>
      </g>
      <g id="グループ_99" data-name="グループ 99">
        <path id="パス_32" data-name="パス 32" d="M1008.031,812.763c-.005.005-2.787,4.865-2.791,4.859-1.729-2.9-5.51-7.743-7.528-11.419-2.827-5.152.913-5.335-.237-6.307s-2.381,2.292-8.343.12c-9.536-3.474-8.417-18.927-8.561-22.083s7.839-6.358,7.839-6.358a12.073,12.073,0,0,1,4.227-9.717c4.795-4.091,22.331,8.177,26.322,8.861s4.082,13.733,3.665,18.548a35.778,35.778,0,0,0,3.625,17.985S1014.4,806.02,1008.031,812.763Z" fill="#fff"/>
        <g id="グループ_98" data-name="グループ 98">
          <g id="グループ_97" data-name="グループ 97">
            <path id="パス_33" data-name="パス 33" d="M1005.075,813.622l-.03-.047-.124-.185-1.086-1.566c-.72-1.038-1.433-2.068-2.119-3.1s-1.345-2.061-1.929-3.084a11.127,11.127,0,0,1-.72-1.436,4.23,4.23,0,0,1-.319-1.22.769.769,0,0,1-.006-.124,1.057,1.057,0,0,1,.017-.214,1.022,1.022,0,0,1,.123-.248l.143-.251c.046-.084.121-.183.181-.274l.188-.278.124-.273a2.225,2.225,0,0,0,.2-.933,2.6,2.6,0,0,0-.083-.575,3.4,3.4,0,0,0-.117-.331,1.953,1.953,0,0,0-.583-.8,2.906,2.906,0,0,0-.6-.406,2.633,2.633,0,0,0-1.059-.235,4.25,4.25,0,0,0-1.5.218l-.483.187-.489.222-.477.2-.467.144c-.039.012-.078.018-.116.027s-.115.021-.111.021l-.09.019c-.06.013-.123.019-.184.029-.124.018-.25.03-.38.037a7.2,7.2,0,0,1-1.933-.19,12.043,12.043,0,0,1-1.983-.642,8.228,8.228,0,0,1-1.7-1.028,9.32,9.32,0,0,1-.756-.654l-.346-.368a3.8,3.8,0,0,1-.333-.382,13.284,13.284,0,0,1-1.987-3.4,22.719,22.719,0,0,1-1.184-3.888,41.2,41.2,0,0,1-.789-8.26l.005-1.289.007-.661v-.346c0-.051,0-.138,0-.158a.6.6,0,0,0,.009-.06,2.655,2.655,0,0,1,.957-1.374,12.362,12.362,0,0,1,1.961-1.389c.726-.429,1.495-.828,2.28-1.208l.481-.229.633-.29c.583-.264,1.23-.512,1.839-.768-.03-.559-.054-1.142-.064-1.706l.005-.211.01-.175.012-.21.041-.421a11.182,11.182,0,0,1,.323-1.667,10.03,10.03,0,0,1,1.407-3.083c.208-.267.4-.545.618-.8.236-.245.442-.514.7-.743l.38-.346.189-.174a.321.321,0,0,1,.07-.055l.052-.039a1.657,1.657,0,0,1,.545-.231,4.868,4.868,0,0,1,1.753-.027,13.093,13.093,0,0,1,2.1.481,49.258,49.258,0,0,1,6.828,2.9c2.268,1.118,4.531,2.307,6.876,3.441.992.478,1.975.982,2.992,1.487.51.252,1.028.5,1.582.749.275.123.565.243.876.361a7.188,7.188,0,0,0,1.09.325c.046.011.076.048.112.066l.022.022.045.056a.725.725,0,0,0,.062.062l.069.1a5.278,5.278,0,0,1,.576,1.115,17.54,17.54,0,0,1,.873,3.715c.189,1.314.292,2.663.356,4.016s.073,2.717.043,4.076c-.015.679-.04,1.358-.078,2.03l-.069,1-.042.505-.034.556a33.421,33.421,0,0,0,.408,7.914c.1.653.25,1.3.375,1.946.163.641.3,1.289.486,1.924l.272.955.3.949c.1.317.217.629.325.943.056.157.108.315.169.471l.089.234a.36.36,0,0,1,.018.045v0c-.006,0,.058.005.072.025l.037.047a.173.173,0,0,1-.062.016l-.157,0c-.392.012-.783.026-1.175.047a20.936,20.936,0,0,0-3.97.551,13.184,13.184,0,0,0-3.631,1.459,7.686,7.686,0,0,1-1.029.465,7.083,7.083,0,0,0-2.774,2,15.045,15.045,0,0,0-1.687,2.554c-.146.273,0,.591.018.876a9.467,9.467,0,0,0,.831-.536,15.8,15.8,0,0,1,1.875-1.284c.665-.376,1.348-.72,2.05-1.039a21.794,21.794,0,0,1,5.78-1.752c1.161-.165,2.334-.288,3.514-.348l.443-.021c.2-.007.449-.017.672-.016.459-.008.921,0,1.394.017.953.053,1.951.122,2.887.2a.156.156,0,0,0,0-.031l-.027-.051-.054-.1-.109-.207-.216-.416-.427-.832c-.292-.558-.534-1.095-.781-1.633-.123-.269-.231-.537-.336-.8l-.127-.32-.1-.269c-.129-.362-.266-.722-.385-1.088a24.3,24.3,0,0,1-1.053-4.46c-.209-1.515-.421-3.033-.523-4.558-.076-.762-.08-1.525-.1-2.288-.015-.383.021-.762.03-1.143s.024-.744.061-1.161c.124-1.768.128-3.516.086-5.27s-.145-3.506-.313-5.27a30.425,30.425,0,0,0-.727-4.618,9.706,9.706,0,0,0-.931-2.408l-.183-.31-.229-.314a4.918,4.918,0,0,0-.566-.623,4.06,4.06,0,0,0-.823-.556l-.226-.112a2.425,2.425,0,0,0-.241-.078l-.49-.145a5.946,5.946,0,0,1-.708-.252c-.273-.113-.559-.24-.85-.378-1.325-.628-2.707-1.336-4.092-2.029l-4.19-2.113c-1.835-.933-3.691-1.846-5.606-2.712-.959-.431-1.931-.854-2.94-1.249a29.288,29.288,0,0,0-3.186-1.069,10.046,10.046,0,0,0-2.12-.325,7.06,7.06,0,0,0-2.481.31,5.265,5.265,0,0,0-1.279.613,3.024,3.024,0,0,0-.293.211c-.086.069-.211.162-.255.21l-.358.342c-.232.233-.488.446-.694.7l-.64.741a12.512,12.512,0,0,0-2.149,4.11,15.905,15.905,0,0,0-.519,2.2c-.05.372-.107.743-.136,1.118-.02.18-.033.392-.041.549l-.007.107-.01.132c-.067.023-.141.04-.206.056a.349.349,0,0,0-.064.018l-.041.012-.02.006-.056.024-.465.2c-.619.263-1.234.539-1.846.839a15.607,15.607,0,0,0-3.576,2.295,6.633,6.633,0,0,0-1.7,2.251,3.948,3.948,0,0,0-.148.4,2.628,2.628,0,0,0-.112.436,3.014,3.014,0,0,0-.065.466l-.01.244v.217l.01.912c0,1.3.017,2.666.084,4.021a38.12,38.12,0,0,0,1.193,8.179,21.364,21.364,0,0,0,1.562,4.072,14.48,14.48,0,0,0,2.746,3.788,11.233,11.233,0,0,0,1.056.9c.19.139.368.288.57.414l.606.376a6.014,6.014,0,0,0,.63.338c.216.1.426.216.647.309l.671.257.335.124.321.1a14.825,14.825,0,0,0,2.722.577,10.441,10.441,0,0,0,1.479.064c.252,0,.507-.025.762-.051l.383-.05.19-.033.034-.009a5.162,5.162,0,0,0,.6-.265c.108-.046.268.035.241.134s-.113.158-.152.255a.711.711,0,0,0-.059.332,5.9,5.9,0,0,0,.251,1.691,12.2,12.2,0,0,0,1.242,2.744c.852,1.47,1.783,2.84,2.716,4.2l2.909,4.163c.472.68.985,1.452,1.476,2.232l.466.658a.847.847,0,0,0,.231.23l.231.187.231.188.058.047c.018.01.032,0,.048,0l.092-.015.372-.062h0c.024.655-.031-.892-.025-.733h0l.005,0,.009,0,.018-.008.038-.015.076-.03.164-.06c.12-.04.233-.079.375-.118s.266-.075.466-.112l.273-.054a.435.435,0,0,0,.136-.036l.115-.144a7.2,7.2,0,0,0,.915-1.493c.131-.259.251-.512.359-.757l.151-.361a1.869,1.869,0,0,0,.066-.233,2.82,2.82,0,0,0-.1-1.726.89.89,0,0,0-.081-.19c-.052-.029-.089-.083-.124-.1a.823.823,0,0,0-.252-.03l-.267-.017c-.179-.011-.358-.023-.537-.027a3.013,3.013,0,0,0-1.075.142,1.9,1.9,0,0,0-.7.578c-.011.012-.035.044-.037.041h-.014l-.025,0a.3.3,0,0,1-.045-.012.21.21,0,0,1-.082-.063c-.009-.012,0,0,0,0a.1.1,0,0,1,.007.054l-.005.044a.02.02,0,0,1-.013.008Z"/>
          </g>
        </g>
      </g>
      <path id="パス_34" data-name="パス 34" d="M1004.358,770.929s-11.1-2.44-18.5,1.677" fill="none" stroke="#000" stroke-linecap="round" stroke-linejoin="round" stroke-width="3.368"/>
      <path id="パス_35" data-name="パス 35" d="M997.923,777.808s-15.452-1.637-17.306,3.224" fill="none" stroke="#000" stroke-linecap="round" stroke-linejoin="round" stroke-width="3.368"/>
      <path id="パス_36" data-name="パス 36" d="M991.891,784.822s-11.255-.932-10.664,4.458" fill="none" stroke="#000" stroke-linecap="round" stroke-linejoin="round" stroke-width="3.368"/>
      <g id="グループ_102" data-name="グループ 102">
        <g id="グループ_101" data-name="グループ 101">
          <g id="グループ_100" data-name="グループ 100">
            <path id="パス_37" data-name="パス 37" d="M985.445,817.4c.575,1.343,1.124,2.694,1.762,4.013.313.651.809,1.233,1.17,1.866.42.728.789,1.476,1.173,2.218.729,1.409,1.506,2.8,2.188,4.227.413.867.623,1.815,1,2.7.358.834.833,1.623,1.227,2.444.37.761.723,1.53,1.046,2.314a15.4,15.4,0,0,0,1.918,3.6c.577.736.915,1.592,1.458,2.4a11.011,11.011,0,0,0,1.8,2.191l.08.073.114.085.234.165a3.3,3.3,0,0,0,.484.292q.243.112.492.215c.172.06.351.108.529.155a5.339,5.339,0,0,0,2.1.063,7.987,7.987,0,0,0,2.768-1.1,14.338,14.338,0,0,0,1.979-1.5,4.515,4.515,0,0,0,.3-.353c.394-.4.732-.824,1.124-1.2a2.345,2.345,0,0,0,.868-1.832.4.4,0,0,1,.114-.263c.41-.5-.078-1.376-.273-2.083-.031-.109-.279-.3-.433-.442a.933.933,0,0,0-.3.119,11.953,11.953,0,0,0-.9.9c-.339.41-.595.879-.968,1.264-.507.521-.942,1.089-1.429,1.612a4.849,4.849,0,0,1-1.7,1.27c-.384.16-.72.342-1.044.505a2.805,2.805,0,0,1-.939.333,1.717,1.717,0,0,1-.883-.1.584.584,0,0,1-.175-.1l-.084-.049c-.031-.023-.068-.064-.1-.095l-.207-.2c-.068-.072-.135-.166-.2-.248a19.713,19.713,0,0,1-1.331-2.515,9.588,9.588,0,0,0-.631-.994c-.221-.33-.451-.656-.651-1a8.569,8.569,0,0,1-1.174-2.869,5.042,5.042,0,0,0-.756-1.643,21.258,21.258,0,0,1-1.19-1.906c-.288-.652-.324-1.4-.565-2.07a18.815,18.815,0,0,0-.9-1.976c-.633-1.295-1.242-2.6-1.908-3.886-.372-.718-.882-1.385-1.277-2.1-.469-.849-.891-1.718-1.311-2.586-.383-.785-.747-1.577-1.1-2.373a12.052,12.052,0,0,1-.525-1.359c-.115-.38-.457-.612-1.381-.531a1.051,1.051,0,0,0-.3.048,11.339,11.339,0,0,0-1.5.809c-.252.188-.185.421-.256.632-.007.02.011.035.018.052l.415.814Z"/>
          </g>
        </g>
      </g>
      <g id="グループ_105" data-name="グループ 105">
        <g id="グループ_104" data-name="グループ 104">
          <g id="グループ_103" data-name="グループ 103">
            <path id="パス_38" data-name="パス 38" d="M965.169,893.428l-.1-2.628c-.029-.876-.05-1.753-.1-2.629s-.29-1.723-.387-2.588c-.1-1-.144-2-.2-2.995-.116-1.9-.233-3.795-.245-5.693-.01-1.154.234-2.3.291-3.454.057-1.086-.017-2.177.025-3.264.035-1.008.093-2.016.194-3.021a25.855,25.855,0,0,0,.21-4.8,24.172,24.172,0,0,1,.185-3.189l.371-5.587.364-4.994c.016-.163-.029-.331-.024-.495.021-.6.014-1.2.088-1.8a3.271,3.271,0,0,0-.366-2.293.531.531,0,0,1-.048-.33c.078-.73-.805-1.365-1.323-2.04-.08-.1-.393-.179-.6-.269a1.19,1.19,0,0,0-.216.311,12.011,12.011,0,0,0-.33,1.526c-.074.658-.026,1.326-.108,1.982-.224,1.787.031,3.6-.39,5.38a16.285,16.285,0,0,0-.182,3.17c-.048,1.157,0,2.321-.119,3.474-.123,1.207-.423,2.405-.538,3.613-.091.966.009,1.942-.008,2.912a14.43,14.43,0,0,1-.444,3.792,7.15,7.15,0,0,0-.125,2.214c.021.906.217,1.814.18,2.716-.039.869-.347,1.731-.429,2.6a23,23,0,0,0-.042,2.653c.02,1.758.036,3.517.144,5.276.057.982.259,1.962.354,2.944.115,1.171.181,2.343.25,3.515l.179,3.181c.027.594.051,1.189.021,1.784-.024.486.222.888,1.131,1.133a.888.888,0,0,0,.3.055,10.376,10.376,0,0,0,1.713-.386c.306-.124.324-.415.465-.631.013-.021,0-.044,0-.066l-.108-1.085Z"/>
          </g>
        </g>
      </g>
      <g id="グループ_109" data-name="グループ 109">
        <g id="グループ_108" data-name="グループ 108">
          <g id="グループ_107" data-name="グループ 107">
            <g id="グループ_106" data-name="グループ 106">
              <path id="パス_39" data-name="パス 39" d="M1049.134,788.427c3.68.741,7.344,1.541,10.972,2.435s7.226,1.871,10.726,3.017c1.743.581,3.478,1.184,5.13,1.886a29.236,29.236,0,0,1,4.624,2.356l.5.337c.168.112.334.255.5.381l.5.39.48.41a23.285,23.285,0,0,1,1.81,1.74,22.878,22.878,0,0,1,2.938,4,33.347,33.347,0,0,1,3.5,9.177,65.774,65.774,0,0,1,1.464,9.934c.151,1.941.251,3.892.325,5.85s.132,3.927.135,5.862c0,3.9-.152,7.825-.333,11.745q-.531,11.17-1.482,22.333c-.634,7.435-1.381,14.864-2.372,22.252-.61,4.485-1.343,8.959-2.328,13.342-.256,1.091-.524,2.177-.829,3.24-.149.534-.33,1.044-.492,1.567l-.286.739c-.049.12-.092.252-.145.363l-.164.324-.159.326c-.055.109-.14.239-.208.357l-.433.726c-.3.478-.593.955-.9,1.419a27.66,27.66,0,0,1-1.975,2.655,13.528,13.528,0,0,1-2.16,2.07,7.792,7.792,0,0,1-2.521,1.264,12.958,12.958,0,0,1-6.114-.181c-1.083-.237-2.176-.537-3.271-.861q-.822-.243-1.645-.505l-.411-.131-.206-.065-.18-.067-.719-.266a18.467,18.467,0,0,1-2.779-1.495,28.479,28.479,0,0,1-2.59-1.943,58.881,58.881,0,0,1-8.285-8.9c-2.5-3.214-4.8-6.577-6.984-10-3.46-5.453-6.649-11.055-9.715-16.719s-6.011-11.392-8.922-17.152c-3.846-7.621-7.28-15.467-10.672-23.294q-1.99-4.593-3.909-9.21l-1.9-4.623-1.845-4.611a.172.172,0,0,1-.007-.031c0-.013.005-.013,0-.074s.018-.136.022-.2l.053-.249a6.677,6.677,0,0,1,.416-1.145c.178-.4.409-.807.634-1.214.259-.4.49-.812.781-1.212l.417-.6.449-.6c.292-.4.607-.79.93-1.178l.478-.585.5-.575c.328-.368.69-.809.973-1.077a11.287,11.287,0,0,1,4.782-2.65,25.112,25.112,0,0,1,6.031-.946c.956-.043,1.921-.05,2.884-.015.482.014.963.043,1.441.077l.207.016.016,0a.141.141,0,0,1,.031.007c.005.014.012.028.016.042l.443.937.929,1.96,1.873,3.912,3.794,7.8q3.825,7.791,7.783,15.532c.6,1.182,1.264,2.343,1.884,3.524,2.257,4.3,4.578,8.582,6.882,12.861a130.341,130.341,0,0,0,9.669,15.752c.495.677,1.006,1.479,1.479,2.234a45.55,45.55,0,0,0,5.07,6.608c.885.969,1.8,1.886,2.752,2.771a29.636,29.636,0,0,0,3.024,2.511,3.866,3.866,0,0,0,1.795.595,12.469,12.469,0,0,1-1.853-1.686,40.028,40.028,0,0,1-3.886-4.789c-1.2-1.684-2.343-3.412-3.471-5.153-2.894-4.465-5.682-9.025-8.28-13.659q-5.283-9.457-10.356-19.025c-3.366-6.386-6.627-12.825-9.676-19.358-1.2-2.576-2.436-5.152-3.681-7.731l-4.011-8.316c-.551-.088-1.122-.148-1.691-.2l-.393-.032-.286-.019-.571-.031q-1.143-.054-2.285-.047a37.134,37.134,0,0,0-4.564.31,22.323,22.323,0,0,0-6.033,1.607,14.057,14.057,0,0,0-2.73,1.571,11.252,11.252,0,0,0-1.2,1.023c-.177.187-.374.38-.534.562l-.47.544a39.4,39.4,0,0,0-3.5,4.574,17.886,17.886,0,0,0-1.394,2.591,8.092,8.092,0,0,0-.47,1.479,4.769,4.769,0,0,0-.1.847,2.376,2.376,0,0,0,.174,1.006l2.02,5.057c3.616,8.984,7.25,17.951,11.276,26.8,3.225,7.07,6.761,14.044,10.382,20.972q3.548,6.8,7.354,13.491c2.537,4.46,5.161,8.883,7.939,13.254a85.956,85.956,0,0,0,5.276,7.406,68.371,68.371,0,0,0,6.28,6.941,35.718,35.718,0,0,0,4.588,3.747l.634.422c.215.138.441.266.662.4.434.272.9.511,1.371.751.229.125.478.229.723.337s.486.221.74.317c.511.182,1.052.381,1.5.508,1.871.569,3.768,1.125,5.777,1.532a23.66,23.66,0,0,0,3.117.436,13.839,13.839,0,0,0,3.323-.157,10.9,10.9,0,0,0,3.095-1.041,12.553,12.553,0,0,0,2.542-1.755,23.954,23.954,0,0,0,3.695-4.269c.517-.746,1.012-1.5,1.477-2.258l.349-.569a3.469,3.469,0,0,0,.177-.319l.177-.346a11.445,11.445,0,0,0,.586-1.342,41.065,41.065,0,0,0,1.495-5.136c.791-3.444,1.361-6.887,1.879-10.338s.946-6.9,1.348-10.356q1.187-10.293,2.008-20.608c.552-6.878,1.006-13.761,1.28-20.668.146-3.856.221-7.728.078-11.627-.139-3.857-.327-7.732-.721-11.628a51.571,51.571,0,0,0-3.059-13.882,28.282,28.282,0,0,0-3.593-6.491,27.374,27.374,0,0,0-2.511-2.875,28.464,28.464,0,0,0-2.954-2.5,31.524,31.524,0,0,0-6.28-3.269c-2.149-.871-4.326-1.613-6.516-2.3-4.383-1.346-8.813-2.466-13.26-3.478-4.981-1.134-10-2.127-15-3.079-4.095-.776-7.594-1.125-10.024-.659-.256.048-.679.107-.584.194a8.935,8.935,0,0,0,2.609,2,48.459,48.459,0,0,0,5.156,1.315c.167.042.372.068.555.1q4.6.775,9.172,1.665A.165.165,0,0,1,1049.134,788.427Z"/>
            </g>
          </g>
        </g>
      </g>
      <g id="グループ_112" data-name="グループ 112">
        <path id="パス_40" data-name="パス 40" d="M1038.867,902.866a29.727,29.727,0,0,0,6.978-5.2c4.108-3.874,10.263-10.088,13.163-9.8s3.076,6.644.52,8.709-4.96,6.467-5.124,8.058,12.266,5.106,18.046,5.861,10.555-4.839,12.89-8.086c3.531-4.914,7.989-5.541,7.481-.593s-3.063,13.172-6.355,14.807-.47,6.469-5.224,9.029-18.292,3.174-22.647,1.847-14.284-7.315-16.235-7.331S1038.031,910.994,1038.867,902.866Z" fill="#fff"/>
        <g id="グループ_111" data-name="グループ 111">
          <g id="グループ_110" data-name="グループ 110">
            <path id="パス_41" data-name="パス 41" d="M1045.966,900.152c.563-.49,1.126-1.012,1.65-1.507l1.567-1.486c1.04-.985,2.075-1.959,3.125-2.9s2.111-1.857,3.194-2.684c.541-.412,1.089-.8,1.629-1.133a6.6,6.6,0,0,1,1.47-.718.56.56,0,0,1,.1-.027s0-.007.01-.008a.2.2,0,0,1,.035-.009.218.218,0,0,1,.086.009.092.092,0,0,1,.054.035.525.525,0,0,1,.072.087.8.8,0,0,1,.076.111,2.8,2.8,0,0,1,.279.61,5.953,5.953,0,0,1,.069,3.247,3.723,3.723,0,0,1-.757,1.527,1.113,1.113,0,0,1-.121.124c-.026.024-.026.028-.073.07l-.133.118c-.174.159-.364.314-.519.478-.332.323-.631.656-.923.991a22.457,22.457,0,0,0-2.82,4.289q-.272.543-.513,1.111l-.115.292-.057.147c-.019.049-.037.09-.063.177l-.143.455-.07.228-.044.228c-.025.152-.067.306-.078.455l.016.441a1.629,1.629,0,0,0,.374.817,4.93,4.93,0,0,0,1.556,1.17l.336.169.3.142c.2.092.4.18.6.263.4.167.8.32,1.195.466.794.292,1.588.554,2.383.8a99.014,99.014,0,0,0,9.648,2.442c1,.194,1.98.393,3.046.535a10.819,10.819,0,0,0,3.475-.138,14.078,14.078,0,0,0,5.753-2.872,24.55,24.55,0,0,0,3.916-4.036c.565-.709,1.109-1.509,1.576-2.1a10.9,10.9,0,0,1,1.645-1.684,5.246,5.246,0,0,1,1.664-.953.838.838,0,0,1,.122-.033.759.759,0,0,1,.084-.011.594.594,0,0,1,.158.007.4.4,0,0,1,.254.159.485.485,0,0,1,.066.128c.008.022.013.045.019.068l.029.15a4.009,4.009,0,0,1,.033.861c-.015.166-.026.312-.052.5l-.08.557c-.057.371-.128.744-.2,1.117a38.305,38.305,0,0,1-2.141,6.944,20.216,20.216,0,0,1-1.607,3.113,7.558,7.558,0,0,1-.967,1.219,3.009,3.009,0,0,1-.47.391q-.053.031-.1.066l-.325.188a4.437,4.437,0,0,0-.631.46,4.667,4.667,0,0,0-1.173,1.563,7.148,7.148,0,0,0-.5,1.527c-.2.941-.294,1.748-.481,2.446a4,4,0,0,1-2.26,2.858,16.5,16.5,0,0,1-4.02,1.234,44.808,44.808,0,0,1-4.544.651c-1.541.144-3.1.244-4.649.267s-3.107.011-4.61-.113c-.342-.018-.667-.062-1-.1l-.492-.055-.466-.079-.464-.078c-.152-.027-.273-.068-.411-.1s-.267-.063-.406-.1-.278-.089-.428-.147c-1.183-.433-2.448-1.025-3.692-1.632-2.505-1.223-4.991-2.564-7.588-3.853-.51-.256-1.06-.461-1.6-.7-.386-.173-.784-.342-1.206-.507-.22-.083-.424-.164-.674-.244-.122-.04-.233-.079-.38-.118a4.73,4.73,0,0,0-.548-.13c-.03,0-.041.006-.074-.045a6.617,6.617,0,0,1-.584-1.257c-.363-1.018-.65-2.13-.952-3.228s-.612-2.208-1-3.309a4.2,4.2,0,0,1-.168-.992c-.15-2.236-1.077-3.979-1.494-6.017-.06-.313-.362-.5-.552-.751a6.739,6.739,0,0,0-.278,1.021,29.023,29.023,0,0,0-.229,4.949,39.66,39.66,0,0,0,.929,6.332,18.642,18.642,0,0,0,.966,3.192c.109.265.231.531.369.8.072.134.136.267.222.4a4.747,4.747,0,0,0,.278.426,3.213,3.213,0,0,0,.87.862,2.52,2.52,0,0,0,1.2.339l.012.009c.009,0,.041.012.061.018l.137.037c.094.026.2.063.3.093.2.072.412.148.624.234.422.169.849.354,1.275.549.854.388,1.7.806,2.553,1.234,1.7.858,3.376,1.764,5.057,2.7a33.749,33.749,0,0,0,5.012,2.317c.226.081.467.155.708.225l.751.178a7.29,7.29,0,0,0,.734.13l.725.108c.475.042.951.094,1.423.13l1.407.079a55.81,55.81,0,0,0,6.086-.116c2.017-.141,4.026-.355,6.033-.663,1.051-.163,2.1-.345,3.156-.6l.792-.193c.264-.07.528-.161.793-.242a12.879,12.879,0,0,0,1.594-.611,7.832,7.832,0,0,0,1.531-.937,6.54,6.54,0,0,0,1.256-1.324,8.054,8.054,0,0,0,1.251-3.108c.163-.795.256-1.542.414-2.145a3.289,3.289,0,0,1,.284-.759,1.537,1.537,0,0,1,.4-.477,2.427,2.427,0,0,1,.289-.189l.371-.213c.119-.075.223-.154.333-.231a7.008,7.008,0,0,0,1.076-1,13.116,13.116,0,0,0,1.488-2.132,31.471,31.471,0,0,0,2.45-5.793,58,58,0,0,0,1.612-6l.085-.453.066-.512c.011-.178.022-.355.027-.537s0-.371-.022-.568a4.81,4.81,0,0,0-.09-.61c-.027-.114-.037-.2-.081-.336s-.087-.265-.137-.395a3.8,3.8,0,0,0-.947-1.383,3.916,3.916,0,0,0-3.29-.894,4.164,4.164,0,0,0-.431.084c-.137.033-.294.071-.389.106a5.953,5.953,0,0,0-.623.234,7.976,7.976,0,0,0-1.068.564,10.6,10.6,0,0,0-2.018,1.67,15.618,15.618,0,0,0-1.528,1.885l-.612.889c-.2.279-.4.566-.616.837a18.445,18.445,0,0,1-1.345,1.578,13.471,13.471,0,0,1-6.409,3.891c-.281.061-.561.087-.839.144-.277.005-.552.027-.826.032l-.409-.035-.2-.013a1.731,1.731,0,0,1-.23-.022c-.345-.049-.7-.1-1.05-.164-1.417-.24-2.862-.54-4.3-.876a77.172,77.172,0,0,1-8.372-2.435c-.66-.242-1.31-.5-1.883-.772l-.317-.155-.021-.009c-.011,0-.026-.01-.03-.022a.134.134,0,0,1,0-.036V904.1l.018-.046.081-.205c.05-.136.114-.277.176-.417a18.215,18.215,0,0,1,.867-1.687,18.962,18.962,0,0,1,2.48-3.443c.114-.13.235-.234.352-.349l.089-.085.127-.118c.108-.1.227-.205.321-.312a5.694,5.694,0,0,0,.923-1.32,8.4,8.4,0,0,0,.816-2.689,9.222,9.222,0,0,0-.113-3.243,6.31,6.31,0,0,0-.627-1.692,4.14,4.14,0,0,0-1.651-1.664,3.676,3.676,0,0,0-1.237-.379,4.365,4.365,0,0,0-1.3.061,7.175,7.175,0,0,0-1.8.656,17.85,17.85,0,0,0-2.67,1.721c-1.458,1.107-2.775,2.281-4.066,3.466s-2.536,2.392-3.78,3.581c-.7.669-1.378,1.316-2.094,1.925s-1.449,1.2-2.213,1.738a5.557,5.557,0,0,0-2.471,2.822c-.035.119-.1.288-.035.335a4.133,4.133,0,0,0,1.938.793,6.487,6.487,0,0,0,2.134-.841,1.306,1.306,0,0,0,.191-.132c1.026-.762,1.988-1.567,2.913-2.4Z"/>
          </g>
        </g>
      </g>
    </g>
  </g>
</svg>
