<svg xmlns="http://www.w3.org/2000/svg" xmlns:xlink="http://www.w3.org/1999/xlink" width="950" height="124.783" viewBox="0 0 950 124.783">
  <defs>
    <clipPath id="clip-path">
      <rect id="長方形_93" data-name="長方形 93" width="97.747" height="119.088" transform="translate(445.037 3131.082)" fill="none"/>
    </clipPath>
    <clipPath id="clip-path-5">
      <rect id="長方形_97" data-name="長方形 97" width="138.471" height="95.466" transform="translate(165 3142.892)" fill="none"/>
    </clipPath>
    <clipPath id="clip-path-6">
      <rect id="長方形_98" data-name="長方形 98" width="130.276" height="113.205" transform="translate(684.349 3137.009)" fill="none"/>
    </clipPath>
    <clipPath id="clip-path-10">
      <rect id="長方形_102" data-name="長方形 102" width="158.611" height="124.509" transform="translate(956.389 3131.356)" fill="none"/>
    </clipPath>
  </defs>
  <g id="グループ_399" data-name="グループ 399" transform="translate(-165 -3131.082)">
    <g id="グループ_341" data-name="グループ 341">
      <g id="グループ_320" data-name="グループ 320">
        <g id="グループ_319" data-name="グループ 319" clip-path="url(#clip-path)">
          <rect id="長方形_92" data-name="長方形 92" width="96.431" height="38.467" transform="translate(445.695 3211.044)" fill="none" stroke="#231815" stroke-linejoin="round" stroke-width="1.317"/>
        </g>
      </g>
      <line id="線_14" data-name="線 14" y2="36.096" transform="translate(514.988 3211.044)" fill="none" stroke="#231815" stroke-linejoin="round" stroke-width="1.317"/>
      <line id="線_15" data-name="線 15" x2="38.994" transform="translate(445.695 3217.631)" fill="none" stroke="#231815" stroke-linejoin="round" stroke-width="1.317"/>
      <line id="線_16" data-name="線 16" x2="47.689" transform="translate(445.695 3226.325)" fill="none" stroke="#231815" stroke-linejoin="round" stroke-width="1.317"/>
      <line id="線_17" data-name="線 17" x2="1.448" transform="translate(489.695 3189.176)" fill="none" stroke="#231815" stroke-linejoin="round" stroke-width="1.317"/>
      <line id="線_18" data-name="線 18" x2="45.876" transform="translate(493.582 3189.176)" fill="none" stroke="#231815" stroke-linejoin="round" stroke-width="1.317" stroke-dasharray="2.795 2.439"/>
      <g id="グループ_322" data-name="グループ 322">
        <g id="グループ_321" data-name="グループ 321" clip-path="url(#clip-path)">
          <line id="線_19" data-name="線 19" x2="1.448" transform="translate(540.677 3189.176)" fill="none" stroke="#231815" stroke-linejoin="round" stroke-width="1.317"/>
        </g>
      </g>
      <line id="線_20" data-name="線 20" x2="1.448" transform="translate(445.695 3169.415)" fill="none" stroke="#231815" stroke-linejoin="round" stroke-width="1.317"/>
      <line id="線_21" data-name="線 21" x2="57.153" transform="translate(449.618 3169.415)" fill="none" stroke="#231815" stroke-linejoin="round" stroke-width="1.317" stroke-dasharray="2.835 2.472"/>
      <line id="線_22" data-name="線 22" x2="1.448" transform="translate(508.006 3169.415)" fill="none" stroke="#231815" stroke-linejoin="round" stroke-width="1.317"/>
      <g id="グループ_324" data-name="グループ 324">
        <g id="グループ_323" data-name="グループ 323" clip-path="url(#clip-path)">
          <line id="線_23" data-name="線 23" x2="18.18" transform="translate(523.947 3217.631)" fill="none" stroke="#231815" stroke-linejoin="round" stroke-width="1.317"/>
          <line id="線_24" data-name="線 24" x2="8.168" transform="translate(533.959 3222.636)" fill="none" stroke="#231815" stroke-linejoin="round" stroke-width="1.317"/>
        </g>
      </g>
      <line id="線_25" data-name="線 25" x2="31.88" transform="translate(445.695 3235.02)" fill="none" stroke="#231815" stroke-linejoin="round" stroke-width="1.317"/>
      <line id="線_26" data-name="線 26" x2="44.527" transform="translate(445.695 3240.289)" fill="none" stroke="#231815" stroke-linejoin="round" stroke-width="1.317"/>
      <g id="グループ_326" data-name="グループ 326">
        <g id="グループ_325" data-name="グループ 325" clip-path="url(#clip-path)">
          <line id="線_27" data-name="線 27" x2="20.551" transform="translate(521.575 3240.289)" fill="none" stroke="#231815" stroke-linejoin="round" stroke-width="1.317"/>
          <line id="線_28" data-name="線 28" x2="22.395" transform="translate(519.731 3226.852)" fill="none" stroke="#231815" stroke-linejoin="round" stroke-width="1.317"/>
          <line id="線_29" data-name="線 29" x2="9.222" transform="translate(532.905 3232.122)" fill="none" stroke="#231815" stroke-linejoin="round" stroke-width="1.317"/>
          <line id="線_30" data-name="線 30" x2="14.755" transform="translate(527.372 3236.074)" fill="none" stroke="#231815" stroke-linejoin="round" stroke-width="1.317"/>
          <path id="パス_3513" data-name="パス 3513" d="M514.988,3211.044l27.138-21.868-32.671-19.76,26.084-37.677H477.048l-31.353,37.677,44,19.76-37.94,21.868" fill="none" stroke="#231815" stroke-linejoin="round" stroke-width="1.317"/>
          <path id="パス_3514" data-name="パス 3514" d="M484.952,3211.044l24.767-21.868-32.407-19.76,28.192-37.677" fill="none" stroke="#231815" stroke-linejoin="round" stroke-width="1.317"/>
        </g>
      </g>
      <g id="グループ_328" data-name="グループ 328">
        <g id="グループ_327" data-name="グループ 327" clip-path="url(#clip-path-5)">
          <path id="パス_3515" data-name="パス 3515" d="M171.92,3151.93c1.406-3.276,4.526-8.872,8.022-8.419a257.22,257.22,0,0,1,34.832,7.386c15.022,4.471,24.958,8.473,31.928,12.029s13.191,8.06,16.252,9.89,19.589,16.913,26.2,25.875,13.5,22.06,13.7,24.29a8.476,8.476,0,0,1-1.208,4.975c-.645,1.267-4.205,8.768-9.607,7.875s-21.812-4.205-27.218-4.568-10.2,2.251-12.759,4.14a10.551,10.551,0,0,1-9.032,2.046c-3.279-.874-10.777-4.964-10.777-4.964s-47.391-27.637-49.819-29.142-3.685-3.212-5.247-6.937-9.675-23.3-10.61-25.643-1.453-3.935-.375-6.047,5.172-10.139,5.172-10.139Z" fill="none" stroke="#231815" stroke-linejoin="round" stroke-width="1.187"/>
          <path id="パス_3516" data-name="パス 3516" d="M253.511,3191.849c-3.156-3.206-46.165-27.438-82.143-37.273" fill="none" stroke="#231815" stroke-linejoin="round" stroke-width="1.187"/>
        </g>
      </g>
      <path id="パス_3517" data-name="パス 3517" d="M263.165,3172.923l-9.654,18.926L232.67,3232.7" fill="none" stroke="#231815" stroke-linejoin="round" stroke-width="1.187"/>
      <g id="グループ_330" data-name="グループ 330">
        <g id="グループ_329" data-name="グループ 329" clip-path="url(#clip-path-6)">
          <path id="パス_3518" data-name="パス 3518" d="M685.008,3184.392l2.711-1.263,28.371-7.706,23.2,13.433,5.752-14.873,20.431,12.733,32.749-3.284,1.206,11.123,10.246,6.052,4.287,14.251L781.8,3216.63,753.956,3205.7l-10.547,9.677-3.177,1.511-1.69-1.284-5.63-9.338-2.416.7-7.613.312-30.7,11.158-6.205-17.806-.74-3.592Z" fill="none" stroke="#231815" stroke-linejoin="round" stroke-width="1.317"/>
        </g>
      </g>
      <path id="パス_3519" data-name="パス 3519" d="M756.641,3195.868l-11.03-3.434-16.12-2.886-13.4-14.126" fill="none" stroke="#231815" stroke-linejoin="round" stroke-width="1.317"/>
      <path id="パス_3520" data-name="パス 3520" d="M799.432,3194.555l-23.675-.609-8.958.038-9.352-7.729-11.835,6.18" fill="none" stroke="#231815" stroke-linejoin="round" stroke-width="1.317"/>
      <line id="線_31" data-name="線 31" x1="14.333" y2="4.133" transform="translate(775.758 3189.812)" fill="none" stroke="#231815" stroke-linejoin="round" stroke-width="1.317"/>
      <g id="グループ_332" data-name="グループ 332">
        <g id="グループ_331" data-name="グループ 331" clip-path="url(#clip-path-6)">
          <path id="パス_3521" data-name="パス 3521" d="M685.008,3184.392l8.128,3.6,28.112,1.808,14.9,9.131,7.995,4.47,17.406-1.4,6.743-.443,6.616,3.02,21.925-.044,8.661-2.074,4.186-1.857" fill="none" stroke="#231815" stroke-linejoin="round" stroke-width="1.317"/>
        </g>
      </g>
      <line id="線_32" data-name="線 32" x2="25.401" y2="3.071" transform="translate(736.144 3198.933)" fill="none" stroke="#231815" stroke-linejoin="round" stroke-width="1.317"/>
      <path id="パス_3522" data-name="パス 3522" d="M702.953,3198.065l15.252.162,11.648,3.1,11.3,4.684,2.877-.953L761.545,3202" fill="none" stroke="#231815" stroke-linejoin="round" stroke-width="1.317"/>
      <path id="パス_3523" data-name="パス 3523" d="M694.07,3208.241l29.442-6.09,9.4,4.112" fill="none" stroke="#231815" stroke-linejoin="round" stroke-width="1.317"/>
      <path id="パス_3524" data-name="パス 3524" d="M769.473,3143.815l-10.364-4.216-12.647,30.388-20.9,11.945,10.362,12.12L713.09,3208.1l-6.675,28.632-.175,2.985,11.241,5.8,3.514,1.054,18.618,2.987,4.743-32.319,3.339-6.85.525-2.46,10.891-.527,1.933-.879.175-3.512-3.514-13.878,22.836-19.32,13.7-29.157-14.58-2.989Z" fill="#fff"/>
      <g id="グループ_334" data-name="グループ 334">
        <g id="グループ_333" data-name="グループ 333" clip-path="url(#clip-path-6)">
          <path id="パス_3525" data-name="パス 3525" d="M706.239,3239.72l.175-2.987,6.675-28.63,22.834-14.053-10.362-12.12,20.9-11.943,12.647-30.388,10.364,4.216,10.187-6.148,14.58,2.987-13.7,29.157-22.834,19.322,3.512,13.875-.175,3.514-1.933.879-10.889.527-.527,2.458-3.339,6.85-4.742,32.321-18.618-2.987-3.514-1.054Z" fill="none" stroke="#231815" stroke-linejoin="round" stroke-width="1.317"/>
        </g>
      </g>
      <path id="パス_3526" data-name="パス 3526" d="M750.327,3182.107l-8.256,8.079-10.187,12.824-18.8,5.092" fill="none" stroke="#231815" stroke-linejoin="round" stroke-width="1.317"/>
      <path id="パス_3527" data-name="パス 3527" d="M769.474,3143.816l-11.768,20.551-4.216,7.9-11.243,4.568-.175,13.349" fill="none" stroke="#231815" stroke-linejoin="round" stroke-width="1.317"/>
      <line id="線_33" data-name="線 33" x1="3.162" y2="14.58" transform="translate(757.705 3149.788)" fill="none" stroke="#231815" stroke-linejoin="round" stroke-width="1.317"/>
      <g id="グループ_336" data-name="グループ 336">
        <g id="グループ_335" data-name="グループ 335" clip-path="url(#clip-path-6)">
          <path id="パス_3528" data-name="パス 3528" d="M706.239,3239.72l7.025-5.444,14.932-23.89,15.1-8.781,7.729-4.92,7.025-15.983,2.812-6.148,5.8-4.391,10.362-19.322,2.285-8.606.35-4.567" fill="none" stroke="#231815" stroke-linejoin="round" stroke-width="1.317"/>
        </g>
      </g>
      <line id="線_34" data-name="線 34" y1="20.903" x2="14.755" transform="translate(743.302 3180.701)" fill="none" stroke="#231815" stroke-linejoin="round" stroke-width="1.317"/>
      <path id="パス_3529" data-name="パス 3529" d="M726.79,3230.41l7.377-13.349,8.256-8.783,9.485-7.729.527-2.985,5.619-16.862" fill="none" stroke="#231815" stroke-linejoin="round" stroke-width="1.317"/>
      <path id="パス_3530" data-name="パス 3530" d="M731.533,3243.057l8.606-28.807,8.081-6.323" fill="none" stroke="#231815" stroke-linejoin="round" stroke-width="1.317"/>
      <g id="グループ_338" data-name="グループ 338">
        <g id="グループ_337" data-name="グループ 337" clip-path="url(#clip-path-10)">
          <path id="パス_3531" data-name="パス 3531" d="M1035.826,3213.579H1010.8l-25.721-13.364-28.027-14.565h28.719Z" fill="none" stroke="#231815" stroke-linejoin="round" stroke-width="1.317"/>
        </g>
      </g>
      <path id="パス_3532" data-name="パス 3532" d="M1040.183,3158.39l-54.417,27.26-25.293-25.821,59.809-27.665Z" fill="none" stroke="#231815" stroke-linejoin="round" stroke-width="1.317"/>
      <path id="パス_3533" data-name="パス 3533" d="M1040.183,3158.39l42.8,20.937,27.138-26.874-51.536-20.437Z" fill="none" stroke="#231815" stroke-linejoin="round" stroke-width="1.317"/>
      <g id="グループ_340" data-name="グループ 340">
        <g id="グループ_339" data-name="グループ 339" clip-path="url(#clip-path-10)">
          <path id="パス_3534" data-name="パス 3534" d="M1035.826,3213.579h21.868l56.647-40.838-31.353,6.587Z" fill="none" stroke="#231815" stroke-linejoin="round" stroke-width="1.317"/>
          <path id="パス_3535" data-name="パス 3535" d="M985.075,3200.214v19.952l50.751,35.042V3213.58" fill="none" stroke="#231815" stroke-linejoin="round" stroke-width="1.317"/>
          <path id="パス_3536" data-name="パス 3536" d="M1082.366,3195.793v17.91l-46.54,41.5v-41.629" fill="none" stroke="#231815" stroke-linejoin="round" stroke-width="1.317"/>
        </g>
      </g>
      <path id="パス_3537" data-name="パス 3537" d="M1010.62,3188.373l48.831,8.079,15.631-1.931,4.041-5.095.879-2.108,6.673-16.687,1.054-3.511-1.229-1.231-7.552-3.689-15.808-10.539-16.513-4.917-11.416,5.269-13,3.689-4.743,10.714-8.958-.527-12.472,6.323,1.054,7.9.177,6.323,3.864,3.339,6.148-1.231Z" fill="#fff"/>
      <path id="パス_3538" data-name="パス 3538" d="M1010.62,3188.373l48.831,8.079,15.631-1.931,4.041-5.095.879-2.108,6.673-16.687,1.054-3.511-1.229-1.231-7.552-3.689-15.808-10.539-16.513-4.917-11.416,5.269-13,3.689-4.743,10.714-8.958-.527-12.472,6.323,1.054,7.9.177,6.323,3.864,3.339,6.148-1.231Z" fill="none" stroke="#231815" stroke-linejoin="round" stroke-width="1.317"/>
      <path id="パス_3539" data-name="パス 3539" d="M996.041,3172.214l6.5,4.917,9.485-.527,8.608-5.619,6.5-9.662,13.174-5.619" fill="none" stroke="#231815" stroke-linejoin="round" stroke-width="1.317"/>
      <line id="線_35" data-name="線 35" y1="10.714" x2="14.929" transform="translate(1002.54 3166.418)" fill="none" stroke="#231815" stroke-linejoin="round" stroke-width="1.317"/>
      <path id="パス_3540" data-name="パス 3540" d="M1003.77,3186.266l21.957-14.755,10.012-5.094,4.565-10.714" fill="none" stroke="#231815" stroke-linejoin="round" stroke-width="1.317"/>
      <path id="パス_3541" data-name="パス 3541" d="M1025.726,3171.511l19.5-4.742,11.945-2.987-5.447-7.9-6.323,2.46,4.041,2.987" fill="none" stroke="#231815" stroke-linejoin="round" stroke-width="1.317"/>
      <path id="パス_3542" data-name="パス 3542" d="M1066.653,3158.337l-14.93-5.622-5.094-5.971" fill="none" stroke="#231815" stroke-linejoin="round" stroke-width="1.317"/>
      <path id="パス_3543" data-name="パス 3543" d="M1057.694,3157.635l5.729,3.32,9.727,5.638-.35,15.281" fill="none" stroke="#231815" stroke-linejoin="round" stroke-width="1.317"/>
      <path id="パス_3544" data-name="パス 3544" d="M1058.045,3182.928l4.39-6.676.527,10.012" fill="none" stroke="#231815" stroke-linejoin="round" stroke-width="1.317"/>
      <path id="パス_3545" data-name="パス 3545" d="M1062.964,3186.266l8.256-2.987,1.581-1.4,1.581-.879,5.444-8.606-2.108-7.554" fill="none" stroke="#231815" stroke-linejoin="round" stroke-width="1.317"/>
      <path id="パス_3546" data-name="パス 3546" d="M1063.422,3160.955l5.337,13.543-2.985,5.621" fill="none" stroke="#231815" stroke-linejoin="round" stroke-width="1.317"/>
      <path id="パス_3547" data-name="パス 3547" d="M1033.982,3212.547v-11.176l-23.538-13v11.045l23.538,13.129v-11.176l28.807-17.126v9.749l-26.963,19.585Z" fill="#fff"/>
      <path id="パス_3548" data-name="パス 3548" d="M1033.982,3212.547v-11.176l-23.538-13v11.045l23.538,13.129v-11.176l28.807-17.126v9.749l-26.963,19.585Z" fill="none" stroke="#231815" stroke-linejoin="round" stroke-width="1.317"/>
      <path id="パス_3549" data-name="パス 3549" d="M1033.982,3201.372l-23.538-13,31.486-16.158,20.859,12.031Z" fill="#fff"/>
      <path id="パス_3550" data-name="パス 3550" d="M1033.982,3201.372l-23.538-13,31.486-16.158,20.859,12.031Z" fill="none" stroke="#231815" stroke-linejoin="round" stroke-width="1.317"/>
      <path id="パス_3551" data-name="パス 3551" d="M1059.451,3196.453l3.514-10.187,8.254-2.987,3.162-2.283.7,13.526Z" fill="#fff"/>
      <path id="パス_3552" data-name="パス 3552" d="M1059.451,3196.453l3.514-10.187,8.254-2.987,3.162-2.283.7,13.526Z" fill="none" stroke="#231815" stroke-linejoin="round" stroke-width="1.317"/>
      <rect id="長方形_104" data-name="長方形 104" width="47.36" height="8.983" transform="translate(592.875 3174.945)" fill="#717071"/>
      <rect id="長方形_105" data-name="長方形 105" width="47.36" height="8.983" transform="translate(592.875 3197.319)" fill="#717071"/>
      <rect id="長方形_106" data-name="長方形 106" width="63.491" height="8.983" transform="translate(849.777 3186.348)" fill="#717071"/>
      <rect id="長方形_107" data-name="長方形 107" width="47.359" height="8.984" transform="translate(884.618 3217.761) rotate(-45)" fill="#717071"/>
      <rect id="長方形_108" data-name="長方形 108" width="8.983" height="47.359" transform="translate(884.619 3163.489) rotate(-45.001)" fill="#717071"/>
      <rect id="長方形_109" data-name="長方形 109" width="47.36" height="8.983" transform="translate(347.587 3186.133)" fill="#717071"/>
      <rect id="長方形_110" data-name="長方形 110" width="8.983" height="47.36" transform="translate(366.775 3166.944)" fill="#717071"/>
    </g>
  </g>
</svg>
