<svg xmlns="http://www.w3.org/2000/svg" xmlns:xlink="http://www.w3.org/1999/xlink" width="947.998" height="187.518" viewBox="0 0 947.998 187.518">
  <defs>
    <clipPath id="clip-path">
      <rect id="長方形_111" data-name="長方形 111" width="134.469" height="187.517" transform="translate(166.001 2799.522)" fill="none"/>
    </clipPath>
    <clipPath id="clip-path-2">
      <rect id="長方形_113" data-name="長方形 113" width="180.128" height="119.09" transform="translate(407.078 2833.738)" fill="none"/>
    </clipPath>
    <clipPath id="clip-path-6">
      <rect id="長方形_117" data-name="長方形 117" width="109.342" height="138.324" transform="translate(693.815 2827.107)" fill="none"/>
    </clipPath>
    <clipPath id="clip-path-8">
      <rect id="長方形_119" data-name="長方形 119" width="158.611" height="136.414" transform="translate(955.388 2828.063)" fill="none"/>
    </clipPath>
  </defs>
  <g id="グループ_398" data-name="グループ 398" transform="translate(-166.001 -2799.522)">
    <g id="グループ_364" data-name="グループ 364">
      <g id="グループ_343" data-name="グループ 343">
        <g id="グループ_342" data-name="グループ 342" clip-path="url(#clip-path)">
          <path id="パス_3553" data-name="パス 3553" d="M239.816,2829.534l1.537-3.12a4.888,4.888,0,0,1,6.772-2.3l4.256,2.095,15.174,7.474,6.1,3c1.985.978,3.7,3.937,2.723,5.922l-1.956,3.972" fill="none" stroke="#231815" stroke-linejoin="round" stroke-width="1.187"/>
          <path id="パス_3554" data-name="パス 3554" d="M252.381,2826.206l2.445-4.963a20.167,20.167,0,0,1,3.718-4.688c2.251-2.064,13.193-10.906,15.9-12.609a26.557,26.557,0,0,1,13.693-3.83c2.333-.012,11.736.141,11.736.141l-.04,16.9s-11.6-.072-13.01-.064a6.034,6.034,0,0,0-3.806,1.649c-1.408,1.068-12.592,10.539-13.368,11.038s-2.1,3.9-2.1,3.9" fill="none" stroke="#231815" stroke-linejoin="round" stroke-width="1.187"/>
          <path id="パス_3555" data-name="パス 3555" d="M192.688,2940.248l-12.5,25.384,42.261,20.816,4.61-9.36,28.989-58.854,29.755-60.413c1.257-2.553.534-5.377-2.729-6.984l-8.651-4.259-34.6-17.044s-12.763-6.288-15.174-7.474-5.731-.886-7.129,1.952l-12.642,25.668-38.278,77.714Z" fill="none" stroke="#231815" stroke-linejoin="round" stroke-width="1.187"/>
          <path id="パス_3556" data-name="パス 3556" d="M227.056,2977.088l-26.8-13.2,7.892-16.026,21.1-42.828s8.311-16.877,11.247-22.832a13.948,13.948,0,0,0-6.545-18.2l-29.071-14.318" fill="none" stroke="#231815" stroke-linejoin="round" stroke-width="1.187"/>
        </g>
      </g>
      <line id="線_36" data-name="線 36" x2="26.803" y2="13.201" transform="translate(229.24 2905.033)" fill="none" stroke="#231815" stroke-linejoin="round" stroke-width="1.187"/>
      <line id="線_37" data-name="線 37" x2="15.458" y2="7.613" transform="translate(192.688 2940.248)" fill="none" stroke="#231815" stroke-linejoin="round" stroke-width="1.187"/>
      <g id="グループ_345" data-name="グループ 345">
        <g id="グループ_344" data-name="グループ 344" clip-path="url(#clip-path-2)">
          <rect id="長方形_112" data-name="長方形 112" width="178.81" height="38.467" transform="translate(407.737 2913.701)" fill="none" stroke="#231815" stroke-linejoin="round" stroke-width="1.317"/>
        </g>
      </g>
      <line id="線_38" data-name="線 38" y2="36.096" transform="translate(559.409 2913.701)" fill="none" stroke="#231815" stroke-linejoin="round" stroke-width="1.317"/>
      <g id="グループ_347" data-name="グループ 347">
        <g id="グループ_346" data-name="グループ 346" clip-path="url(#clip-path-2)">
          <line id="線_39" data-name="線 39" x2="95.993" transform="translate(407.736 2920.288)" fill="none" stroke="#231815" stroke-linejoin="round" stroke-width="1.317"/>
          <line id="線_40" data-name="線 40" x2="104.688" transform="translate(407.736 2928.982)" fill="none" stroke="#231815" stroke-linejoin="round" stroke-width="1.317"/>
        </g>
      </g>
      <line id="線_41" data-name="線 41" x2="1.448" transform="translate(451.736 2891.833)" fill="none" stroke="#231815" stroke-linejoin="round" stroke-width="1.317"/>
      <line id="線_42" data-name="線 42" x2="128.143" transform="translate(455.698 2891.833)" fill="none" stroke="#231815" stroke-linejoin="round" stroke-width="1.317" stroke-dasharray="2.879 2.512"/>
      <g id="グループ_349" data-name="グループ 349">
        <g id="グループ_348" data-name="グループ 348" clip-path="url(#clip-path-2)">
          <line id="線_43" data-name="線 43" x2="1.448" transform="translate(585.098 2891.833)" fill="none" stroke="#231815" stroke-linejoin="round" stroke-width="1.317"/>
          <line id="線_44" data-name="線 44" x2="1.448" transform="translate(407.737 2872.072)" fill="none" stroke="#231815" stroke-linejoin="round" stroke-width="1.317"/>
        </g>
      </g>
      <line id="線_45" data-name="線 45" x2="139.458" transform="translate(411.708 2872.072)" fill="none" stroke="#231815" stroke-linejoin="round" stroke-width="1.317" stroke-dasharray="2.89 2.523"/>
      <line id="線_46" data-name="線 46" x2="1.448" transform="translate(552.427 2872.072)" fill="none" stroke="#231815" stroke-linejoin="round" stroke-width="1.317"/>
      <g id="グループ_351" data-name="グループ 351">
        <g id="グループ_350" data-name="グループ 350" clip-path="url(#clip-path-2)">
          <line id="線_47" data-name="線 47" x2="18.18" transform="translate(568.368 2920.288)" fill="none" stroke="#231815" stroke-linejoin="round" stroke-width="1.317"/>
          <line id="線_48" data-name="線 48" x2="8.168" transform="translate(578.38 2925.294)" fill="none" stroke="#231815" stroke-linejoin="round" stroke-width="1.317"/>
          <line id="線_49" data-name="線 49" x2="88.879" transform="translate(407.736 2937.677)" fill="none" stroke="#231815" stroke-linejoin="round" stroke-width="1.317"/>
          <line id="線_50" data-name="線 50" x2="101.526" transform="translate(407.736 2942.946)" fill="none" stroke="#231815" stroke-linejoin="round" stroke-width="1.317"/>
          <line id="線_51" data-name="線 51" x2="20.551" transform="translate(565.996 2942.946)" fill="none" stroke="#231815" stroke-linejoin="round" stroke-width="1.317"/>
          <line id="線_52" data-name="線 52" x2="22.395" transform="translate(564.152 2929.509)" fill="none" stroke="#231815" stroke-linejoin="round" stroke-width="1.317"/>
          <line id="線_53" data-name="線 53" x2="9.222" transform="translate(577.326 2934.779)" fill="none" stroke="#231815" stroke-linejoin="round" stroke-width="1.317"/>
          <line id="線_54" data-name="線 54" x2="14.755" transform="translate(571.793 2938.731)" fill="none" stroke="#231815" stroke-linejoin="round" stroke-width="1.317"/>
          <path id="パス_3557" data-name="パス 3557" d="M559.409,2913.7l27.138-21.868-32.671-19.76L579.96,2834.4H439.09l-31.353,37.677,44,19.76L413.8,2913.7" fill="none" stroke="#231815" stroke-linejoin="round" stroke-width="1.317"/>
        </g>
      </g>
      <g id="グループ_353" data-name="グループ 353">
        <g id="グループ_352" data-name="グループ 352" clip-path="url(#clip-path-6)">
          <path id="パス_3558" data-name="パス 3558" d="M694.737,2930.784l-.263,15.809L705.8,2956.6l16.072-.263,3.952,8.431,8.958-2.108,3.952-.527,3.952-8.958,11.066-12.91,2.179-9.363,8.623-7.236,9.485-13.7v-6.85l7.114-2.9,3.689-7.9.263-11.593,8.958-6.323v-21.6l8.168-3.688.263-7.114-8.431-6.85-37.94-7.377-.263,8.431-8.695,7.377-1.317,10.275-6.06,7.9-6.323,15.281L717.4,2896.8l-2.371,13.437-7.377,3.952-.79,8.695-4.742,7.114Z" fill="none" stroke="#231815" stroke-linejoin="round" stroke-width="1.317"/>
        </g>
      </g>
      <line id="線_55" data-name="線 55" y1="0.839" x2="0.44" transform="translate(710.808 2938.376)" fill="none" stroke="#231815" stroke-linejoin="round" stroke-width="1.317"/>
      <path id="パス_3559" data-name="パス 3559" d="M713.073,2934.9l3.267-6.224L728.2,2916.03l4.216-10.539,7.641-11.066,5.006-14.228,5.006-10.276,11.951-9.517" fill="none" stroke="#231815" stroke-linejoin="round" stroke-width="1.317" stroke-dasharray="1.882 3.923"/>
      <path id="パス_3560" data-name="パス 3560" d="M763.552,2859.183l.742-.59.023-.948" fill="none" stroke="#231815" stroke-linejoin="round" stroke-width="1.317"/>
      <line id="線_56" data-name="線 56" y1="14.274" x2="0.348" transform="translate(764.405 2839.748)" fill="none" stroke="#231815" stroke-linejoin="round" stroke-width="1.317" stroke-dasharray="1.739 3.623"/>
      <line id="線_57" data-name="線 57" y1="0.571" x2="0.757" transform="translate(720.03 2947.075)" fill="none" stroke="#231815" stroke-linejoin="round" stroke-width="1.317"/>
      <path id="パス_3561" data-name="パス 3561" d="M723.88,2944.738l8.005-6.049,6.85-12.91,6.06-15.809,10.278-15.281,7.641-13.964,1.317-5.27,10.012-9.749,2.371-17.126,2.66-5.322" fill="none" stroke="#231815" stroke-linejoin="round" stroke-width="1.317" stroke-dasharray="1.861 3.876"/>
      <line id="線_58" data-name="線 58" y1="0.847" x2="0.426" transform="translate(779.941 2840.677)" fill="none" stroke="#231815" stroke-linejoin="round" stroke-width="1.317"/>
      <line id="線_59" data-name="線 59" x2="7.641" y2="1.844" transform="translate(767.192 2843.048)" fill="none" stroke="#231815" stroke-linejoin="round" stroke-width="1.317"/>
      <line id="線_60" data-name="線 60" x2="5.006" y2="2.635" transform="translate(766.929 2848.844)" fill="none" stroke="#231815" stroke-linejoin="round" stroke-width="1.317"/>
      <line id="線_61" data-name="線 61" x2="4.743" y2="1.317" transform="translate(767.719 2855.958)" fill="none" stroke="#231815" stroke-linejoin="round" stroke-width="1.317"/>
      <line id="線_62" data-name="線 62" x2="3.162" y2="1.844" transform="translate(763.767 2862.281)" fill="none" stroke="#231815" stroke-linejoin="round" stroke-width="1.317"/>
      <line id="線_63" data-name="線 63" x2="5.269" y2="1.844" transform="translate(756.39 2868.605)" fill="none" stroke="#231815" stroke-linejoin="round" stroke-width="1.317"/>
      <line id="線_64" data-name="線 64" x2="6.587" y2="2.108" transform="translate(751.647 2874.401)" fill="none" stroke="#231815" stroke-linejoin="round" stroke-width="1.317"/>
      <line id="線_65" data-name="線 65" x2="5.796" y2="2.635" transform="translate(749.012 2880.724)" fill="none" stroke="#231815" stroke-linejoin="round" stroke-width="1.317"/>
      <line id="線_66" data-name="線 66" x2="5.006" y2="2.108" transform="translate(746.114 2887.838)" fill="none" stroke="#231815" stroke-linejoin="round" stroke-width="1.317"/>
      <line id="線_67" data-name="線 67" x2="6.323" y2="3.425" transform="translate(742.689 2894.162)" fill="none" stroke="#231815" stroke-linejoin="round" stroke-width="1.317"/>
      <line id="線_68" data-name="線 68" x2="4.479" y2="2.371" transform="translate(737.946 2902.065)" fill="none" stroke="#231815" stroke-linejoin="round" stroke-width="1.317"/>
      <line id="線_69" data-name="線 69" x2="3.162" y2="1.581" transform="translate(734.785 2909.443)" fill="none" stroke="#231815" stroke-linejoin="round" stroke-width="1.317"/>
      <line id="線_70" data-name="線 70" x2="5.006" y2="4.743" transform="translate(731.623 2914.185)" fill="none" stroke="#231815" stroke-linejoin="round" stroke-width="1.317"/>
      <line id="線_71" data-name="線 71" x2="7.377" y2="5.533" transform="translate(726.88 2921.035)" fill="none" stroke="#231815" stroke-linejoin="round" stroke-width="1.317"/>
      <line id="線_72" data-name="線 72" x2="7.904" y2="5.006" transform="translate(722.928 2926.568)" fill="none" stroke="#231815" stroke-linejoin="round" stroke-width="1.317"/>
      <line id="線_73" data-name="線 73" x2="7.641" y2="3.952" transform="translate(718.186 2933.155)" fill="none" stroke="#231815" stroke-linejoin="round" stroke-width="1.317"/>
      <line id="線_74" data-name="線 74" x2="4.743" y2="4.479" transform="translate(714.761 2939.742)" fill="none" stroke="#231815" stroke-linejoin="round" stroke-width="1.317"/>
      <g id="グループ_355" data-name="グループ 355">
        <g id="グループ_354" data-name="グループ 354" clip-path="url(#clip-path-6)">
          <path id="パス_3562" data-name="パス 3562" d="M694.473,2946.593l12.91-8.431,3.162-8.431" fill="none" stroke="#231815" stroke-linejoin="round" stroke-width="1.317"/>
        </g>
      </g>
      <path id="パス_3563" data-name="パス 3563" d="M697.635,2936.317l7.114-3.162,2.108-10.275" fill="none" stroke="#231815" stroke-linejoin="round" stroke-width="1.317"/>
      <path id="パス_3564" data-name="パス 3564" d="M715.024,2910.233l-3.689,14.228,9.749-15.545" fill="none" stroke="#231815" stroke-linejoin="round" stroke-width="1.317"/>
      <path id="パス_3565" data-name="パス 3565" d="M722.4,2896.006l-2.635,7.9,7.114-2.108v-13.437l6.587-11.329" fill="none" stroke="#231815" stroke-linejoin="round" stroke-width="1.317"/>
      <path id="パス_3566" data-name="パス 3566" d="M731.36,2892.317l5.8-7.377,3.425-8.168,2.108-13.174,3.162-9.749" fill="none" stroke="#231815" stroke-linejoin="round" stroke-width="1.317"/>
      <line id="線_75" data-name="線 75" y1="7.114" x2="6.85" transform="translate(733.731 2876.772)" fill="none" stroke="#231815" stroke-linejoin="round" stroke-width="1.317"/>
      <path id="パス_3567" data-name="パス 3567" d="M748.485,2861.491l7.9-11.856-.527-13.437" fill="none" stroke="#231815" stroke-linejoin="round" stroke-width="1.317"/>
      <line id="線_76" data-name="線 76" y1="15.808" x2="4.479" transform="translate(751.384 2836.197)" fill="none" stroke="#231815" stroke-linejoin="round" stroke-width="1.317"/>
      <path id="パス_3568" data-name="パス 3568" d="M705.8,2956.6v-8.695l15.281,3.952" fill="none" stroke="#231815" stroke-linejoin="round" stroke-width="1.317"/>
      <path id="パス_3569" data-name="パス 3569" d="M721.874,2956.341l14.755-7.641,7.9-12.12" fill="none" stroke="#231815" stroke-linejoin="round" stroke-width="1.317"/>
      <path id="パス_3570" data-name="パス 3570" d="M734.785,2962.664l6.587-13.7,8.168-11.856,6.4-6.2" fill="none" stroke="#231815" stroke-linejoin="round" stroke-width="1.317"/>
      <path id="パス_3571" data-name="パス 3571" d="M755.336,2909.179l-10.579,17-4.175,6.711,15.353-1.986" fill="none" stroke="#231815" stroke-linejoin="round" stroke-width="1.317"/>
      <path id="パス_3572" data-name="パス 3572" d="M744.757,2926.181l9-3.037,20.287-20.024" fill="none" stroke="#231815" stroke-linejoin="round" stroke-width="1.317"/>
      <path id="パス_3573" data-name="パス 3573" d="M777.468,2885.2l-4.216,10.539-11.329,13.7,7.641-23.976,5.006-11.066,6.323-10.276,7.114-8.431-1.844-7.641,5.8-5.006" fill="none" stroke="#231815" stroke-linejoin="round" stroke-width="1.317"/>
      <line id="線_77" data-name="線 77" y1="11.329" x2="5.796" transform="translate(788.27 2852.796)" fill="none" stroke="#231815" stroke-linejoin="round" stroke-width="1.317"/>
      <path id="パス_3574" data-name="パス 3574" d="M780.893,2864.125l1.317,8.431,2.9,8.168" fill="none" stroke="#231815" stroke-linejoin="round" stroke-width="1.317"/>
      <path id="パス_3575" data-name="パス 3575" d="M770.881,2890.209l1.581-7.377,9.749-10.276" fill="none" stroke="#231815" stroke-linejoin="round" stroke-width="1.317"/>
      <g id="グループ_357" data-name="グループ 357">
        <g id="グループ_356" data-name="グループ 356" clip-path="url(#clip-path-8)">
          <path id="パス_3576" data-name="パス 3576" d="M1034.825,2922.188h-25.03l-25.721-13.364-28.027-14.565h28.719Z" fill="none" stroke="#231815" stroke-linejoin="round" stroke-width="1.317"/>
        </g>
      </g>
      <path id="パス_3577" data-name="パス 3577" d="M1039.182,2867l-54.417,27.26-25.293-25.82,59.809-27.665Z" fill="none" stroke="#231815" stroke-linejoin="round" stroke-width="1.317"/>
      <path id="パス_3578" data-name="パス 3578" d="M1039.182,2867l42.8,20.937,27.138-26.875-51.536-20.437Z" fill="none" stroke="#231815" stroke-linejoin="round" stroke-width="1.317"/>
      <g id="グループ_359" data-name="グループ 359">
        <g id="グループ_358" data-name="グループ 358" clip-path="url(#clip-path-8)">
          <path id="パス_3579" data-name="パス 3579" d="M1034.825,2922.188h21.868l56.647-40.838-31.353,6.587Z" fill="none" stroke="#231815" stroke-linejoin="round" stroke-width="1.317"/>
          <path id="パス_3580" data-name="パス 3580" d="M984.074,2908.824v19.95l50.751,35.042v-41.629" fill="none" stroke="#231815" stroke-linejoin="round" stroke-width="1.317"/>
          <path id="パス_3581" data-name="パス 3581" d="M1081.365,2904.4v17.91l-46.54,41.5v-41.629" fill="none" stroke="#231815" stroke-linejoin="round" stroke-width="1.317"/>
        </g>
      </g>
      <path id="パス_3582" data-name="パス 3582" d="M977.516,2888.918,972.1,2901.2l6.511,12.339,13.93,6.243.611,8.075,8.391,1.96,3.571,1.176,6.4-5.307,13.909-5.531,5.09-6.393,9.959-2.156,13.014-6.882,2.418-5.39,7.217.611,6.035-4.74,4.4-9.1,10.128-1.368,7.917-17.355,8.558.4,2.881-5.657-4.9-9.085-30.928-21.91-3.3,6.838-10.372,2.428-4.846,7.852-8.159,3.92-10.937,9.753-20.92,9.26-6.638,9.734-7.765.129-3.6,6.557-6.49,3.68Z" fill="#fff"/>
      <path id="パス_3583" data-name="パス 3583" d="M977.516,2888.918,972.1,2901.2l6.511,12.339,13.93,6.243.611,8.075,8.391,1.96,3.571,1.176,6.4-5.307,13.909-5.531,5.09-6.393,9.959-2.156,13.014-6.882,2.418-5.39,7.217.611,6.035-4.74,4.4-9.1,10.128-1.368,7.917-17.355,8.558.4,2.881-5.657-4.9-9.085-30.928-21.91-3.3,6.838-10.372,2.428-4.846,7.852-8.159,3.92-10.937,9.753-20.92,9.26-6.638,9.734-7.765.129-3.6,6.557-6.49,3.68Z" fill="none" stroke="#231815" stroke-linejoin="round" stroke-width="1.317"/>
      <line id="線_78" data-name="線 78" y1="0.519" x2="0.715" transform="translate(988.667 2901.515)" fill="none" stroke="#231815" stroke-linejoin="round" stroke-width="1.317"/>
      <path id="パス_3584" data-name="パス 3584" d="M992.384,2899.342l4.593-3.326,14.571-5.143,7.272-6.623,10.495-5.676,9.352-9.329,8.024-6.207,13.888-2.749" fill="none" stroke="#231815" stroke-linejoin="round" stroke-width="1.317" stroke-dasharray="1.779 3.705"/>
      <path id="パス_3585" data-name="パス 3585" d="M1062.4,2859.928l.866-.171.38-.8" fill="none" stroke="#231815" stroke-linejoin="round" stroke-width="1.317"/>
      <line id="線_79" data-name="線 79" y1="11.443" x2="5.461" transform="translate(1065.03 2844.613)" fill="none" stroke="#231815" stroke-linejoin="round" stroke-width="1.317" stroke-dasharray="1.545 3.219"/>
      <line id="線_80" data-name="線 80" y1="0.797" x2="0.381" transform="translate(1071.185 2842.364)" fill="none" stroke="#231815" stroke-linejoin="round" stroke-width="1.317"/>
      <line id="線_81" data-name="線 81" y1="0.143" x2="0.87" transform="translate(993.84 2912.172)" fill="none" stroke="#231815" stroke-linejoin="round" stroke-width="1.317"/>
      <path id="パス_3586" data-name="パス 3586" d="M998.266,2911.583l8.813-1.458,10.3-7.312,10.686-9.972,14.274-7.913,11.614-8.005,3.031-3.68,12.289-3.712,8.309-12.874,4.245-3.185" fill="none" stroke="#231815" stroke-linejoin="round" stroke-width="1.317" stroke-dasharray="1.728 3.602"/>
      <line id="線_82" data-name="線 82" y1="0.529" x2="0.706" transform="translate(1083.269 2851.861)" fill="none" stroke="#231815" stroke-linejoin="round" stroke-width="1.317"/>
      <line id="線_83" data-name="線 83" x2="6.083" y2="4.684" transform="translate(1071.455 2848.313)" fill="none" stroke="#231815" stroke-linejoin="round" stroke-width="1.317"/>
      <line id="線_84" data-name="線 84" x2="3.461" y2="4.222" transform="translate(1069.114 2852.931)" fill="none" stroke="#231815" stroke-linejoin="round" stroke-width="1.317"/>
      <line id="線_85" data-name="線 85" x2="3.701" y2="3.031" transform="translate(1067.234 2859.04)" fill="none" stroke="#231815" stroke-linejoin="round" stroke-width="1.317"/>
      <line id="線_86" data-name="線 86" x2="2.118" y2="2.797" transform="translate(1061.472 2862.524)" fill="none" stroke="#231815" stroke-linejoin="round" stroke-width="1.317"/>
      <line id="線_87" data-name="線 87" x2="3.973" y2="3.659" transform="translate(1052.719 2864.583)" fill="none" stroke="#231815" stroke-linejoin="round" stroke-width="1.317"/>
      <line id="線_88" data-name="線 88" x2="5.033" y2="4.405" transform="translate(1046.492 2867.298)" fill="none" stroke="#231815" stroke-linejoin="round" stroke-width="1.317"/>
      <line id="線_89" data-name="線 89" x2="4.15" y2="4.492" transform="translate(1041.948 2871.293)" fill="none" stroke="#231815" stroke-linejoin="round" stroke-width="1.317"/>
      <line id="線_90" data-name="線 90" x2="3.642" y2="3.735" transform="translate(1036.911 2875.799)" fill="none" stroke="#231815" stroke-linejoin="round" stroke-width="1.317"/>
      <line id="線_91" data-name="線 91" x2="4.329" y2="5.312" transform="translate(1031.708 2879.443)" fill="none" stroke="#231815" stroke-linejoin="round" stroke-width="1.317"/>
      <line id="線_92" data-name="線 92" x2="3.086" y2="3.71" transform="translate(1024.827 2883.791)" fill="none" stroke="#231815" stroke-linejoin="round" stroke-width="1.317"/>
      <line id="線_93" data-name="線 93" x2="2.211" y2="2.538" transform="translate(1019.531 2888.349)" fill="none" stroke="#231815" stroke-linejoin="round" stroke-width="1.317"/>
      <line id="線_94" data-name="線 94" x2="2.734" y2="5.771" transform="translate(1015.156 2890.81)" fill="none" stroke="#231815" stroke-linejoin="round" stroke-width="1.317"/>
      <line id="線_95" data-name="線 95" x2="4.525" y2="7.335" transform="translate(1008.702 2894.283)" fill="none" stroke="#231815" stroke-linejoin="round" stroke-width="1.317"/>
      <line id="線_96" data-name="線 96" x2="5.164" y2="7.12" transform="translate(1003.401 2897.03)" fill="none" stroke="#231815" stroke-linejoin="round" stroke-width="1.317"/>
      <line id="線_97" data-name="線 97" x2="5.293" y2="6.176" transform="translate(997.076 2900.274)" fill="none" stroke="#231815" stroke-linejoin="round" stroke-width="1.317"/>
      <line id="線_98" data-name="線 98" x2="2.611" y2="5.402" transform="translate(991.913 2904.04)" fill="none" stroke="#231815" stroke-linejoin="round" stroke-width="1.317"/>
      <path id="パス_3587" data-name="パス 3587" d="M972.1,2901.2l13.949-1.376,5.541-5.331" fill="none" stroke="#231815" stroke-linejoin="round" stroke-width="1.317"/>
      <path id="パス_3588" data-name="パス 3588" d="M978.21,2894.44l7.215.4,5.248-7.232" fill="none" stroke="#231815" stroke-linejoin="round" stroke-width="1.317"/>
      <path id="パス_3589" data-name="パス 3589" d="M1002.038,2880.921l-8,9.75,13.73-8.324" fill="none" stroke="#231815" stroke-linejoin="round" stroke-width="1.317"/>
      <path id="パス_3590" data-name="パス 3590" d="M1013.328,2872.606l-5,5.225,6.932,1.231,4.622-10.735,9.717-6.4" fill="none" stroke="#231815" stroke-linejoin="round" stroke-width="1.317"/>
      <path id="パス_3591" data-name="パス 3591" d="M1022.438,2873.33l7.638-3.528,5.862-5.154,6.5-9.776,6.256-6.616" fill="none" stroke="#231815" stroke-linejoin="round" stroke-width="1.317"/>
      <line id="線_99" data-name="線 99" y1="2.9" x2="8.499" transform="translate(1027.439 2864.648)" fill="none" stroke="#231815" stroke-linejoin="round" stroke-width="1.317"/>
      <path id="パス_3592" data-name="パス 3592" d="M1048.293,2855.561l11.222-6.363,4.395-11.224" fill="none" stroke="#231815" stroke-linejoin="round" stroke-width="1.317"/>
      <line id="線_100" data-name="線 100" y1="11.074" x2="9.67" transform="translate(1054.24 2837.976)" fill="none" stroke="#231815" stroke-linejoin="round" stroke-width="1.317"/>
      <path id="パス_3593" data-name="パス 3593" d="M978.613,2913.544l2.854-6.749,11.882,9.213" fill="none" stroke="#231815" stroke-linejoin="round" stroke-width="1.317"/>
      <path id="パス_3594" data-name="パス 3594" d="M992.546,2919.787l15.258.015,10.916-6.218" fill="none" stroke="#231815" stroke-linejoin="round" stroke-width="1.317"/>
      <path id="パス_3595" data-name="パス 3595" d="M1001.548,2929.823l10.252-7.913,11.066-5.9,7.647-2.245" fill="none" stroke="#231815" stroke-linejoin="round" stroke-width="1.317"/>
      <path id="パス_3596" data-name="パス 3596" d="M1037.51,2896.505l-15.05,9.057-5.9,3.556,13.956,4.647" fill="none" stroke="#231815" stroke-linejoin="round" stroke-width="1.317"/>
      <path id="パス_3597" data-name="パス 3597" d="M1022.461,2905.563l8.84,1.265,24.6-7.489" fill="none" stroke="#231815" stroke-linejoin="round" stroke-width="1.317"/>
      <path id="パス_3598" data-name="パス 3598" d="M1065.265,2886.548l-7.434,6.642-14.687,6.2,15.119-15.87,8.34-6.787,9.264-5.649,9.331-3.859,1.18-6.951,6.964-1.661" fill="none" stroke="#231815" stroke-linejoin="round" stroke-width="1.317"/>
      <line id="線_101" data-name="線 101" y1="6.739" x2="9.253" transform="translate(1082.346 2867.39)" fill="none" stroke="#231815" stroke-linejoin="round" stroke-width="1.317"/>
      <path id="パス_3599" data-name="パス 3599" d="M1075.867,2871.085l-1.9,7.312-.415,7.715" fill="none" stroke="#231815" stroke-linejoin="round" stroke-width="1.317"/>
      <path id="パス_3600" data-name="パス 3600" d="M1057.726,2887.833l4.009-5.225,12.231-4.209" fill="none" stroke="#231815" stroke-linejoin="round" stroke-width="1.317"/>
      <path id="パス_3601" data-name="パス 3601" d="M974.106,2852.4l-3.849,9,3,5.238,7.824-.854,8.5,16.3,9.609.881,4.766,8.644,6.079,4.393,6.932-.841,2.692,5.2,13.237,6.4,10.1,1.886,5.539,6.245,14.613,5.289,6.983,5.255,3.682-1.229,8.8-2.108.2-8.254,14.744-6.758,6.5-13.051-6.65-12.609-7.169,2.778-7.234-3.512-4.239-6.593-8.282.278-7.565-9.609-22.148-8.1-11.625-9.07-8.351-3.328-5.267-7.464-10.25-1.583-3.626-6.494Z" fill="#fff"/>
      <g id="グループ_361" data-name="グループ 361">
        <g id="グループ_360" data-name="グループ 360" clip-path="url(#clip-path-8)">
          <path id="パス_3602" data-name="パス 3602" d="M1097.414,2881.417l6.65,12.609-6.5,13.051-14.742,6.76-.2,8.254-8.8,2.106-3.684,1.231-6.981-5.257-14.613-5.289-5.537-6.247-10.107-1.885-13.235-6.4-2.692-5.2-6.934.841-6.079-4.393-4.766-8.644-9.61-.881-8.5-16.3-7.824.854-3.006-5.236,3.849-9,27.553-23.681,3.625,6.494,10.25,1.583,5.267,7.464,8.351,3.328,11.626,9.07,22.146,8.1,7.565,9.607,8.279-.278,4.241,6.593,7.234,3.511Z" fill="none" stroke="#231815" stroke-linejoin="round" stroke-width="1.317"/>
        </g>
      </g>
      <path id="パス_3603" data-name="パス 3603" d="M1082.258,2893.129l-5.52-3.5-15.652-4.637-7.929-6.378-11.072-5.2-10-8.836-8.372-5.71-13.781-1.846" fill="none" stroke="#231815" stroke-linejoin="round" stroke-width="1.317" stroke-dasharray="1.712 3.566"/>
      <path id="パス_3604" data-name="パス 3604" d="M1008.167,2856.783l-.845-.114-.411-.746" fill="none" stroke="#231815" stroke-linejoin="round" stroke-width="1.317"/>
      <line id="線_102" data-name="線 102" x1="5.99" y1="10.887" transform="translate(999.398 2842.272)" fill="none" stroke="#231815" stroke-linejoin="round" stroke-width="1.317" stroke-dasharray="1.513 3.153"/>
      <line id="線_103" data-name="線 103" x1="0.845" y1="0.112" transform="translate(1080.167 2906.112)" fill="none" stroke="#231815" stroke-linejoin="round" stroke-width="1.317"/>
      <path id="パス_3605" data-name="パス 3605" d="M1076.572,2905.638l-9.692-1.277-11.136-7.069-11.53-9.618-14.82-7.27-11.941-7.356-3.189-3.467-12.08-2.966-8.731-12.061-4.106-2.757" fill="none" stroke="#231815" stroke-linejoin="round" stroke-width="1.317" stroke-dasharray="1.741 3.625"/>
      <line id="線_104" data-name="線 104" x1="0.708" y1="0.474" transform="translate(987.134 2850.313)" fill="none" stroke="#231815" stroke-linejoin="round" stroke-width="1.317"/>
      <line id="線_105" data-name="線 105" x1="5.463" y2="5.006" transform="translate(993.258 2845.978)" fill="none" stroke="#231815" stroke-linejoin="round" stroke-width="1.317"/>
      <line id="線_106" data-name="線 106" x1="3.027" y2="4.367" transform="translate(998.232 2850.347)" fill="none" stroke="#231815" stroke-linejoin="round" stroke-width="1.317"/>
      <line id="線_107" data-name="線 107" x1="3.341" y2="3.202" transform="translate(1000.116 2856.219)" fill="none" stroke="#231815" stroke-linejoin="round" stroke-width="1.317"/>
      <line id="線_108" data-name="線 108" x1="1.865" y2="2.879" transform="translate(1007.364 2859.282)" fill="none" stroke="#231815" stroke-linejoin="round" stroke-width="1.317"/>
      <line id="線_109" data-name="線 109" x1="3.647" y2="3.855" transform="translate(1014.233 2860.778)" fill="none" stroke="#231815" stroke-linejoin="round" stroke-width="1.317"/>
      <line id="線_110" data-name="線 110" x1="4.679" y2="4.662" transform="translate(1019.499 2863.097)" fill="none" stroke="#231815" stroke-linejoin="round" stroke-width="1.317"/>
      <line id="線_111" data-name="線 111" x1="3.836" y2="4.698" transform="translate(1025.102 2866.813)" fill="none" stroke="#231815" stroke-linejoin="round" stroke-width="1.317"/>
      <line id="線_112" data-name="線 112" x1="3.41" y2="3.918" transform="translate(1030.84 2871.035)" fill="none" stroke="#231815" stroke-linejoin="round" stroke-width="1.317"/>
      <line id="線_113" data-name="線 113" x1="4.034" y2="5.527" transform="translate(1035.677 2874.41)" fill="none" stroke="#231815" stroke-linejoin="round" stroke-width="1.317"/>
      <line id="線_114" data-name="線 114" x1="2.919" y2="3.874" transform="translate(1044.047 2878.438)" fill="none" stroke="#231815" stroke-linejoin="round" stroke-width="1.317"/>
      <line id="線_115" data-name="線 115" x1="2.118" y2="2.656" transform="translate(1050.549 2882.787)" fill="none" stroke="#231815" stroke-linejoin="round" stroke-width="1.317"/>
      <line id="線_116" data-name="線 116" x1="2.481" y2="5.946" transform="translate(1054.851 2885.082)" fill="none" stroke="#231815" stroke-linejoin="round" stroke-width="1.317"/>
      <line id="線_117" data-name="線 117" x1="4.285" y2="7.611" transform="translate(1059.97 2888.333)" fill="none" stroke="#231815" stroke-linejoin="round" stroke-width="1.317"/>
      <line id="線_118" data-name="線 118" x1="5.008" y2="7.43" transform="translate(1064.976 2890.919)" fill="none" stroke="#231815" stroke-linejoin="round" stroke-width="1.317"/>
      <line id="線_119" data-name="線 119" x1="5.257" y2="6.49" transform="translate(1071.617 2893.996)" fill="none" stroke="#231815" stroke-linejoin="round" stroke-width="1.317"/>
      <line id="線_120" data-name="線 120" x1="2.491" y2="5.626" transform="translate(1080.117 2897.677)" fill="none" stroke="#231815" stroke-linejoin="round" stroke-width="1.317"/>
      <path id="パス_3606" data-name="パス 3606" d="M1104.064,2894.025l-15.368-.9-6.283-5.282" fill="none" stroke="#231815" stroke-linejoin="round" stroke-width="1.317"/>
      <path id="パス_3607" data-name="パス 3607" d="M1096.955,2887.212l-7.858.721-6.085-7.249" fill="none" stroke="#231815" stroke-linejoin="round" stroke-width="1.317"/>
      <path id="パス_3608" data-name="パス 3608" d="M1070.491,2874.368l9.078,9.637-15.037-7.881" fill="none" stroke="#231815" stroke-linejoin="round" stroke-width="1.317"/>
      <path id="パス_3609" data-name="パス 3609" d="M1058.15,2866.487l5.537,5.052-7.158,1.627-5.421-10.642-10.328-5.866" fill="none" stroke="#231815" stroke-linejoin="round" stroke-width="1.317"/>
      <path id="パス_3610" data-name="パス 3610" d="M1048.779,2867.748l-8.006-3.117-6.237-4.827-7.112-9.375-6.623-6.167" fill="none" stroke="#231815" stroke-linejoin="round" stroke-width="1.317"/>
      <line id="線_121" data-name="線 121" x1="8.779" y1="2.394" transform="translate(1034.537 2859.803)" fill="none" stroke="#231815" stroke-linejoin="round" stroke-width="1.317"/>
      <path id="パス_3611" data-name="パス 3611" d="M1021.659,2851.523l-11.395-5.533-4.979-10.775" fill="none" stroke="#231815" stroke-linejoin="round" stroke-width="1.317"/>
      <line id="線_122" data-name="線 122" x1="10.113" y1="10.246" transform="translate(1005.286 2835.215)" fill="none" stroke="#231815" stroke-linejoin="round" stroke-width="1.317"/>
      <path id="パス_3612" data-name="パス 3612" d="M1097.56,2907.077l-3.49-6.905-12.324,9.816" fill="none" stroke="#231815" stroke-linejoin="round" stroke-width="1.317"/>
      <path id="パス_3613" data-name="パス 3613" d="M1082.817,2913.837l-16.135.333L1055,2908.16" fill="none" stroke="#231815" stroke-linejoin="round" stroke-width="1.317"/>
      <path id="パス_3614" data-name="パス 3614" d="M1073.824,2924.2l-11.182-7.824-11.738-5.683-7.9-2.055" fill="none" stroke="#231815" stroke-linejoin="round" stroke-width="1.317"/>
      <path id="パス_3615" data-name="パス 3615" d="M1034.927,2891.7l15.764,8.522,6.277,3.391-13.962,5.023" fill="none" stroke="#231815" stroke-linejoin="round" stroke-width="1.317"/>
      <path id="パス_3616" data-name="パス 3616" d="M1050.692,2900.222l-8.9,1.535-24.817-6.6" fill="none" stroke="#231815" stroke-linejoin="round" stroke-width="1.317"/>
      <path id="パス_3617" data-name="パス 3617" d="M1007.123,2883.026l7.594,6.182,14.78,5.556-15.815-15.016-8.475-6.241-9.181-5.017-9.013-3.225-1.562-6.646-6.561-1.174" fill="none" stroke="#231815" stroke-linejoin="round" stroke-width="1.317"/>
      <line id="線_123" data-name="線 123" x1="9.047" y1="5.997" transform="translate(981.086 2865.785)" fill="none" stroke="#231815" stroke-linejoin="round" stroke-width="1.317"/>
      <path id="パス_3618" data-name="パス 3618" d="M996.026,2868.492l2.274,7.006.9,7.464" fill="none" stroke="#231815" stroke-linejoin="round" stroke-width="1.317"/>
      <path id="パス_3619" data-name="パス 3619" d="M1014.476,2883.957l-4.214-4.941-11.96-3.52" fill="none" stroke="#231815" stroke-linejoin="round" stroke-width="1.317"/>
      <path id="パス_3620" data-name="パス 3620" d="M1069.516,2901.637l-27.4,3.337-4.742-41.8,26.874-2.987Z" fill="#fff"/>
      <path id="パス_3621" data-name="パス 3621" d="M1069.516,2901.637l-27.4,3.337-4.742-41.8,26.874-2.987Z" fill="none" stroke="#231815" stroke-linejoin="round" stroke-width="1.317"/>
      <path id="パス_3622" data-name="パス 3622" d="M1071.8,2900.759l-2.283.879-5.27-41.454,2.458.175Z" fill="#fff"/>
      <path id="パス_3623" data-name="パス 3623" d="M1071.8,2900.759l-2.283.879-5.27-41.454,2.458.175Z" fill="none" stroke="#231815" stroke-linejoin="round" stroke-width="1.317"/>
      <g id="グループ_363" data-name="グループ 363">
        <g id="グループ_362" data-name="グループ 362" clip-path="url(#clip-path-8)">
          <path id="パス_3624" data-name="パス 3624" d="M1046.592,2864.517a16.909,16.909,0,0,0-4.742.678l-23.393,3.347,1.436,36.455,26.7-2.987c9.827,0,17.8-8.393,17.8-18.747s-7.969-18.746-17.8-18.746" fill="#fff"/>
          <path id="パス_3625" data-name="パス 3625" d="M1046.592,2864.517a16.909,16.909,0,0,0-4.742.678l-23.393,3.347,1.436,36.455,26.7-2.987c9.827,0,17.8-8.393,17.8-18.747S1056.419,2864.517,1046.592,2864.517Z" fill="none" stroke="#231815" stroke-linejoin="round" stroke-width="1.317"/>
          <path id="パス_3626" data-name="パス 3626" d="M1037.689,2886.769a17.8,17.8,0,1,1-17.8-18.228A18.016,18.016,0,0,1,1037.689,2886.769Z" fill="none" stroke="#231815" stroke-linejoin="round" stroke-width="1.317"/>
          <path id="パス_3627" data-name="パス 3627" d="M1023.847,2886.94c0,4.722-3.35,8.549-7.481,8.549s-7.48-3.827-7.48-8.549,3.349-8.549,7.48-8.549S1023.847,2882.219,1023.847,2886.94Z" fill="none" stroke="#231815" stroke-linejoin="round" stroke-width="1.317"/>
          <path id="パス_3628" data-name="パス 3628" d="M1034.818,2886.769c0,10.067-7.325,18.228-16.359,18.228s-16.361-8.161-16.361-18.228,7.325-18.228,16.361-18.228,16.359,8.161,16.359,18.228" fill="#fff"/>
          <path id="パス_3629" data-name="パス 3629" d="M1034.818,2886.769c0,10.067-7.325,18.228-16.359,18.228s-16.361-8.161-16.361-18.228,7.325-18.228,16.361-18.228S1034.818,2876.7,1034.818,2886.769Z" fill="none" stroke="#231815" stroke-linejoin="round" stroke-width="1.317"/>
          <path id="パス_3630" data-name="パス 3630" d="M1015.767,2880.033a5.4,5.4,0,0,0-1.246.145l-13.861,1.61v14.053l15.107-1.756c3.395,0,6.148-3.147,6.148-7.027s-2.753-7.025-6.148-7.025" fill="#fff"/>
          <path id="パス_3631" data-name="パス 3631" d="M1015.767,2880.033a5.4,5.4,0,0,0-1.246.145l-13.861,1.61v14.053l15.107-1.756c3.395,0,6.148-3.147,6.148-7.027S1019.162,2880.033,1015.767,2880.033Z" fill="none" stroke="#231815" stroke-linejoin="round" stroke-width="1.317"/>
          <path id="パス_3632" data-name="パス 3632" d="M1006.809,2888.815c0,3.881-2.753,7.025-6.149,7.025s-6.146-3.144-6.146-7.025,2.753-7.025,6.146-7.025,6.149,3.145,6.149,7.025" fill="#fff"/>
          <path id="パス_3633" data-name="パス 3633" d="M1006.809,2888.815c0,3.881-2.753,7.025-6.149,7.025s-6.146-3.144-6.146-7.025,2.753-7.025,6.146-7.025S1006.809,2884.935,1006.809,2888.815Z" fill="none" stroke="#231815" stroke-linejoin="round" stroke-width="1.317"/>
        </g>
      </g>
      <rect id="長方形_123" data-name="長方形 123" width="47.36" height="8.983" transform="translate(625.792 2877.603)" fill="#717071"/>
      <rect id="長方形_124" data-name="長方形 124" width="47.36" height="8.983" transform="translate(625.792 2899.977)" fill="#717071"/>
      <rect id="長方形_125" data-name="長方形 125" width="63.491" height="8.983" transform="translate(848.776 2889.004)" fill="#717071"/>
      <rect id="長方形_126" data-name="長方形 126" width="47.359" height="8.984" transform="translate(883.617 2920.418) rotate(-45)" fill="#717071"/>
      <rect id="長方形_127" data-name="長方形 127" width="8.984" height="47.359" transform="matrix(0.707, -0.707, 0.707, 0.707, 883.617, 2866.146)" fill="#717071"/>
      <rect id="長方形_128" data-name="長方形 128" width="47.36" height="8.983" transform="translate(321.132 2888.789)" fill="#717071"/>
      <rect id="長方形_129" data-name="長方形 129" width="8.983" height="47.36" transform="translate(340.32 2869.602)" fill="#717071"/>
    </g>
  </g>
</svg>
